<?xml version="1.0" encoding="utf-8"?>
<!-- Generator: Adobe Illustrator 23.0.3, SVG Export Plug-In . SVG Version: 6.00 Build 0)  -->
<svg version="1.1" xmlns="http://www.w3.org/2000/svg" xmlns:xlink="http://www.w3.org/1999/xlink" x="0px" y="0px"
	 viewBox="0 0 742.26 861.34" style="enable-background:new 0 0 742.26 861.34;" xml:space="preserve">
<style type="text/css">
	.st0{fill:#54544C;}
	.st1{fill:#7C7C6F;}
	.st2{fill:#DDE3D4;}
	.st3{fill:none;stroke:#54544C;stroke-width:2;stroke-miterlimit:10;}
	.st4{fill:none;stroke:#54544C;stroke-miterlimit:10;}
	.st5{fill:#9C7862;}
	.st6{fill:#E7DBCC;}
	.st7{fill:#CFC3B6;stroke:#54544C;stroke-miterlimit:10;}
	.st8{fill:#92846E;}
	.st9{fill:#918171;}
	.st10{fill:#A7947D;}
	.st11{clip-path:url(#SVGID_2_);}
	.st12{fill:#9C7862;stroke:#54544C;stroke-width:2;stroke-miterlimit:10;}
	.st13{fill:#477162;}
	.st14{fill:#A19B85;}
	.st15{fill:#989A83;}
	.st16{fill:#95BBA7;}
	.st17{fill:#54544C;stroke:#54544C;stroke-miterlimit:10;}
	.st18{clip-path:url(#SVGID_4_);}
	.st19{clip-path:url(#SVGID_6_);fill:#F8D8D9;}
	.st20{clip-path:url(#SVGID_8_);}
	.st21{clip-path:url(#SVGID_10_);fill:#717D6B;}
	.st22{clip-path:url(#SVGID_12_);}
	.st23{clip-path:url(#SVGID_14_);fill:#5B5047;}
	.st24{clip-path:url(#SVGID_16_);}
	.st25{clip-path:url(#SVGID_18_);fill:#5B5047;}
	.st26{clip-path:url(#SVGID_20_);}
	.st27{clip-path:url(#SVGID_22_);fill:#5B5047;}
	.st28{clip-path:url(#SVGID_24_);}
	.st29{clip-path:url(#SVGID_26_);fill:#7B8774;}
	.st30{clip-path:url(#SVGID_28_);}
	.st31{clip-path:url(#SVGID_30_);fill:#7B8774;}
	.st32{fill:none;stroke:#BBC1AE;stroke-width:2;stroke-linecap:round;stroke-miterlimit:10;}
	.st33{clip-path:url(#SVGID_32_);}
	.st34{clip-path:url(#SVGID_34_);fill:#7B8774;}
	.st35{clip-path:url(#SVGID_36_);}
	.st36{clip-path:url(#SVGID_38_);fill:#BFC6AE;}
	.st37{fill:#5B5047;}
	.st38{fill:#7B8774;stroke:#5B5047;stroke-miterlimit:10;}
	.st39{clip-path:url(#SVGID_42_);}
	.st40{clip-path:url(#SVGID_44_);fill:#F8D8D9;}
	.st41{clip-path:url(#SVGID_46_);}
	.st42{clip-path:url(#SVGID_48_);fill:#F8D8D9;}
	.st43{clip-path:url(#SVGID_50_);}
	.st44{clip-path:url(#SVGID_52_);fill:#5B5047;}
	.st45{clip-path:url(#SVGID_54_);}
	.st46{clip-path:url(#SVGID_56_);fill:#5B5047;}
	.st47{clip-path:url(#SVGID_58_);}
	.st48{clip-path:url(#SVGID_60_);fill:#5B5047;}
	.st49{clip-path:url(#SVGID_62_);}
	.st50{clip-path:url(#SVGID_64_);fill:#5B5047;}
	.st51{clip-path:url(#SVGID_66_);}
	.st52{clip-path:url(#SVGID_68_);fill:#5B5047;}
	.st53{fill:#F8D8D9;stroke:#5B5047;stroke-width:0.5;stroke-miterlimit:10;}
	.st54{clip-path:url(#SVGID_70_);}
	.st55{clip-path:url(#SVGID_72_);fill:#F8D8D9;}
	.st56{clip-path:url(#SVGID_74_);}
	.st57{clip-path:url(#SVGID_76_);fill:#7B8774;}
	.st58{clip-path:url(#SVGID_78_);}
	.st59{clip-path:url(#SVGID_80_);fill:#7B8774;}
	.st60{clip-path:url(#SVGID_82_);}
	.st61{clip-path:url(#SVGID_84_);fill:#7B8774;}
	.st62{fill:none;stroke:#BFC6AE;stroke-linecap:round;stroke-miterlimit:10;}
	.st63{clip-path:url(#SVGID_86_);}
	.st64{clip-path:url(#SVGID_88_);fill:#5B5047;}
	.st65{fill:none;stroke:#4D6658;stroke-width:15;stroke-miterlimit:10;}
	.st66{fill:none;stroke:#86A798;stroke-width:15;stroke-miterlimit:10;}
	.st67{fill:none;stroke:#4D6658;stroke-width:6;stroke-linecap:round;stroke-miterlimit:10;}
	.st68{fill:none;stroke:#86A798;stroke-width:6;stroke-linecap:round;stroke-miterlimit:10;}
</style>
<g id="Layer_4">
	<path class="st0" d="M452.13,26.17c-3.5,17.5-80,130-80,130l148,88c0,0,29-64,37-77s45-67,45-67s-39-36-64-47
		S469.63,22.67,452.13,26.17z"/>
	<path class="st1" d="M496.13,42.17c0,0,42,14,42,18s-33,62-33,62s2,6,5,0c3-6,33.5-59.5,33.5-59.5s2-1,1,2c-1,3-64,109-64,109
		s0,6,3,2s63-106,63-106s5-5,2,2s-74,126-74,127s-22-13-25-15s-44-18-45-18s19-34,19-34s3-2,1,3s-12,25-12,25s5,9,15,3
		S493.63,42.67,496.13,42.17z"/>
	<path class="st0" d="M272.33,173.46c41.67-25.02,106.65-25.76,168.57,2.57c74.82,34.23,120.46,99.59,112.85,155.36
		C553.63,331.67,272.63,172.67,272.33,173.46z"/>
</g>
<g id="hand">
	<g id="menokle">
		<g>
			<path class="st0" d="M239.41,246.21c-1.08,5.71-2.6,11.39-5.25,16.59c-1.49,2.92-4.18,8.09-7.92,8.43
				c-9.34,0.85-6.45-23.48-5.65-28.07c0.96-5.47,2.49-10.96,4.94-15.96c1.48-3.02,4.04-8.19,7.72-9
				C243.01,216.07,240.1,242,239.41,246.21c-0.31,1.89,2.58,2.7,2.89,0.8c1.24-7.53,1.93-15.6-0.1-23.07c-0.99-3.63-3-8.24-7.24-8.8
				c-3.86-0.51-7.01,2.73-9.08,5.57c-4.53,6.21-6.87,14.19-8.19,21.66c-1.32,7.48-1.92,15.65,0.1,23.07
				c0.95,3.49,2.85,7.95,6.84,8.75c4.01,0.8,7.34-2.59,9.48-5.52c4.57-6.25,6.77-14.17,8.19-21.66
				C242.66,245.12,239.77,244.31,239.41,246.21z"/>
		</g>
	</g>
	<g id="dubbele_laag">
		<g>
			<path class="st0" d="M235.63,218.09c4.23,1.11,5.84,6.84,6.65,10.55c1.4,6.34,1.05,13.01-0.21,19.34
				c-1.17,5.9-5.34,24.09-14.04,23.26c-1.92-0.18-1.91,2.82,0,3c11.15,1.06,15.97-19.74,17.27-27.23c1.46-8.4,2.54-28.82-8.88-31.81
				C234.56,214.71,233.76,217.61,235.63,218.09L235.63,218.09z"/>
		</g>
	</g>
	<g id="arm">
		<g id="hand_1_">
			<path class="st0" d="M211.53,293.15c1.5-1.5,3.5-11.5,1.5-16.5c5.5,3.5,21,3,23,3s9-1,15.5-7.5c6.5-6.5-27.05-6.02-36-9
				c-7.5-2.5-14.5-1.5-17,5c-2.54,6.6-5.5,19.5-9,22s-13.5,3.5-26,8s-10.5,10.5-10,12c-9.5,3.5-10.5,12.5-10.5,12.5s-19-3-9.5,30.5
				c2.19,13.75,1.52,25.09,2.5,33.5c1.48,12.69,4.59,19.78,10,27c-6-6-11-17-28.5-14.5c-16,4-19.5,19.5-19.5,19.5s-16-6-18.5,2.5
				c-1.26,4.29,46,2,46,2h51c0,0,22-31,27-31s27-45,27-77s9.5-31.5,9-34c-8.5-1.5-12.5-2.5-17.5-0.5s-9,16-8,20
				C212.03,298.65,210.03,294.65,211.53,293.15z"/>
			<path class="st0" d="M205.53,293.15c1.5-1.5,3.5-11.5,1.5-16.5c5.5,3.5,21,3,23,3s9-1,15.5-7.5s-27.05-6.02-36-9
				c-7.5-2.5-14.5-1.5-17,5c-2.54,6.6-5.5,19.5-9,22s-13.5,3.5-26,8s-10.5,10.5-10,12c-9.5,3.5-10.5,12.5-10.5,12.5s-19-3-9.5,30.5
				c2.19,13.75,1.52,25.09,2.5,33.5c1.48,12.69,4.59,19.78,10,27c-6-6-11-17-28.5-14.5c-16,4-19.5,19.5-19.5,19.5s-16-6-18.5,2.5
				c-1.26,4.29,46,2,46,2h51c0,0,22-31,27-31s27-45,27-77s9.5-31.5,9-34c-8.5-1.5-12.5-2.5-17.5-0.5s-9,16-8,20
				C206.03,298.65,204.03,294.65,205.53,293.15z"/>
			<g>
				<path class="st2" d="M208.53,293.15c1.5-1.5,3.5-11.5,1.5-16.5c5.5,3.5,21,3,23,3s9-1,15.5-7.5s-27.05-6.02-36-9
					c-7.5-2.5-14.5-1.5-17,5c-2.54,6.6-5.5,19.5-9,22s-13.5,3.5-26,8s-10.5,10.5-10,12c-9.5,3.5-10.5,12.5-10.5,12.5s-19-3-9.5,30.5
					c2.19,13.75,1.52,25.09,2.5,33.5c1.48,12.69,4.59,19.78,10,27c-6-6-11-17-28.5-14.5c-16,4-19.5,19.5-19.5,19.5s-16-6-18.5,2.5
					c-1.26,4.29,46,2,46,2h51c0,0,22-31,27-31s27-45,27-77s9.5-31.5,9-34c-8.5-1.5-12.5-2.5-17.5-0.5s-9,16-8,20
					C209.03,298.65,207.03,294.65,208.53,293.15z"/>
				<path class="st3" d="M208.53,293.15c1.5-1.5,3.5-11.5,1.5-16.5c5.5,3.5,21,3,23,3s9-1,15.5-7.5s-27.05-6.02-36-9
					c-7.5-2.5-14.5-1.5-17,5c-2.54,6.6-5.5,19.5-9,22s-13.5,3.5-26,8s-10.5,10.5-10,12c-9.5,3.5-10.5,12.5-10.5,12.5s-19-3-9.5,30.5
					c2.19,13.75,1.52,25.09,2.5,33.5c1.48,12.69,4.59,19.78,10,27c-6-6-11-17-28.5-14.5c-16,4-19.5,19.5-19.5,19.5s-16-6-18.5,2.5
					c-1.26,4.29,46,2,46,2h51c0,0,22-31,27-31s27-45,27-77s9.5-31.5,9-34c-8.5-1.5-12.5-2.5-17.5-0.5s-9,16-8,20
					C209.03,298.65,207.03,294.65,208.53,293.15z"/>
			</g>
			<path class="st4" d="M140.03,322.65c11.5,0.5,24.42-8.07,30-9c6-1,12,8,10.5,16.5s0.5,13.5,3,17s2,10-7,6s-10.5-16.5-9.5-21.5
				c-5,5-10,1-10,1s-1,9-10,7"/>
			<path class="st4" d="M140.03,323.65c11.5,0.5,24.42-8.07,30-9c6-1,12,8,10.5,16.5s0.5,13.5,3,17s2,10-7,6s-10.5-16.5-9.5-21.5
				c-5,5-10,1-10,1s-1,9-10,7"/>
			<path class="st0" d="M166.53,334.15c0,0-2.5,11.5,6.5,22.5c4.11,5.03,8.06,14.94,7,23c-1.25,9.57-7,15-8,17c2-1,12-11,12-21
				c0-17-6-21-7-23C177.53,352.15,169.53,359.15,166.53,334.15z"/>
			<path class="st4" d="M151.03,309.65c16-2,26.5-6.5,30.5-8.5s8-3,10,2s3.5,9.5,5,12s1,8-2,9s-5,13-5,13s-1.5,6.5-8.5,6.5"/>
			<path class="st4" d="M151.03,310.65c16-2,26.5-6.5,30.5-8.5s8-3,10,2s3.5,9.5,5,12s1,8-2,9s-5,13-5,13s-0.5,5.5-7.5,5.5"/>
			<g>
				<g>
					<path class="st0" d="M186.23,291.37c2.5-0.8,5.19-1.33,7.81-1.4c2.01-0.05,4.37,0.03,6.09,1.23c2.73,1.9,2.43,5.93,3.32,8.79
						c0.57,1.84,1.52,3.46,2.16,5.25c1.39,3.94,0.06,5.62-1.68,8.8c-1.74,3.2-2.72,6.9-3.61,10.4c-0.24,0.94,1.21,1.34,1.45,0.4
						c0.57-2.23,1.22-4.46,2.01-6.62c1.05-2.87,3.59-5.47,4.24-8.39c0.43-1.94-0.34-3.63-1.11-5.35c-1.57-3.52-2.23-6.81-3.24-10.5
						c-2.05-7.48-12.16-5.87-17.83-4.06C184.91,290.22,185.3,291.67,186.23,291.37L186.23,291.37z"/>
				</g>
			</g>
		</g>
		<path id="mouw2" class="st2" d="M102.53,592.15c0,0,44-137,74-169c-20-5-31,4-47-2s-32,4-41,3s-15,0-32-7c13,18-2,102-17,114
			s-5,109-5,109s4,55,3,20S91.53,582.15,102.53,592.15z"/>
		<path id="mouw" class="st5" d="M103.53,602.15c0,0,20-68,40-119c-16.17-3.39-21.34-0.76-46.5,1.5c-19.75,1.77-28,4-40.13,0.8
			c-4.22,21.32-10.8,40.43-17.37,45.7c-15,12-25,99-26,111s-9.97,160.49,24,152C61.53,788.15,103.53,602.15,103.53,602.15z"/>
		<path id="buiten_lijn" class="st3" d="M103.53,602.15c0,0,43-147,73-179c-20-5-31,4-47-2s-32,4-41,3s-15,0-32-7
			c13,18-2,102-17,114s-26,111-26,111s-14,152,24,152C48.53,794.15,74.53,729.15,103.53,602.15z"/>
	</g>
</g>
<g id="jas">
	<g>
		<path class="st6" d="M326.13,210.17l-62,57c0,0-7,9,0,11s21,5,22,7s4.45,5.87,4,9c-0.5,3.5,0,5,2,5s-5.5,4.5-5.5,6.5s0,13,0,13
			s-14,8-13,12s5,24,23,26s43,5,43,5l122-36c0,0,25.46,3.29,30.23-25.13c0.27-1.59-25.75-51.62-68.23-76.87
			c-36.08-21.45-89.66-18.83-89.66-18.83L326.13,210.17z"/>
		<g>
			<path class="st0" d="M325.07,209.11c-13.81,12.7-27.62,25.39-41.43,38.09c-6.48,5.96-13.15,11.77-19.47,17.9
				c-1.62,1.57-2.82,3.27-3.71,5.42c-2.51,6.12,0.93,8.5,6.48,9.96c3.75,0.99,7.53,1.89,11.25,2.97c4.37,1.26,6.53,1.92,8.83,5.96
				c1.58,2.77,1.19,4.44,1.44,7.28c0.08,0.92,0.22,1.93,0.83,2.67c0.51,0.62,1.1,0.99,1.88,1.19c0.07,0.01,0.13,0.02,0.2,0.03
				c-0.02-1.6-0.35-1.95-1.01-1.06c-0.5,0.05-1.65,1.39-1.99,1.7c-4.28,3.83-3.23,7.79-3.23,13.26c0,1.23-0.14,2.55,0,3.77
				c-0.04-0.37,1.45-0.67-0.21-0.31c-2.28,0.5-5.32,3.44-7.12,4.85c-3.2,2.52-6.29,5.09-5.34,9.4c1.09,4.97,3.01,9.97,5.78,14.24
				c9.25,14.24,27.44,12.74,42.47,14.5c5.92,0.69,12.5,2.37,18.48,2.19c1.16-0.04,2.14-0.38,3.28-0.71
				c7.24-2.14,14.47-4.27,21.71-6.41c23.51-6.94,47.03-13.88,70.54-20.82c7.86-2.32,15.73-4.64,23.59-6.96
				c0.91-0.27,1.83-0.6,2.76-0.82c0.22-0.05,1.46-0.31,0.59-0.23c2.3-0.21,4.61,0.11,6.95-0.23c11.51-1.65,20.04-9.52,23.44-20.56
				c1.27-4.12,1.63-5.98-0.12-9.56c-1.9-3.88-4.14-7.62-6.42-11.29c-17.47-28.11-41.91-55.72-72.8-69.07
				c-15.95-6.89-33.25-10.36-50.48-12.07c-6.36-0.63-12.74-1.01-19.13-1.12c-2.74-0.05-6.35-0.61-9.04,0.07
				c-3.06,0.77-6.06,3.76-8.68,5.54c-1.59,1.08-0.09,3.68,1.51,2.59c2.41-1.64,4.84-3.82,7.46-5.07c0.76-0.36-0.98,0.12,0.14-0.08
				c0.75-0.13,1.6-0.05,2.35-0.06c7.29-0.12,14.6,0.19,21.87,0.81c24.44,2.06,49.21,7.72,69.85,21.49
				c19.93,13.31,36.44,31.72,49.81,51.48c3.85,5.69,7.56,11.54,10.65,17.67c0.96,1.9,1.36,2.51,0.98,4.57
				c-0.95,5.16-3.31,10.36-6.9,14.21c-4.67,5.01-11.38,7.57-18.15,7.78c-1.89,0.06-3.31-0.1-5.1,0.36
				c-10.25,2.64-20.37,6.01-30.53,9.01c-28.33,8.36-56.67,16.72-85,25.08c-1.33,0.39-2.67,0.87-4.02,1.19
				c-1.2,0.28-0.64,0.2-1.29,0.19c-9.76-0.13-19.92-2.36-29.61-3.48c-6.19-0.71-13.3-0.57-19.05-3.17
				c-4.6-2.08-8.08-5.89-10.54-10.21c-1.84-3.22-3.11-6.72-4.06-10.29c-0.29-1.08-0.77-2.24-0.45-3.31
				c0.57-1.91,3.34-3.74,4.81-4.88c2.3-1.76,4.77-3.35,7.28-4.8c0.46-0.26,0.74-0.77,0.74-1.3c0-3.68-0.98-8.75,0-12.26
				c0.79-2.82,6.33-4.44,5.74-7.58c-0.09-0.49-0.58-0.94-1.05-1.05c-2.29-0.52-1.05-5.06-1.79-7.09c-0.82-2.22-2.43-5.44-4.23-7.01
				c-3.87-3.38-11.23-4.07-16.01-5.3c-3.22-0.83-9.38-1.36-7.83-6.06c0.4-1.21,2.06-3.87,2.28-4.13c1.1-1.23,2.49-2.29,3.7-3.4
				c14.77-13.58,29.54-27.15,44.3-40.73c4.65-4.27,9.3-8.55,13.95-12.82C328.61,209.92,326.49,207.8,325.07,209.11z"/>
		</g>
	</g>
	<path class="st7" d="M291.63,292.67c0,0,4-2,7,2s6,6,7,6s-13,5-15,3s2-4,2-4S289.63,292.67,291.63,292.67z"/>
	<path class="st8" d="M414.7,229.74c3.7,3.49,5.93,8,5.93,12.93c0,11.05-11.19,20-25,20c-0.7,0-1.39-0.03-2.07-0.07
		c4.59,4.33,11.42,7.07,19.07,7.07c13.81,0,25-8.95,25-20C437.63,239.18,427.54,230.59,414.7,229.74z"/>
	<path class="st8" d="M382.93,300.78c-10.94,3.82-22.34-0.37-25.48-9.35c-1.78-5.1-0.5-10.65,2.93-15.19
		c-5.71,5.02-8.31,12.36-5.98,19.02c3.23,9.25,14.71,13.66,25.65,9.84c5.89-2.06,10.39-6.08,12.82-10.79
		C390.33,297.08,386.95,299.37,382.93,300.78z"/>
	<path class="st8" d="M331.13,308.17c0,0-6.5-2.5-4-11s11.5-11.5,15-12s12.5-0.5,12.5-0.5s-15,4-19,8
		C326.63,302.67,331.13,308.17,331.13,308.17z"/>
	<path class="st8" d="M322.13,322.17c-2.5,2.5-15.5,0.5-12.5-12.5s14.5-11.5,18.5-9.5c-5,0-9.03,3.19-11.43,5.4
		c-2.37,2.18-3.71,5.33-3.38,8.54C313.63,317.17,316.38,321.42,322.13,322.17z"/>
	<path class="st8" d="M305.63,353.67c-1.5-0.5-16-14,4-24c-6-1-11-5-1-14c-13,0-10,15-7,16c-3,1-9.5,13.5-4,20
		S304.63,354.67,305.63,353.67z"/>
	<path class="st0" d="M302.63,353.67c-1.5-0.5-16-14,4-24c-6-1-11-5-1-14c-13,0-10,15-7,16c-3,1-9.5,13.5-4,20
		S301.63,354.67,302.63,353.67z"/>
	<path class="st0" d="M319.13,322.17c-2.5,2.5-15.5,0.5-12.5-12.5s14.5-11.5,18.5-9.5c-5,0-9.03,3.19-11.43,5.4
		c-2.37,2.18-3.71,5.33-3.38,8.54C310.63,317.17,313.38,321.42,319.13,322.17z"/>
	<path class="st0" d="M330.13,307.17c0,0-6.5-2.5-4-11s11.5-11.5,15-12s12.5-0.5,12.5-0.5s-15,4-19,8
		C325.63,301.67,330.13,307.17,330.13,307.17z"/>
	<path class="st8" d="M387.13,302.17"/>
	<path class="st0" d="M375.38,304.67c-11.18,0-20.25-7.39-20.25-16.5c0-5.18,2.93-9.79,7.51-12.82c-6.8,2.74-11.51,8.56-11.51,15.32
		c0,9.39,9.07,17,20.25,17c6.02,0,11.41-2.22,15.12-5.72C383.3,303.67,379.49,304.67,375.38,304.67z"/>
	<path class="st8" d="M384.69,277.73c-8.81,2.32-17.69-2.41-19.83-10.56c-2.14-8.15-9.3-7.86-6.71,2.02
		c2.6,9.88,12.71,15.79,22.59,13.19c4.98-1.31,8.95-4.53,11.33-8.67C390.07,275.55,387.56,276.97,384.69,277.73z"/>
	<path class="st0" d="M381.13,281.17c-9.11,0-16.5-6.83-16.5-15.25c0-8.42,7.39-15.25,16.5-15.25c2.52,0,4.9,0.54,7.04,1.47
		c-3.24-2.78-7.44-4.47-12.04-4.47c-10.22,0-18.5,8.28-18.5,18.5c0,10.22,8.28,18.5,18.5,18.5c5.15,0,9.81-2.11,13.16-5.51
		C386.88,280.43,384.1,281.17,381.13,281.17z"/>
	<path class="st0" d="M388.13,246.17c0-8.28,6.72-15,15-15c1.61,0,3.16,0.26,4.61,0.73c-2.44-1.71-5.4-2.73-8.61-2.73
		c-8.28,0-15,6.72-15,15c0,6.67,4.36,12.32,10.39,14.27C390.66,255.73,388.13,251.25,388.13,246.17z"/>
	<path class="st0" d="M428.1,233.49c4.65,3.62,7.52,8.64,7.52,14.18c0,11.05-11.42,20-25.5,20c-5.6,0-10.77-1.42-14.98-3.82
		c4.61,3.59,10.96,5.82,17.98,5.82c14.08,0,25.5-8.95,25.5-20C438.63,243.01,434.48,237.12,428.1,233.49z"/>
	<g>
		<g>
			<path class="st0" d="M415.93,258.89c5,1,10,2,15,3c0.94,0.19,1.35-1.26,0.4-1.45c-5-1-10-2-15-3
				C415.39,257.26,414.98,258.7,415.93,258.89L415.93,258.89z"/>
		</g>
	</g>
	<g>
		<g>
			<path class="st0" d="M423.63,256.42c4,0.33,8,0.67,12,1c0.96,0.08,0.96-1.42,0-1.5c-4-0.33-8-0.67-12-1
				C422.67,254.84,422.67,256.34,423.63,256.42L423.63,256.42z"/>
		</g>
	</g>
	<g>
		<g>
			<path class="st0" d="M425.63,253.42c4,0.33,8,0.67,12,1c0.96,0.08,0.96-1.42,0-1.5c-4-0.33-8-0.67-12-1
				C424.67,251.84,424.67,253.34,425.63,253.42L425.63,253.42z"/>
		</g>
	</g>
	<path class="st0" d="M457.58,262.9c4.37,4.01,7.05,9.38,7.05,15.27c0,12.43-11.86,22.5-26.5,22.5c-5.77,0-11.1-1.57-15.45-4.23
		c4.84,4.44,11.76,7.23,19.45,7.23c14.64,0,26.5-10.07,26.5-22.5C468.63,273.64,464.27,266.98,457.58,262.9z"/>
	<path class="st9" d="M452.13,262.17l-6,16l6,1l-1,2l-6-1l-1,4l4,1l-1,2h-6v2l6,1v2l-11,3l-6,5l17,1l10-5c0,0,8-2,8,3s-1,10-6,12
		c-4.64,1.86-7,3-7,3l14,10c0,0,8.37,1.63,17-7c6-6,9-18,9-18l-19-27l-9.5-11.5L452.13,262.17z"/>
	<rect x="468.13" y="313.17" class="st0" width="15" height="1"/>
	<polygon class="st0" points="486.25,309.58 467.13,311.17 469.08,307.79 486.03,306.55 	"/>
	
		<rect x="475.13" y="302.17" transform="matrix(0.9923 -0.1237 0.1237 0.9923 -33.7414 61.9028)" class="st0" width="13" height="1"/>
	
		<rect x="478.13" y="298.17" transform="matrix(0.9923 -0.1237 0.1237 0.9923 -33.2351 62.0576)" class="st0" width="10" height="1"/>
	<path class="st0" d="M306.63,266.67c1,1-5.5,9.5-8.5,9.5c-2.5,0-6.39-0.69-7.62-0.93c-0.24-0.05-0.47-0.12-0.7-0.22
		c-1-0.46-4.19-1.85-6.69-1.85c-3,0-5,1-5,1s-1,1-1,0s2.01-1.86,4-2c2.19-0.16,5.14-0.91,8.5-0.5c3.62,0.44,7,2,8,2c2,0,4-3,4-3
		S305.63,265.67,306.63,266.67z"/>
	<g>
		<g>
			<path class="st0" d="M339.13,212.67c16.97,0.97,28.89,12.56,32.55,28.9c0.42,1.88,3.32,1.09,2.89-0.8
				c-3.96-17.67-17.15-30.05-35.45-31.1C337.2,209.56,337.21,212.56,339.13,212.67L339.13,212.67z"/>
		</g>
	</g>
	<path class="st10" d="M351.63,246.67c0,0-19,8-23,7s-5-3,0-3S351.63,246.67,351.63,246.67z"/>
	<path class="st10" d="M349.13,251.17c0,0-17,8-22,8s-6-1-3-2S349.13,251.17,349.13,251.17z"/>
	<path class="st10" d="M349.13,255.17c0,0,2,3,0,4s-23,9-24,9s-2-6,0-6S349.13,255.17,349.13,255.17z"/>
	<g>
		<defs>
			<rect id="SVGID_1_" x="562.13" y="681.17" width="170.5" height="180.5"/>
		</defs>
		<clipPath id="SVGID_2_">
			<use xlink:href="#SVGID_1_"  style="overflow:visible;"/>
		</clipPath>
		<g class="st11">
			<path class="st5" d="M687.13,708.17c0,0,31,53,48,62s-2,72-2,72l-164-11C569.13,831.17,688.13,760.17,687.13,708.17z"/>
			<g>
				<path class="st0" d="M685.83,708.93c10.47,17.88,21.94,35.89,35.77,51.36c3.32,3.71,6.89,7.43,11.08,10.18
					c4.05,2.65,6.04,5.18,7.11,10.05c2.57,11.64,0.15,24.68-2.06,36.18c-1.62,8.44-3.59,16.85-6.06,25.08
					c0.48-0.37,0.96-0.73,1.45-1.1c-47.97-3.22-95.94-6.44-143.91-9.65c-6.7-0.45-13.39-0.9-20.09-1.35c0.25,0.93,0.5,1.86,0.76,2.8
					c14.38-8.59,28.23-18.21,41.66-28.2c23.08-17.17,46.34-36.2,63.1-59.83c7.49-10.57,14.09-22.98,13.99-36.26
					c-0.02-1.93-3.02-1.93-3,0c0.1,11.78-5.47,22.77-11.9,32.33c-8.03,11.93-18.11,22.45-28.6,32.22
					c-19.23,17.92-40.52,33.67-62.47,48.1c-4.71,3.1-9.45,6.17-14.29,9.06c-1.33,0.8-0.69,2.7,0.76,2.8
					c47.97,3.22,95.94,6.44,143.91,9.65c6.7,0.45,13.39,0.9,20.09,1.35c0.66,0.04,1.27-0.5,1.45-1.1c5.46-18.17,10.74-38.93,8.85-58
					c-0.43-4.3-1.28-8.94-3.92-12.48c-2.5-3.34-6.79-5.05-9.87-7.86c-10.15-9.27-18.15-21.08-25.79-32.41
					c-5.37-7.98-10.57-16.1-15.43-24.4C687.45,705.75,684.86,707.26,685.83,708.93z"/>
			</g>
		</g>
	</g>
	<polygon class="st12" points="9.13,705.17 135.13,723.44 128.29,847.14 11.08,854.17 	"/>
	<g>
		<path class="st5" d="M128.13,849.17c0,0-121-74-119-134s14-94,58-107s104-28,137-88c29.42-53.5,191-64,238-54s67,72,100,101
			c19.95,17.53,81.18,33.5,108.39,41.92c12.09,3.74,22.62,11.33,29.94,21.65c11.24,15.86,21.51,46.12,11.67,81.43
			c-17,61-106,133-135,131S128.13,849.17,128.13,849.17z"/>
		<g>
			<path class="st0" d="M128.89,847.87c-15.16-9.28-29.67-19.82-43.63-30.81c-24.37-19.18-49.35-41.1-64.81-68.39
				c-3.45-6.09-6.36-12.53-8.12-19.32c-1.92-7.36-1.75-14.52-1.36-22.07c0.96-18.83,2.88-38.26,9.83-55.96
				c5.71-14.55,15.48-26.79,29.2-34.48c14.24-7.98,31.11-10.99,46.55-15.95c35.22-11.32,69.28-27.84,93.25-56.91
				c9.87-11.97,15.68-27.03,27.58-37.23c10.41-8.92,23.18-15.01,35.9-19.85c30.58-11.64,63.59-17.14,96.05-20.24
				c27.7-2.65,56.43-4.12,84.12-0.46c15.47,2.05,28.87,8.27,40.51,18.74c13.71,12.33,24.12,27.84,34.53,42.91
				c9.74,14.11,19.52,29.06,32.6,40.36c12.02,10.39,28.23,16.17,42.94,21.52c17.9,6.52,36.2,11.88,54.46,17.28
				c8.8,2.6,17.67,4.93,25.48,9.95c9.09,5.85,15.91,14.21,20.76,23.79c10.72,21.18,12.4,46.31,6.48,69.12
				c-4.54,17.51-13.94,33.51-24.54,48.01c-21.25,29.06-49.31,55.77-80.66,73.69c-8.77,5.02-18.92,10.45-29.32,10.05
				c-4.12-0.16-8.24-0.23-12.37-0.26c-42.46-0.3-84.94,0.57-127.39,1.19c-57.46,0.84-114.92,1.84-172.37,2.89
				c-36.98,0.68-73.96,1.37-110.94,2.1c-1.82,0.04-3.65,0.07-5.47,0.11c-1.93,0.04-1.93,3.04,0,3c27.85-0.56,55.7-1.09,83.55-1.61
				c57.39-1.07,114.78-2.09,172.17-2.99c49.04-0.77,98.09-1.63,147.14-1.72c6.27-0.01,12.54-0.01,18.8,0.09
				c4.92,0.08,9.79,0.58,14.64-0.45c12.76-2.72,24.73-10.29,35.37-17.52c15.1-10.27,29.1-22.23,41.98-35.16
				c26.69-26.8,52.33-60.29,55.47-99.29c1.62-20.2-2.55-41.6-13.4-58.89c-5.4-8.61-12.83-15.81-21.74-20.73
				c-7.46-4.11-15.8-6.18-23.92-8.58c-18.78-5.55-37.59-11.08-55.95-17.91c-16.23-6.03-32.6-12.71-44.83-25.34
				c-25.36-26.2-39.39-62.78-69.62-84.41c-21.99-15.74-51.05-15.21-76.97-14.82c-33.16,0.51-66.55,4-98.94,11.19
				c-27.23,6.05-58.18,14.6-79.03,34.27c-3.94,3.72-7.3,7.92-10.01,12.61c-5.75,9.98-12.13,19.41-19.92,27.93
				c-13.67,14.95-30.42,26.6-48.55,35.5c-16.33,8.02-33.62,13.79-51.02,18.99c-15.22,4.55-30.74,8.21-43.52,18.17
				c-27.69,21.58-31,61.15-32.14,93.56c-1.03,29.45,20.9,55.14,40.44,74.78c20.1,20.21,42.87,37.85,66.46,53.79
				c4.21,2.85,8.45,5.67,12.79,8.32C129.02,851.48,130.53,848.88,128.89,847.87z"/>
		</g>
	</g>
	<g>
		<path class="st2" d="M198.13,804.17c0,0,92-39,169-58s161.52-128.13,112-233c-17-36-33-43-33-43l-2-115l18-25c0,0-19-18-58-18
			s-79,14-79,14s-15,37-22,38s-33-13-33-13s22,13,24,20s4,120,4,120s-59,16-91,73S136.13,706.17,198.13,804.17z"/>
		<g>
			<path class="st0" d="M198.89,805.46c42.44-17.98,87.82-34.48,132.55-47.91c14.89-4.47,30.27-7.61,45-12.52
				c12.05-4.01,23.48-9.83,34.08-16.78c23.46-15.39,43.32-36.31,58.07-60.13c15.43-24.9,25.26-53.46,26.65-82.82
				c1.54-32.54-7.86-65.14-25.57-92.42c-5.2-8.01-11.29-15.98-19.07-21.66c-1.04-0.76-2.38-1.97-3.66-2.31
				c1.31,0.35,0.11,1.73,0.68,0.72c0.2-0.37-0.03-1.47-0.03-1.89c-0.27-15.54-0.54-31.07-0.81-46.61
				c-0.32-18.43-0.64-36.86-0.96-55.3c-0.06-3.18-0.92-7.51-0.19-10.64c-0.35,1.5,0.65-0.45,1.03-0.97c1.2-1.67,2.4-3.34,3.6-5.01
				c2.86-3.97,5.72-7.94,8.58-11.91c1.53-2.12,3.06-4.24,4.58-6.37c0.37-0.52,0.22-1.4-0.23-1.82
				c-7.32-6.86-17.66-11.13-27.09-13.96c-23.6-7.1-49.03-4.77-72.9-0.3c-10.07,1.89-20.06,4.28-29.89,7.18
				c-2.85,0.84-7.76,1.35-9.64,3.78c-0.81,1.05-1.2,2.88-1.71,4.08c-1.24,2.89-2.52,5.77-3.85,8.62
				c-3.15,6.79-6.41,13.85-10.83,19.93c-1.91,2.63-3.33,4.63-6.72,4.11c-4.21-0.65-8.43-2.57-12.31-4.24
				c-5.9-2.54-11.7-5.39-17.36-8.43c-1.7-0.91-3.18,1.6-1.51,2.59c4.01,2.38,7.92,4.96,11.69,7.69c4,2.9,10.47,6.93,11.76,12.08
				c1.77,7.05,1.08,15.51,1.36,22.71c0.99,25.5,1.54,51.02,2.07,76.53c0.14,6.56,0.27,13.13,0.38,19.69
				c0.37-0.48,0.73-0.96,1.1-1.45c-10.71,2.93-21.11,8.02-30.72,13.46c-21.63,12.24-40.69,29.09-54.66,49.7
				c-13.89,20.49-24.98,44.09-33.65,67.22c-9.62,25.68-15.42,52.94-14.89,80.46c0.71,37.36,13.3,72.89,33.03,104.36
				c1.02,1.63,3.62,0.13,2.59-1.51c-17.82-28.42-29.96-60.22-32.24-93.86c-1.84-27.11,2.64-54.17,11.27-79.84
				c7.6-22.6,18.24-44.07,29.97-64.78c12.97-22.91,31.87-41.85,54.21-55.67c11.07-6.85,23.26-13.19,35.89-16.64
				c0.63-0.17,1.11-0.79,1.1-1.45c-0.33-18.44-0.73-36.88-1.2-55.32c-0.35-13.64-0.72-27.27-1.25-40.9
				c-0.29-7.54,0.17-15.87-1.43-23.29c-1.11-5.13-6.32-8.86-10.22-11.88c-4.66-3.6-9.58-6.9-14.64-9.9
				c-0.5,0.86-1.01,1.73-1.51,2.59c4.7,2.53,9.51,4.89,14.37,7.1c5.36,2.43,12.78,6.66,18.89,6.15c4.58-0.38,7.52-5.97,9.63-9.44
				c3.99-6.54,7.26-13.55,10.38-20.54c1.03-2.3,2.02-4.6,3-6.92c0.27-0.63,0.66-1.31,0.83-1.98c0.07-0.28-1.47,0.6-0.48,0.62
				c1.64,0.03,4.02-1.31,5.61-1.79c4.05-1.23,8.12-2.37,12.21-3.43c25-6.45,52.24-11.29,78.01-7.26
				c13.37,2.09,29.07,6.7,39.25,16.24c-0.08-0.61-0.16-1.21-0.23-1.82c-2.71,3.77-5.43,7.54-8.14,11.3
				c-2.97,4.13-7.5,8.63-9.57,13.29c-0.6,1.34-0.47,2.41-0.45,3.93c0.07,3.81,0.13,7.63,0.2,11.44c0.45,26.11,0.91,52.23,1.36,78.34
				c0.13,7.48,0.26,14.97,0.39,22.45c0.01,0.49,0.27,1.08,0.74,1.3c7.3,3.27,13.3,11.1,17.84,17.3
				c12.82,17.5,21.8,38.41,26.18,59.62c8.18,39.63-1.07,80.71-21.54,115.18c-18.47,31.11-46.11,58.21-79.18,73.41
				c-17.38,7.99-36.6,11.33-54.86,16.74c-20.61,6.11-41.01,12.92-61.26,20.14c-25.28,9.02-50.45,18.54-75.17,29.02
				C195.6,803.62,197.13,806.21,198.89,805.46z"/>
		</g>
	</g>
	<g>
		<path class="st13" d="M485.63,525.67c0,0,39.5,106.5-68.5,173.5s-179,53-219,105c3,33,13,38,13,38l188-8
			C399.13,834.17,584.63,677.67,485.63,525.67z"/>
		<g>
			<path class="st0" d="M484.18,526.07c6.78,18.36,8.11,39.65,6.41,58.94c-4.14,47.05-32.25,85.95-71.42,111.1
				c-26.95,17.3-56.04,31.38-86,42.6c-22,8.24-44.57,14.68-66.84,22.08c-17.51,5.82-35.18,12.49-50.12,23.58
				c-3.32,2.46-6.5,5.12-9.49,7.98c-3.08,2.95-7.32,6.56-9.33,10.36c-2.1,3.97,0.5,12.21,1.4,16.6c1,4.85,2.32,9.67,4.33,14.21
				c1.33,3,3.68,8.35,7.04,9.82c1.23,0.54,2.59,0.27,3.93,0.21c10.28-0.44,20.56-0.87,30.83-1.31c34.66-1.48,69.33-2.95,103.99-4.43
				c13.18-0.56,26.35-1.12,39.53-1.68c3.6-0.15,9.21,0.75,12.29-1.36c5.6-3.83,10.53-9.61,15.31-14.36
				c10.1-10.06,19.7-20.62,28.78-31.62c24.88-30.15,46.33-63.88,59.33-100.91c14.81-42.19,16.74-88.18-0.07-130.11
				c-4.61-11.5-10.42-22.45-17.15-32.85c-1.04-1.62-3.64-0.11-2.59,1.51c26.12,40.42,34.73,87.83,24.33,134.81
				c-8.82,39.81-28.89,76.48-53.07,108.98c-15.73,21.15-33.46,41.06-52.95,58.83c-1.43,1.3-2.85,2.64-4.34,3.86
				c-0.74,0.61,1.51-0.23,0.49-0.23c-0.83,0.01-1.65,0.07-2.48,0.11c-9.93,0.42-19.86,0.85-29.8,1.27
				c-33.85,1.44-67.7,2.88-101.55,4.32c-13.6,0.58-27.21,1.16-40.81,1.74c-3.57,0.15-7.14,0.3-10.71,0.46
				c-0.66,0.03-1.48,0.19-2.13,0.09c0.52,0.08,0.53,0.41-0.2-0.36c-4.67-4.9-6.92-11.39-8.54-17.88c-0.75-3-1.34-6.05-1.82-9.1
				c-0.6-3.86-1.92-7.75,0.68-10.88c2.84-3.42,5.9-6.64,9.19-9.63c13.61-12.36,30.56-19.99,47.7-26.1
				c20.99-7.49,42.51-13.37,63.55-20.73c27.14-9.49,53.49-21.07,78.55-35.18c24.29-13.68,47.22-29.43,64.4-51.72
				c12.14-15.74,20.91-33.92,25.47-53.28c5.85-24.86,5.29-51.89-1.9-76.45c-0.4-1.37-0.81-2.75-1.31-4.09
				C486.41,523.47,483.51,524.25,484.18,526.07z"/>
		</g>
	</g>
	<g>
		<g>
			<path class="st0" d="M456.73,765.72c-26.35,10.3-54.46,17.48-82.37,21.86c-11.37,1.79-22.85,3-34.36,3.36
				c-12.29,0.38-24.51-0.7-36.77-1.32c-19.41-0.98-39.12-1.7-58.42,1.03c-16.57,2.34-32.1,7.97-45.44,18.22
				c-1.51,1.16-0.02,3.77,1.51,2.59c28.2-21.68,65.17-20.57,98.98-19c11.79,0.55,23.57,1.69,35.38,1.58
				c11.27-0.11,22.53-1.1,33.69-2.64c19.82-2.74,39.38-7.22,58.58-12.83c10.1-2.95,20.21-6.12,30.02-9.95
				C459.31,767.92,458.53,765.02,456.73,765.72L456.73,765.72z"/>
		</g>
	</g>
	<path class="st14" d="M446.63,348.67c0,0-22-7-26-5s12-18,6-26s35,7,34,13S446.63,348.67,446.63,348.67z"/>
	<path class="st14" d="M446.13,356.17l-33,8c0,0-3,11-12,14s9,2,9,2s-5,7-10,7s10,3,10,3s-1,9-8,11s8,3,8,3s1,13-7,14s8,0,8,0
		s1,10-6,11c-3.85,0.55-1.95,2.01,0.53,3.21c2.73,1.32,4.56,3.98,4.7,7.01l0.37,8.19c0.25,5.57-1.37,11.06-4.61,15.59l0,0
		c0,0-19,7-18,10s5,2,20-4s-5,17-5,17s-4,3,3,2s49-10,53-6s-14-13-14-13L446.13,356.17z"/>
	<path class="st14" d="M469.13,495.17c0,0-18,6-27,1s-20,1-29-6c-2-3,5-2,11-2s38-3,38-3L469.13,495.17z"/>
	<g>
		<g>
			<polygon class="st15" points="297.3,525.61 308.13,511.17 298.96,526.72 			"/>
		</g>
		<g>
			<g>
				<g>
					<path class="st15" d="M214.19,582.23c10.12-9.23,21.09-17.64,32.15-25.7c23.95-17.44,49.51-33.03,76.75-44.78
						c17.13-7.39,35-13.13,53.44-16.14c1.9-0.31,1.09-3.2-0.8-2.89c-32.23,5.25-62.69,18.75-90.8,35.01
						c-21.67,12.54-42.3,26.99-61.68,42.84c-3.79,3.1-7.57,6.23-11.19,9.53C210.64,581.41,212.77,583.53,214.19,582.23
						L214.19,582.23z"/>
				</g>
			</g>
			<g>
				<polygon class="st15" points="233.73,568.63 242.13,551.17 236.53,569.71 				"/>
			</g>
			<g>
				<polygon class="st15" points="250.77,556.53 261.13,538.17 253.48,557.81 				"/>
			</g>
			<g>
				<polygon class="st15" points="264.82,545.44 276.13,528.17 267.44,546.9 				"/>
			</g>
			<path class="st3" d="M213.13,584.17c0,0,81-74,163-87"/>
			<g>
				<polygon class="st0" points="234.2,571.81 242.13,554.17 236.06,572.53 				"/>
			</g>
			<g>
				<polygon class="st0" points="251.23,559.74 261.13,541.17 253.03,560.6 				"/>
			</g>
			<g>
				<polygon class="st0" points="265.25,548.68 276.13,531.17 267,549.65 				"/>
			</g>
		</g>
		<g>
			<polygon class="st0" points="297.3,528.61 308.13,514.17 298.96,529.72 			"/>
		</g>
	</g>
	<g>
		<g>
			<path class="st15" d="M253.69,670.73c11.62-9.09,26.23-14.58,40.14-18.98c25.16-7.95,51.52-11.97,77.79-13.96
				c20.47-1.55,41.01-1.78,61.52-1.12c1.93,0.06,1.93-2.94,0-3c-34.01-1.09-68.25,0.21-101.82,6.05c-21.04,3.66-42.16,9-61.56,18.09
				c-6.39,2.99-12.61,6.44-18.18,10.8C250.05,669.8,252.19,671.91,253.69,670.73L253.69,670.73z"/>
		</g>
	</g>
	<g>
		<g>
			<path class="st0" d="M253.69,672.73c11.62-9.09,26.23-14.58,40.14-18.98c25.16-7.95,51.52-11.97,77.79-13.96
				c20.47-1.55,41.01-1.78,61.52-1.12c1.93,0.06,1.93-2.94,0-3c-34.01-1.09-68.25,0.21-101.82,6.05c-21.04,3.66-42.16,9-61.56,18.09
				c-6.39,2.99-12.61,6.44-18.18,10.8C250.05,671.8,252.19,673.91,253.69,672.73L253.69,672.73z"/>
		</g>
	</g>
	<path class="st4" d="M333.63,373.67c0,0,58-34,103-32"/>
	<path class="st4" d="M375.63,373.67c0,0,35-12,49-11"/>
	<g>
		<g>
			<path class="st16" d="M373.93,755.06c13-3.26,25.8-7.75,38.2-12.81c20.26-8.27,41.95-18.71,56.13-35.96
				c2.43-2.96-1.79-7.23-4.24-4.24c-13.98,17.01-35.57,27.28-55.62,35.28c-11.73,4.68-23.8,8.87-36.06,11.95
				C368.59,750.22,370.17,756,373.93,755.06L373.93,755.06z"/>
		</g>
	</g>
	<g>
		<g>
			<path class="st16" d="M643.51,326.55c-10.03,12.55-27.83,19.77-42.73,23.84c-17.72,4.84-36.39,5.65-54.62,7.16
				c-16.57,1.37-33.15,2.55-49.75,3.6c-8.59,0.55-17.18,1.07-25.78,1.52c-3.84,0.2-3.87,6.2,0,6c24.07-1.25,48.12-2.9,72.14-4.84
				c31.44-2.55,64.64-3.79,91.76-21.86c4.69-3.13,9.66-6.73,13.22-11.18C650.14,327.8,645.92,323.53,643.51,326.55L643.51,326.55z"
				/>
		</g>
	</g>
	<g>
		<g>
			<path class="st16" d="M461.04,734.16c-0.17,0.24-0.54,0.58,0.24-0.3c-0.26,0.29-0.48,0.61-0.75,0.89
				c-0.95,1.01-1.93,1.99-2.98,2.91c-4.04,3.55-9.06,6.62-14.13,9.27c-23.26,12.16-50.33,17.22-76.12,20.31
				c-27.08,3.25-54.42,3.94-81.66,3.43c-3.86-0.07-3.86,5.93,0,6c42.27,0.8,85.8-0.76,126.86-11.81
				c16.87-4.54,34.67-10.77,48.3-22.11c1.97-1.64,3.97-3.44,5.43-5.57C468.41,733.99,463.22,730.99,461.04,734.16L461.04,734.16z"/>
		</g>
	</g>
	<g>
		<g>
			<path class="st0" d="M200.08,805.57c2.77-10.18,14.22-16.66,22.78-21.39c13.84-7.64,28.72-13.35,43.53-18.8
				c15.93-5.86,32.42-10.58,48.07-17.14c7.33-3.07,14.37-6.73,21.52-10.19c6.93-3.36,14.03-5.83,21.26-8.41
				c49.15-17.52,98.23-49.42,123.19-96.65c12.01-22.72,17.21-48.44,14.09-74c-3.39-27.77-15.48-57.13-34.15-78.15
				c-2.49-2.8-5.17-5.45-8.13-7.77c-0.86-0.67-3.26-3.06-4.47-3.02c-0.95,0.03,0.48,0.37,0.35,1c0.08-0.35-0.08-0.76-0.02-1.12
				c0.28-1.73-0.07-3.8-0.1-5.54c-0.29-16.41-0.57-32.83-0.86-49.24c-0.29-16.89-0.59-33.77-0.88-50.66
				c-0.04-2.11-0.03-4.23-0.11-6.34c-0.02-0.48-0.08-1.04-0.03-1.52c0.13-1.07-0.3,0.55-0.06,0.07c1.27-2.55,3.55-4.93,5.21-7.23
				c2.77-3.85,5.54-7.69,8.31-11.54c1.44-2,2.89-4.01,4.33-6.01c0.37-0.52,0.22-1.4-0.23-1.82c-7.32-6.86-17.66-11.13-27.09-13.96
				c-23.6-7.1-49.03-4.77-72.9-0.3c-10.07,1.89-20.06,4.28-29.89,7.18c-2.85,0.84-7.76,1.35-9.64,3.78
				c-0.81,1.05-1.2,2.88-1.71,4.08c-1.24,2.89-2.52,5.77-3.85,8.62c-3.15,6.79-6.41,13.85-10.83,19.93
				c-1.91,2.63-3.33,4.63-6.72,4.11c-4.21-0.65-8.43-2.57-12.31-4.24c-5.9-2.54-11.7-5.39-17.36-8.43c-1.7-0.91-3.18,1.6-1.51,2.59
				c4.01,2.38,7.92,4.96,11.69,7.69c4,2.9,10.47,6.93,11.76,12.08c1.77,7.05,1.08,15.51,1.36,22.71c0.99,25.5,1.54,51.02,2.07,76.53
				c0.14,6.56,0.27,13.13,0.38,19.69c0.37-0.48,0.73-0.96,1.1-1.45c-11.2,3.06-22.06,8.45-32.06,14.22
				c-22.18,12.8-41.58,30.51-55.43,52.12c-13.05,20.36-24.12,42.92-32.71,65.49c-9.53,25.05-15.21,51.64-14.59,78.53
				c0.86,37.58,14.11,73.21,33.89,104.84c1.02,1.63,3.62,0.13,2.59-1.51c-17.8-28.46-30.45-60.21-33.02-93.91
				c-2.03-26.74,2.32-53.43,10.97-78.72c7.65-22.35,18.47-43.38,29.98-63.95c12.99-23.23,31.4-42.5,53.89-56.71
				c11.45-7.23,24.13-13.92,37.28-17.51c0.63-0.17,1.11-0.79,1.1-1.45c-0.33-18.44-0.73-36.88-1.2-55.32
				c-0.35-13.64-0.72-27.27-1.25-40.9c-0.29-7.54,0.17-15.87-1.43-23.29c-1.11-5.13-6.32-8.86-10.22-11.88
				c-4.66-3.6-9.58-6.9-14.64-9.9c-0.5,0.86-1.01,1.73-1.51,2.59c4.7,2.53,9.51,4.89,14.37,7.1c5.36,2.43,12.78,6.66,18.89,6.15
				c4.58-0.38,7.52-5.97,9.63-9.44c3.99-6.54,7.26-13.55,10.38-20.54c1.03-2.3,2.02-4.6,3-6.92c0.27-0.63,0.66-1.31,0.83-1.98
				c0.07-0.28-1.47,0.6-0.48,0.62c1.64,0.03,4.02-1.31,5.61-1.79c4.05-1.23,8.12-2.37,12.21-3.43c25-6.45,52.24-11.29,78.01-7.26
				c13.37,2.09,29.07,6.7,39.25,16.24c-0.08-0.61-0.16-1.21-0.23-1.82c-2.71,3.77-5.43,7.54-8.14,11.3
				c-2.97,4.13-7.5,8.63-9.57,13.29c-0.6,1.34-0.47,2.41-0.45,3.93c0.07,3.81,0.13,7.63,0.2,11.44c0.45,26.11,0.91,52.23,1.36,78.34
				c0.13,7.48,0.26,14.97,0.39,22.45c0.01,0.49,0.27,1.08,0.74,1.3c6.21,2.78,11.4,9.07,15.5,14.23
				c12.47,15.69,21.44,35.02,26.61,54.31c9.04,33.73,3.55,68.69-14.64,98.39c-18.05,29.46-45.81,52.17-75.75,68.79
				c-15.67,8.7-32.09,15.46-49.03,21.26c-8.71,2.98-16.82,7.43-25.09,11.43c-10.33,4.99-21.04,8.66-31.86,12.4
				c-21.24,7.35-42.74,14.6-62.95,24.52c-11.37,5.58-27.82,13.53-31.48,26.98C196.67,806.64,199.57,807.43,200.08,805.57z"/>
		</g>
	</g>
	<path class="st17" d="M339.74,221.67c-1,4-9,19-19,18c6,4,18,2,26,1c-4,4-17,5-21,4c1-1,2-1,1-3"/>
</g>
<g id="touw">
	<g id="koord">
		<g>
			<path class="st0" d="M473.03,508.15c-3.02,39.46-8.78,80.68-25.7,116.75c-20.39,43.46-51.14,84.96-99.58,98.36
				c-58.16,16.08-127.96-11.44-154.8-66.75c-6.15-12.67-9.06-26.73-11.53-40.51c-2.84-15.89-4.54-31.97-5.55-48.07
				c-2.14-34.21-1.24-68.68,2.36-102.76c5.88-55.59,19.15-110.75,33.35-164.75c0.3-1.12,0.59-2.25,0.89-3.37
				c0.5-1.87-2.39-2.66-2.89-0.8c-13.31,49.5-25.12,100.02-32.14,150.82c-4.8,34.74-6.52,69.99-5.33,105.04
				c0.57,16.62,1.83,33.24,4.07,49.72c2.04,14.93,4.54,30.25,9.39,44.56c19,56.14,83.14,89.33,140.15,83.91
				c28.24-2.69,54.35-14.51,75.36-33.51c17.65-15.96,31.24-35.92,42.19-56.92c10.43-20.01,18.11-40.37,22.84-62.49
				c4.58-21.44,7.58-43.28,9.56-65.12c0.12-1.37,0.25-2.75,0.35-4.12C476.17,506.22,473.17,506.23,473.03,508.15L473.03,508.15z"/>
		</g>
	</g>
</g>
<g id="vlinder">
	<g id="vleugellinks_1_">
		<defs>
			<path id="SVGID_3_" d="M96.35,225.45c0.24-2.52,0.24-3.71,0-3.58c-6.4,3.58-9.4-4.39-13.82-6.4c-1.3-0.59-7.41,1.6-9.13,0.96
				c-6.86-2.55-14.33-7.08-10.63-4.53c4.63,3.19,3.94,13.35-0.59,15.29s-3.13,13.87,3.41,14.66c6.54,0.79-8.77,12.16-0.51,15.87
				c8.26,3.7-7.48,4.94-2.9,15.54c4.58,10.6,6.55-3.53,15.44-6.32c2.26-0.71,10.41-6.48,12.35-10.48
				C92.07,252.13,94.2,241.79,96.35,225.45z"/>
		</defs>
		<clipPath id="SVGID_4_">
			<use xlink:href="#SVGID_3_"  style="overflow:visible;"/>
		</clipPath>
		<g class="st18">
			<defs>
				<rect id="SVGID_5_" x="-1590.47" y="-170.85" width="1920" height="1080"/>
			</defs>
			<clipPath id="SVGID_6_">
				<use xlink:href="#SVGID_5_"  style="overflow:visible;"/>
			</clipPath>
			<rect x="54.53" y="206.15" class="st19" width="47" height="76"/>
		</g>
	</g>
	<g id="groenrondje4">
		<defs>
			
				<ellipse id="SVGID_7_" transform="matrix(0.8778 -0.4791 0.4791 0.8778 -124.8438 63.7333)" cx="62.49" cy="276.54" rx="4.84" ry="2.65"/>
		</defs>
		<clipPath id="SVGID_8_">
			<use xlink:href="#SVGID_7_"  style="overflow:visible;"/>
		</clipPath>
		<g class="st20">
			<defs>
				<rect id="SVGID_9_" x="-1588.47" y="-171.85" width="1920" height="1080"/>
			</defs>
			<clipPath id="SVGID_10_">
				<use xlink:href="#SVGID_9_"  style="overflow:visible;"/>
			</clipPath>
			
				<rect x="52.65" y="268.89" transform="matrix(0.866 -0.5 0.5 0.866 -129.8994 68.2925)" class="st21" width="19.68" height="15.3"/>
		</g>
	</g>
	<g id="zwarstreepje3">
		<defs>
			<path id="SVGID_11_" d="M92.42,253.63c-0.55,3.61-2.29,6.16-3.13,7.52c-0.84,1.36-3.33,4.65-9.23,6.18s-11.14,8.83-12.52,10.07
				c-1.37,1.24-3.02,0.98-1.25-1c1.77-1.99,7.86-9.96,10.93-9.96c2.05,0,4.45-1.91,7.2-5.74l6.31-9.03
				C92.23,250.57,92.79,251.23,92.42,253.63z"/>
		</defs>
		<clipPath id="SVGID_12_">
			<use xlink:href="#SVGID_11_"  style="overflow:visible;"/>
		</clipPath>
		<g class="st22">
			<defs>
				<rect id="SVGID_13_" x="-1588.47" y="-170.85" width="1920" height="1080"/>
			</defs>
			<clipPath id="SVGID_14_">
				<use xlink:href="#SVGID_13_"  style="overflow:visible;"/>
			</clipPath>
			<rect x="60.53" y="246.15" class="st23" width="37" height="37"/>
		</g>
	</g>
	<g id="staartrondje2">
		<defs>
			<circle id="SVGID_15_" cx="64.03" cy="279.65" r="0.5"/>
		</defs>
		<clipPath id="SVGID_16_">
			<use xlink:href="#SVGID_15_"  style="overflow:visible;"/>
		</clipPath>
		<g class="st24">
			<defs>
				<rect id="SVGID_17_" x="-1589.47" y="-170.85" width="1920" height="1080"/>
			</defs>
			<clipPath id="SVGID_18_">
				<use xlink:href="#SVGID_17_"  style="overflow:visible;"/>
			</clipPath>
			<rect x="58.53" y="274.15" class="st25" width="11" height="11"/>
		</g>
	</g>
	<g id="staartronjde1">
		<defs>
			
				<ellipse id="SVGID_19_" transform="matrix(0.8595 -0.5111 0.5111 0.8595 -135.0037 71.2234)" cx="62.07" cy="281.22" rx="1.07" ry="0.53"/>
		</defs>
		<clipPath id="SVGID_20_">
			<use xlink:href="#SVGID_19_"  style="overflow:visible;"/>
		</clipPath>
		<g class="st26">
			<defs>
				<rect id="SVGID_21_" x="-1589.47" y="-170.85" width="1920" height="1080"/>
			</defs>
			<clipPath id="SVGID_22_">
				<use xlink:href="#SVGID_21_"  style="overflow:visible;"/>
			</clipPath>
			
				<rect x="56" y="275.69" transform="matrix(0.848 -0.5299 0.5299 0.848 -139.5931 75.6266)" class="st27" width="12.15" height="11.06"/>
		</g>
	</g>
	<g id="rondje4">
		<defs>
			<ellipse id="SVGID_23_" cx="64.53" cy="212.65" rx="5" ry="4.5"/>
		</defs>
		<clipPath id="SVGID_24_">
			<use xlink:href="#SVGID_23_"  style="overflow:visible;"/>
		</clipPath>
		<g class="st28">
			<defs>
				<rect id="SVGID_25_" x="-1590.47" y="-170.85" width="1920" height="1080"/>
			</defs>
			<clipPath id="SVGID_26_">
				<use xlink:href="#SVGID_25_"  style="overflow:visible;"/>
			</clipPath>
			<rect x="54.53" y="203.15" class="st29" width="20" height="19"/>
		</g>
	</g>
	<g id="rondje3">
		<defs>
			<circle id="SVGID_27_" cx="71.03" cy="232.65" r="7.5"/>
		</defs>
		<clipPath id="SVGID_28_">
			<use xlink:href="#SVGID_27_"  style="overflow:visible;"/>
		</clipPath>
		<g class="st30">
			<defs>
				<rect id="SVGID_29_" x="-1592.47" y="-171.85" width="1920" height="1080"/>
			</defs>
			<clipPath id="SVGID_30_">
				<use xlink:href="#SVGID_29_"  style="overflow:visible;"/>
			</clipPath>
			<rect x="58.53" y="220.15" class="st31" width="25" height="25"/>
		</g>
	</g>
	<path id="groenstreepje2" class="st32" d="M68.95,232.14c0.89,1.71,1.81,2.47,2.76,2.27c0.95-0.2,1.61-1.4,1.99-3.61"/>
	<g id="donkergroenebg">
		<defs>
			
				<ellipse id="SVGID_31_" transform="matrix(0.3732 -0.9278 0.9278 0.3732 -149.2101 219.3277)" cx="87.71" cy="220.09" rx="3.7" ry="7.01"/>
		</defs>
		<clipPath id="SVGID_32_">
			<use xlink:href="#SVGID_31_"  style="overflow:visible;"/>
		</clipPath>
		<g class="st33">
			<defs>
				<rect id="SVGID_33_" x="-1589.47" y="-170.85" width="1920" height="1080"/>
			</defs>
			<clipPath id="SVGID_34_">
				<use xlink:href="#SVGID_33_"  style="overflow:visible;"/>
			</clipPath>
			
				<rect x="79.01" y="208.08" transform="matrix(0.3907 -0.9205 0.9205 0.3907 -149.1529 214.8256)" class="st34" width="17.39" height="24.02"/>
		</g>
	</g>
	<g id="blopje">
		<defs>
			<path id="SVGID_35_" d="M87.49,221.78c1.16,0.3,2.45,0.09,2.68-0.75c0.23-0.84-0.63-1.05-1.79-1.35
				c-1.16-0.3-2.05-1.76-2.74-0.23C85.27,220.29,86.33,221.48,87.49,221.78z"/>
		</defs>
		<clipPath id="SVGID_36_">
			<use xlink:href="#SVGID_35_"  style="overflow:visible;"/>
		</clipPath>
		<g class="st35">
			<defs>
				<rect id="SVGID_37_" x="-1589.47" y="-170.85" width="1920" height="1080"/>
			</defs>
			<clipPath id="SVGID_38_">
				<use xlink:href="#SVGID_37_"  style="overflow:visible;"/>
			</clipPath>
			
				<rect x="81.51" y="213.1" transform="matrix(0.2588 -0.9659 0.9659 0.2588 -147.88 248.2665)" class="st36" width="12.66" height="14.79"/>
		</g>
	</g>
	<g id="vleugellinks">
		<defs>
			<rect id="SVGID_39_" x="-1223.47" y="-780.85" width="1920" height="1080"/>
		</defs>
		<clipPath id="SVGID_40_">
			<use xlink:href="#SVGID_39_"  style="overflow:visible;"/>
		</clipPath>
	</g>
	<circle id="zwartebg" class="st37" cx="84.53" cy="256.15" r="6"/>
	<circle id="groenrondje" class="st38" cx="84.03" cy="257.65" r="5"/>
	<g id="rechtervleugel">
		<defs>
			<path id="SVGID_41_" d="M99.81,227.66c2.55-5.69,4.98-9.1,7.29-10.24c3.46-1.71,2.47,0,6.81-3.64c4.34-3.64,1.9-3.81,4.23-6.8
				c2.34-2.99,5.81,3.05,3.63,7.24c-2.18,4.19-0.18,7.37-0.52,10.07c-0.35,2.7,2.77,12.18-6.45,17.22
				c-9.23,5.04-12.24,14.28-13.46,17.81c-1.22,3.53-0.94,6.32-1.23,10.59c-0.55,4.9-7.21,4.96-6.1-0.26
				c1.11-5.22,5.44-4.95,5.81-9.57c0.07-0.92,2.71-6.29,2.31-6.98c-1.23-2.13-6.75,1.27-5.39,0.26
				C97.94,252.47,98.97,243.91,99.81,227.66z"/>
		</defs>
		<clipPath id="SVGID_42_">
			<use xlink:href="#SVGID_41_"  style="overflow:visible;"/>
		</clipPath>
		<g class="st39">
			<defs>
				<rect id="SVGID_43_" x="-1590.47" y="-168.85" width="1920" height="1080"/>
			</defs>
			<clipPath id="SVGID_44_">
				<use xlink:href="#SVGID_43_"  style="overflow:visible;"/>
			</clipPath>
			
				<rect x="85.2" y="202.81" transform="matrix(0.9925 -0.1219 0.1219 0.9925 -28.4268 14.9557)" class="st40" width="45.7" height="74.12"/>
		</g>
	</g>
	<g id="lijfje">
		<defs>
			<path id="SVGID_45_" d="M93.65,222.14c1.97-3.33,6.5-4.23,7.52-0.9c1.02,3.33,0,28.91-4.29,28.91c-1.02,0-1.29-1.79-2.04-1.92
				c-0.89-0.16-1.98,1.03-3.27,3.55C91.32,236.68,92.01,226.8,93.65,222.14z"/>
		</defs>
		<clipPath id="SVGID_46_">
			<use xlink:href="#SVGID_45_"  style="overflow:visible;"/>
		</clipPath>
		<g class="st41">
			<defs>
				<rect id="SVGID_47_" x="-1590.47" y="-170.85" width="1920" height="1080"/>
			</defs>
			<clipPath id="SVGID_48_">
				<use xlink:href="#SVGID_47_"  style="overflow:visible;"/>
			</clipPath>
			<rect x="86.52" y="214.15" class="st42" width="20.01" height="42.63"/>
		</g>
	</g>
	<g id="streepje2">
		<defs>
			<path id="SVGID_49_" d="M100.17,217.18c-0.86,1.98-0.86,2.96,0,2.96c1.29,0,1.99-0.98,1.99-2.48c0-1.5,2.78-7.25,3.44-8.43
				c0.66-1.18,1.31-3.09,0.66-3.09c-0.66,0-3.24,3.26-3.24,4.02C103.02,210.68,102.07,213.01,100.17,217.18z"/>
		</defs>
		<clipPath id="SVGID_50_">
			<use xlink:href="#SVGID_49_"  style="overflow:visible;"/>
		</clipPath>
		<g class="st43">
			<defs>
				<rect id="SVGID_51_" x="-1590.47" y="-170.85" width="1920" height="1080"/>
			</defs>
			<clipPath id="SVGID_52_">
				<use xlink:href="#SVGID_51_"  style="overflow:visible;"/>
			</clipPath>
			<rect x="94.53" y="201.15" class="st44" width="17" height="24"/>
		</g>
	</g>
	<g id="volsprietrondje2">
		<defs>
			<path id="SVGID_53_" d="M105.26,206.31c1.17,0.26,1.91-1.2,2.11-2.05c0.2-0.85-0.58-1.75-1.75-2.01
				c-1.17-0.26-2.27,0.21-2.48,1.06C102.94,204.16,104.09,206.05,105.26,206.31z"/>
		</defs>
		<clipPath id="SVGID_54_">
			<use xlink:href="#SVGID_53_"  style="overflow:visible;"/>
		</clipPath>
		<g class="st45">
			<defs>
				<rect id="SVGID_55_" x="-1590.47" y="-170.85" width="1920" height="1080"/>
			</defs>
			<clipPath id="SVGID_56_">
				<use xlink:href="#SVGID_55_"  style="overflow:visible;"/>
			</clipPath>
			
				<rect x="98.14" y="197.05" transform="matrix(0.225 -0.9744 0.9744 0.225 -117.4784 260.7403)" class="st46" width="14.04" height="14.33"/>
		</g>
	</g>
	<g id="streepje_1_">
		<defs>
			<path id="SVGID_57_" d="M95.54,218.22c0.24,1.69,1.3,3.07,2.25,0.52c0.95-2.56,0.85-8.62,0.43-10.39
				c-0.28-1.18-0.59-1.49-0.92-0.93c-0.89,2.17-1.03,3.78-0.42,4.82C97.79,213.8,95.32,216.66,95.54,218.22z"/>
		</defs>
		<clipPath id="SVGID_58_">
			<use xlink:href="#SVGID_57_"  style="overflow:visible;"/>
		</clipPath>
		<g class="st47">
			<defs>
				<rect id="SVGID_59_" x="-1591.47" y="-170.85" width="1920" height="1080"/>
			</defs>
			<clipPath id="SVGID_60_">
				<use xlink:href="#SVGID_59_"  style="overflow:visible;"/>
			</clipPath>
			<rect x="90.53" y="202.15" class="st48" width="13" height="23"/>
		</g>
	</g>
	<g id="volsprietrondje1">
		<defs>
			<ellipse id="SVGID_61_" cx="97.03" cy="206.15" rx="2.5" ry="2"/>
		</defs>
		<clipPath id="SVGID_62_">
			<use xlink:href="#SVGID_61_"  style="overflow:visible;"/>
		</clipPath>
		<g class="st49">
			<defs>
				<rect id="SVGID_63_" x="-1591.47" y="-170.85" width="1920" height="1080"/>
			</defs>
			<clipPath id="SVGID_64_">
				<use xlink:href="#SVGID_63_"  style="overflow:visible;"/>
			</clipPath>
			<rect x="89.53" y="199.15" class="st50" width="15" height="14"/>
		</g>
	</g>
	<g id="zwarterand2">
		<defs>
			<path id="SVGID_65_" d="M100.01,258.15c0.33-2.23,0-2.94-0.99-2.13c-1.56,1.28-5.53-0.2-2.81-3.93c0.24-0.32,0.07-1.54-1.5-1.54
				c-1.48,0-3.13,2.64-3.36,3.79c-0.48,2.48-0.37,2.25-1.3,3.2c-0.92,0.95-3.5-4.37-2.15-5.22c0.42-0.27,1.87,0.05,2.55-0.52
				c1.5-1.26,2.64-3.65,4.61-3.65c2.21,0,4.36,1,4.36,2.25c-1.46,1.76-1.54,2.52-0.22,2.29s1.96-1.06,1.93-2.48
				c0.92,0.44,1.39,1.07,1.39,1.89S101.69,254.93,100.01,258.15z"/>
		</defs>
		<clipPath id="SVGID_66_">
			<use xlink:href="#SVGID_65_"  style="overflow:visible;"/>
		</clipPath>
		<g class="st51">
			<defs>
				<rect id="SVGID_67_" x="-1590.47" y="-170.85" width="1920" height="1080"/>
			</defs>
			<clipPath id="SVGID_68_">
				<use xlink:href="#SVGID_67_"  style="overflow:visible;"/>
			</clipPath>
			<rect x="82.53" y="243.15" class="st52" width="25" height="20"/>
		</g>
	</g>
	<circle id="rozerondje2" class="st53" cx="100.53" cy="250.15" r="1.5"/>
	<g id="rozerondje1">
		<defs>
			
				<ellipse id="SVGID_69_" transform="matrix(0.5939 -0.8046 0.8046 0.5939 -163.0105 182.1528)" cx="98.92" cy="252.54" rx="3.2" ry="1.6"/>
		</defs>
		<clipPath id="SVGID_70_">
			<use xlink:href="#SVGID_69_"  style="overflow:visible;"/>
		</clipPath>
		<g class="st54">
			<defs>
				<rect id="SVGID_71_" x="-1590.47" y="-170.85" width="1920" height="1080"/>
			</defs>
			<clipPath id="SVGID_72_">
				<use xlink:href="#SVGID_71_"  style="overflow:visible;"/>
			</clipPath>
			
				<rect x="90.72" y="245.94" transform="matrix(0.5736 -0.8192 0.8192 0.5736 -164.6889 188.725)" class="st55" width="16.4" height="13.2"/>
		</g>
	</g>
	<g id="rondje2">
		<defs>
			<path id="SVGID_73_" d="M112.52,220.5c2.14-2.57-1.72-4.27-1.99-4.33c-0.34,0.06-1.2,0.34-1.6,0.46
				c-1.08,0.33-2.12,0.77-3.19,1.71c-1.14,0.99-1.79,1.86-2.5,2.94c-0.34,0.52-0.73,1-1.08,1.7c0.88,0.67,1.66,1.35,3.31,1.41
				C107.61,224.47,110.2,223.3,112.52,220.5z"/>
		</defs>
		<clipPath id="SVGID_74_">
			<use xlink:href="#SVGID_73_"  style="overflow:visible;"/>
		</clipPath>
		<g class="st56">
			<defs>
				<rect id="SVGID_75_" x="-1590.47" y="-168.85" width="1920" height="1080"/>
			</defs>
			<clipPath id="SVGID_76_">
				<use xlink:href="#SVGID_75_"  style="overflow:visible;"/>
			</clipPath>
			
				<rect x="97.1" y="212.59" transform="matrix(0.7431 -0.6691 0.6691 0.7431 -120.0166 128.822)" class="st57" width="21.38" height="16.3"/>
		</g>
	</g>
	<g id="bolletje1">
		<defs>
			
				<ellipse id="SVGID_77_" transform="matrix(0.5358 -0.8444 0.8444 0.5358 -119.3953 197.389)" cx="119.82" cy="207.28" rx="3.71" ry="2.69"/>
		</defs>
		<clipPath id="SVGID_78_">
			<use xlink:href="#SVGID_77_"  style="overflow:visible;"/>
		</clipPath>
		<g class="st58">
			<defs>
				<rect id="SVGID_79_" x="-1590.47" y="-169.85" width="1920" height="1080"/>
			</defs>
			<clipPath id="SVGID_80_">
				<use xlink:href="#SVGID_79_"  style="overflow:visible;"/>
			</clipPath>
			
				<rect x="111.11" y="199.59" transform="matrix(0.5 -0.866 0.866 0.5 -119.5996 207.4045)" class="st59" width="17.42" height="15.38"/>
		</g>
	</g>
	<g id="rondje1">
		<defs>
			<path id="SVGID_81_" d="M114.79,239.77c3.39-2.39,5.08-5.86,2.8-8.91c-2.29-3.05-6.48-1.96-9.86,0.42
				c-3.39,2.39-4.69,5.17-2.41,8.23C107.61,242.56,111.4,242.16,114.79,239.77z"/>
		</defs>
		<clipPath id="SVGID_82_">
			<use xlink:href="#SVGID_81_"  style="overflow:visible;"/>
		</clipPath>
		<g class="st60">
			<defs>
				<rect id="SVGID_83_" x="-1586.47" y="-171.85" width="1920" height="1080"/>
			</defs>
			<clipPath id="SVGID_84_">
				<use xlink:href="#SVGID_83_"  style="overflow:visible;"/>
			</clipPath>
			
				<rect x="99.04" y="224.8" transform="matrix(0.809 -0.5878 0.5878 0.809 -117.0097 110.5083)" class="st61" width="25.01" height="21.02"/>
		</g>
	</g>
	<path id="streepje" class="st62" d="M109.53,236.68c1.51,1.21,4.89-0.05,3.78-2.54"/>
	<g id="zwartterand">
		<defs>
			<path id="SVGID_85_" d="M98.6,261.89c-0.84,0.88-0.63,4.78,0.67,5.33s-0.64,5.83-3.23,5.03c-2.58-0.8-1.88-3.02-1.96-3.71
				c-0.09-0.69-1.82-1.7-1.42,1.4s2.52,4.86,4.97,3.99c2.45-0.87,4.14-8.01,3.87-10.18c-0.01-0.09-0.02-0.19-0.03-0.31
				c-0.13-2.68,3.35-11.38,4.18-12.86s4.99-6.09,8.96-7.77c3.97-1.68,9.28-12.21,8.42-19.01c-0.81-6.37-0.16-9.69,1.13-11.4
				c0.09-0.12,0.38-0.69,0.38-1.97c0-1.28-3.52-2.58-1.9,0c0.31,0.49,0.31,1.03,0,1.41c-1.47,1.84-3.18,3.98-2.28,11.11
				c1.09,8.61-3.84,15.86-7.13,17.66c-3.28,1.8-10.57,7.52-10.4,8.91C102.95,250.37,99.44,261.01,98.6,261.89z"/>
		</defs>
		<clipPath id="SVGID_86_">
			<use xlink:href="#SVGID_85_"  style="overflow:visible;"/>
		</clipPath>
		<g class="st63">
			<defs>
				<rect id="SVGID_87_" x="-1590.47" y="-168.85" width="1920" height="1080"/>
			</defs>
			<clipPath id="SVGID_88_">
				<use xlink:href="#SVGID_87_"  style="overflow:visible;"/>
			</clipPath>
			
				<rect x="84.33" y="205.88" transform="matrix(0.9925 -0.1219 0.1219 0.9925 -28.6393 15.0589)" class="st64" width="48.9" height="71.56"/>
		</g>
	</g>
</g>
<g id="groene_v">
	<path class="st65" d="M616.4,568.75c14.59-36.63,35.36-3.9,45.47-2.05c5.48,0-5.12-47.95,45.47-47.95"/>
	<path class="st66" d="M620.4,572.75c14.59-36.63,35.36-3.9,45.47-2.05c5.48,0-5.12-47.95,45.47-47.95"/>
</g>
<g id="groene_strepen_bij_v">
	<path class="st67" d="M605.92,583.58c10.36-1.74,17.76-2.63,22.2-2.68c10.39-0.11,19,1.76,25.82,5.63"/>
	<path class="st68" d="M607.92,586.58c10.36-1.74,17.76-2.63,22.2-2.68c10.39-0.11,19,1.76,25.82,5.63"/>
</g>
</svg>
