<?xml version="1.0" encoding="utf-8"?>
<!-- Generator: Adobe Illustrator 23.0.3, SVG Export Plug-In . SVG Version: 6.00 Build 0)  -->
<svg version="1.1" xmlns="http://www.w3.org/2000/svg" xmlns:xlink="http://www.w3.org/1999/xlink" x="0px" y="0px"
	 viewBox="0 0 849 688" style="enable-background:new 0 0 849 688;" xml:space="preserve">
<style type="text/css">
	.st0{clip-path:url(#SVGID_2_);}
	.st1{clip-path:url(#SVGID_4_);fill:#F0E0DB;}
	.st2{clip-path:url(#SVGID_6_);}
	.st3{clip-path:url(#SVGID_8_);fill:#F0E0DB;}
	.st4{clip-path:url(#SVGID_10_);}
	.st5{clip-path:url(#SVGID_12_);fill:#F0E0DB;}
	.st6{clip-path:url(#SVGID_14_);}
	.st7{clip-path:url(#SVGID_16_);fill:#F0E0DB;}
</style>
<g id="wolktop">
	<g>
		<defs>
			<path id="SVGID_1_" d="M757,67.51c-7.58,2.76-14.82,2.76-21.73,0c-10.37-4.15-23.8-4.11-37.34-4.11
				c-13.54,0-7.73-6.68-25.51-6.68c-17.78,0-36.41,0-40.63-3.52c-1.85-3.89-13.47-0.64-20.73-0.64
				c-12.48-3.25-17.44,0.64-22.18-3.25s-42.51-4.22-47.68,0c-5.17,4.22-64.02,0.36-92.88,3.89c-28.86,3.52-74.79,3.52-95.08,0
				s-77.17,4.71-94.34,3.52c-17.17-1.19-22.17-1.84-25.02-4.16c-2.86-2.32-18.78,1.08-32.92,0.64c-37.24-1.18-53.4-7.77-69.83-3.89
				s-35.69,6.14-48.9,3.89C69.01,50.94,66.48,49,62,53.2c-2.99,2.8-19.99,1.5-51-3.89V21h746V67.51z"/>
		</defs>
		<clipPath id="SVGID_2_">
			<use xlink:href="#SVGID_1_"  style="overflow:visible;"/>
		</clipPath>
		<g class="st0">
			<defs>
				<rect id="SVGID_3_" x="-576" y="-2" width="1920" height="1080"/>
			</defs>
			<clipPath id="SVGID_4_">
				<use xlink:href="#SVGID_3_"  style="overflow:visible;"/>
			</clipPath>
			<rect x="6" y="16" class="st1" width="756" height="58.58"/>
		</g>
	</g>
</g>
<g id="rechtsboven">
	<g>
		<defs>
			<path id="SVGID_5_" d="M747,77.09c-84.44,2.91-131.08,5.55-139.93,7.93c-13.27,3.57-10.19,18.53,8.65,18.53
				c12.56,0,30.7,0,54.42,0c0.43,6.03,4,9.05,10.71,9.05c10.08,0,24.07,5.38,38.57,5.38c14.5,0,22.08,9.97,24.82,4.99
				c1.83-3.32,15.69-3.32,41.57,0c29.7-0.88,37.82-4.34,24.38-10.37c-20.17-9.05-9.92-8.33-17.15-14.99
				c-7.23-6.66,7.2-20.52-7.23-20.52C776.2,77.09,763.26,77.09,747,77.09z"/>
		</defs>
		<clipPath id="SVGID_6_">
			<use xlink:href="#SVGID_5_"  style="overflow:visible;"/>
		</clipPath>
		<g class="st2">
			<defs>
				<rect id="SVGID_7_" x="-586" y="-4" width="1920" height="1080"/>
			</defs>
			<clipPath id="SVGID_8_">
				<use xlink:href="#SVGID_7_"  style="overflow:visible;"/>
			</clipPath>
			<rect x="593.96" y="72.09" class="st3" width="227.53" height="57.27"/>
		</g>
	</g>
</g>
<g id="linksboven">
	<g>
		<defs>
			<path id="SVGID_9_" d="M58.18,62.7c29.57,1.96,47.48,1.96,53.72,0c9.37-2.94,28.23,0,33.73,0c5.51,0,71.33-0.08,71.33,0
				s43.67,19.11,4.96,27.21c-25.81,5.4-45.71,5.4-59.73,0c-10.15,4.62-18.59,6.94-25.31,6.94s-21.81,0-45.28,0
				c-12.43,4.54-21.81,6.81-28.13,6.81c-6.32,0-16.47,0-30.43,0V62.7H58.18z"/>
		</defs>
		<clipPath id="SVGID_10_">
			<use xlink:href="#SVGID_9_"  style="overflow:visible;"/>
		</clipPath>
		<g class="st4">
			<defs>
				<rect id="SVGID_11_" x="-584" y="-3" width="1920" height="1080"/>
			</defs>
			<clipPath id="SVGID_12_">
				<use xlink:href="#SVGID_11_"  style="overflow:visible;"/>
			</clipPath>
			<rect x="28.06" y="56.39" class="st5" width="214.87" height="52.26"/>
		</g>
	</g>
</g>
<g id="rechtsonder">
	<g>
		<defs>
			<path id="SVGID_13_" d="M763.67,574.78c-121.69-5.75-188.81-7.19-201.38-4.32c-18.85,4.32-41.39,22.06-3.96,22.06
				c24.95,0,44.52,2.38,58.71,7.14c6.95,7.7,6.95,11.55,0,11.55c-10.43,0-17.5,24.7,16.37,24.7s93.27,9.31,108.43,9.31
				c15.16,0,31.08,3.84,41.17,0c34.64-13.17,58.87-15.55,23.48-34.01c-14.23-7.42,10.43-13.31-5.86-22.89
				C794.65,584.79,782.33,580.28,763.67,574.78z"/>
		</defs>
		<clipPath id="SVGID_14_">
			<use xlink:href="#SVGID_13_"  style="overflow:visible;"/>
		</clipPath>
		<g class="st6">
			<defs>
				<rect id="SVGID_15_" x="-576" y="-2" width="1920" height="1080"/>
			</defs>
			<clipPath id="SVGID_16_">
				<use xlink:href="#SVGID_15_"  style="overflow:visible;"/>
			</clipPath>
			<rect x="533.13" y="564.03" class="st7" width="295.72" height="87.89"/>
		</g>
	</g>
</g>
</svg>
