<?xml version="1.0" encoding="utf-8"?>
<!-- Generator: Adobe Illustrator 23.0.3, SVG Export Plug-In . SVG Version: 6.00 Build 0)  -->
<svg version="1.1" id="hand" xmlns="http://www.w3.org/2000/svg" xmlns:xlink="http://www.w3.org/1999/xlink" x="0px" y="0px"
	 viewBox="0 0 502 607" style="enable-background:new 0 0 502 607;" xml:space="preserve">
<style type="text/css">
	.hand0{fill:#54544C;}
	.hand1{fill:#DDE3D4;}
	.hand2{fill:none;stroke:#54544C;stroke-width:2;stroke-miterlimit:10;}
	.hand3{fill:none;stroke:#54544C;stroke-miterlimit:10;}
	.hand4{fill:#9C7862;}
</style>
<g id="menokle">
	<g>
		<path class="hand0" d="M251.88,44.06c-1.08,5.71-2.6,11.39-5.25,16.59c-1.49,2.92-4.18,8.09-7.92,8.43
			c-9.34,0.85-6.45-23.48-5.65-28.07c0.96-5.47,2.49-10.96,4.94-15.96c1.48-3.02,4.04-8.19,7.72-9
			C255.48,13.92,252.57,39.85,251.88,44.06c-0.31,1.89,2.58,2.7,2.89,0.8c1.24-7.53,1.93-15.6-0.1-23.07c-0.99-3.63-3-8.24-7.24-8.8
			c-3.86-0.51-7.01,2.73-9.08,5.57c-4.53,6.21-6.87,14.19-8.19,21.66c-1.32,7.48-1.92,15.65,0.1,23.07
			c0.95,3.49,2.85,7.95,6.84,8.75c4.01,0.8,7.34-2.59,9.48-5.51c4.57-6.25,6.77-14.17,8.19-21.66
			C255.13,42.97,252.24,42.17,251.88,44.06z"/>
	</g>
</g>
<g id="dubbele_laag">
	<g>
		<path class="hand0" d="M248.1,15.95c4.23,1.11,5.84,6.84,6.65,10.55c1.4,6.34,1.05,13.01-0.21,19.34
			c-1.17,5.9-5.34,24.09-14.04,23.26c-1.92-0.18-1.91,2.82,0,3c11.15,1.06,15.97-19.74,17.27-27.23c1.46-8.4,2.54-28.82-8.88-31.81
			C247.03,12.57,246.23,15.46,248.1,15.95L248.1,15.95z"/>
	</g>
</g>
<g id="arm">
	<g id="hand_1_">
		<path class="hand0" d="M224,91c1.5-1.5,3.5-11.5,1.5-16.5c5.5,3.5,21,3,23,3s9-1,15.5-7.5s-27.05-6.02-36-9c-7.5-2.5-14.5-1.5-17,5
			c-2.54,6.6-5.5,19.5-9,22s-13.5,3.5-26,8s-10.5,10.5-10,12c-9.5,3.5-10.5,12.5-10.5,12.5s-19-3-9.5,30.5
			c2.19,13.75,1.52,25.09,2.5,33.5c1.48,12.69,4.59,19.78,10,27c-6-6-11-17-28.5-14.5c-16,4-19.5,19.5-19.5,19.5s-16-6-18.5,2.5
			c-1.26,4.29,46,2,46,2h51c0,0,22-31,27-31s27-45,27-77s9.5-31.5,9-34c-8.5-1.5-12.5-2.5-17.5-0.5s-9,16-8,20
			C224.5,96.5,222.5,92.5,224,91z"/>
		<path class="hand0" d="M218,91c1.5-1.5,3.5-11.5,1.5-16.5c5.5,3.5,21,3,23,3s9-1,15.5-7.5s-27.05-6.02-36-9c-7.5-2.5-14.5-1.5-17,5
			c-2.54,6.6-5.5,19.5-9,22s-13.5,3.5-26,8s-10.5,10.5-10,12c-9.5,3.5-10.5,12.5-10.5,12.5s-19-3-9.5,30.5
			c2.19,13.75,1.52,25.09,2.5,33.5c1.48,12.69,4.59,19.78,10,27c-6-6-11-17-28.5-14.5c-16,4-19.5,19.5-19.5,19.5s-16-6-18.5,2.5
			c-1.26,4.29,46,2,46,2h51c0,0,22-31,27-31s27-45,27-77s9.5-31.5,9-34c-8.5-1.5-12.5-2.5-17.5-0.5s-9,16-8,20
			C218.5,96.5,216.5,92.5,218,91z"/>
		<g>
			<path class="st1" d="M221,91c1.5-1.5,3.5-11.5,1.5-16.5c5.5,3.5,21,3,23,3s9-1,15.5-7.5s-27.05-6.02-36-9c-7.5-2.5-14.5-1.5-17,5
				c-2.54,6.6-5.5,19.5-9,22s-13.5,3.5-26,8s-10.5,10.5-10,12c-9.5,3.5-10.5,12.5-10.5,12.5s-19-3-9.5,30.5
				c2.19,13.75,1.52,25.09,2.5,33.5c1.48,12.69,4.59,19.78,10,27c-6-6-11-17-28.5-14.5c-16,4-19.5,19.5-19.5,19.5s-16-6-18.5,2.5
				c-1.26,4.29,46,2,46,2h51c0,0,22-31,27-31s27-45,27-77s9.5-31.5,9-34c-8.5-1.5-12.5-2.5-17.5-0.5s-9,16-8,20
				C221.5,96.5,219.5,92.5,221,91z"/>
			<path class="st2" d="M221,91c1.5-1.5,3.5-11.5,1.5-16.5c5.5,3.5,21,3,23,3s9-1,15.5-7.5s-27.05-6.02-36-9c-7.5-2.5-14.5-1.5-17,5
				c-2.54,6.6-5.5,19.5-9,22s-13.5,3.5-26,8s-10.5,10.5-10,12c-9.5,3.5-10.5,12.5-10.5,12.5s-19-3-9.5,30.5
				c2.19,13.75,1.52,25.09,2.5,33.5c1.48,12.69,4.59,19.78,10,27c-6-6-11-17-28.5-14.5c-16,4-19.5,19.5-19.5,19.5s-16-6-18.5,2.5
				c-1.26,4.29,46,2,46,2h51c0,0,22-31,27-31s27-45,27-77s9.5-31.5,9-34c-8.5-1.5-12.5-2.5-17.5-0.5s-9,16-8,20
				C221.5,96.5,219.5,92.5,221,91z"/>
		</g>
		<path class="st3" d="M152.5,120.5c11.5,0.5,24.42-8.07,30-9c6-1,12,8,10.5,16.5s0.5,13.5,3,17s2,10-7,6s-10.5-16.5-9.5-21.5
			c-5,5-10,1-10,1s-1,9-10,7"/>
		<path class="st3" d="M152.5,121.5c11.5,0.5,24.42-8.07,30-9c6-1,12,8,10.5,16.5s0.5,13.5,3,17s2,10-7,6s-10.5-16.5-9.5-21.5
			c-5,5-10,1-10,1s-1,9-10,7"/>
		<path class="st0" d="M179,132c0,0-2.5,11.5,6.5,22.5c4.11,5.03,8.06,14.94,7,23c-1.25,9.57-7,15-8,17c2-1,12-11,12-21
			c0-17-6-21-7-23C190,150,182,157,179,132z"/>
		<path class="st3" d="M163.5,107.5c16-2,26.5-6.5,30.5-8.5s8-3,10,2s3.5,9.5,5,12s1,8-2,9s-5,13-5,13s-1.5,6.5-8.5,6.5"/>
		<path class="st3" d="M163.5,108.5c16-2,26.5-6.5,30.5-8.5s8-3,10,2s3.5,9.5,5,12s1,8-2,9s-5,13-5,13s-0.5,5.5-7.5,5.5"/>
		<g>
			<g>
				<path class="st0" d="M198.7,89.22c2.5-0.8,5.19-1.33,7.81-1.4c2.01-0.05,4.37,0.03,6.09,1.23c2.73,1.9,2.43,5.93,3.32,8.79
					c0.57,1.84,1.52,3.46,2.16,5.25c1.39,3.94,0.06,5.62-1.68,8.8c-1.74,3.2-2.72,6.9-3.61,10.4c-0.24,0.94,1.21,1.34,1.45,0.4
					c0.57-2.23,1.22-4.46,2.01-6.62c1.05-2.87,3.59-5.47,4.24-8.39c0.43-1.94-0.34-3.63-1.11-5.35c-1.57-3.52-2.23-6.81-3.24-10.5
					c-2.05-7.48-12.16-5.87-17.83-4.06C197.38,88.07,197.78,89.52,198.7,89.22L198.7,89.22z"/>
			</g>
		</g>
	</g>
	<path id="mouw2" class="st1" d="M115,390c0,0,44-137,74-169c-20-5-31,4-47-2s-32,4-41,3s-15,0-32-7c13,18-2,102-17,114
		s-5,109-5,109s4,55,3,20S104,380,115,390z"/>
	<path id="mouw" class="st4" d="M116,400c0,0,20-68,40-119c-16.17-3.39-21.34-0.76-46.5,1.5c-19.75,1.77-28,4-40.13,0.8
		C65.16,304.62,58.58,323.74,52,329c-15,12-25,99-26,111s-9.97,160.49,24,152C74,586,116,400,116,400z"/>
	<path id="buiten_lijn" class="st2" d="M116,400c0,0,43-147,73-179c-20-5-31,4-47-2s-32,4-41,3s-15,0-32-7c13,18-2,102-17,114
		S26,440,26,440S12,592,50,592C61,592,87,527,116,400z"/>
</g>
<g id="koord">
	<g>
		<path class="st0" d="M490.5,295c-3.02,39.46-8.78,80.68-25.7,116.75c-20.39,43.46-51.14,84.96-99.58,98.36
			c-58.16,16.08-127.96-11.44-154.8-66.75c-6.15-12.67-9.06-26.73-11.53-40.51c-2.84-15.89-4.54-31.97-5.55-48.07
			c-2.14-34.21-1.24-68.68,2.36-102.76c5.88-55.59,19.15-110.75,33.35-164.75c0.3-1.12,0.59-2.25,0.89-3.37
			c0.5-1.87-2.39-2.66-2.89-0.8c-13.31,49.5-25.12,100.02-32.14,150.82c-4.8,34.74-6.52,69.99-5.33,105.04
			c0.57,16.62,1.83,33.24,4.07,49.72c2.04,14.93,4.54,30.25,9.39,44.56c19,56.14,83.14,89.33,140.15,83.91
			c28.24-2.69,54.35-14.51,75.36-33.51c17.65-15.96,31.24-35.92,42.19-56.92c10.43-20.01,18.11-40.37,22.84-62.49
			c4.58-21.44,7.58-43.28,9.56-65.12c0.12-1.37,0.25-2.75,0.35-4.12C493.65,293.07,490.65,293.08,490.5,295L490.5,295z"/>
	</g>
</g>
</svg>
