<?xml version="1.0" encoding="utf-8"?>
<!-- Generator: Adobe Illustrator 23.0.3, SVG Export Plug-In . SVG Version: 6.00 Build 0)  -->
<svg version="1.1" id="hoed" xmlns="http://www.w3.org/2000/svg" xmlns:xlink="http://www.w3.org/1999/xlink" x="0px" y="0px"
	 viewBox="0 0 348 339" style="enable-background:new 0 0 348 339;" xml:space="preserve">
<style type="text/css">
	.st0{fill:#54544C;}
	.st1{fill:#7C7C6F;}
</style>
<path class="st0" d="M189,23c-3.5,17.5-80,130-80,130l148,88c0,0,29-64,37-77s45-67,45-67s-39-36-64-47S206.5,19.5,189,23z"/>
<path class="st1" d="M233,39c0,0,42,14,42,18s-33,62-33,62s2,6,5,0s33.5-59.5,33.5-59.5s2-1,1,2s-64,109-64,109s0,6,3,2
	s63-106,63-106s5-5,2,2s-74,126-74,127s-22-13-25-15s-44-18-45-18s19-34,19-34s3-2,1,3s-12,25-12,25s5,9,15,3S230.5,39.5,233,39z"/>
<path class="st0" d="M9.2,170.29c41.67-25.02,106.65-25.76,168.57,2.57c74.82,34.23,120.46,99.59,112.85,155.36
	C290.5,328.5,9.5,169.5,9.2,170.29z"/>
</svg>
