<?xml version="1.0" encoding="utf-8"?>
<!-- Generator: Adobe Illustrator 23.0.3, SVG Export Plug-In . SVG Version: 6.00 Build 0)  -->
<svg version="1.1" xmlns="http://www.w3.org/2000/svg" xmlns:xlink="http://www.w3.org/1999/xlink" x="0px" y="0px"
	 viewBox="0 0 764 848" style="enable-background:new 0 0 764 848;" xml:space="preserve">
<style type="text/css">
	.huid{fill:#E7DBCC;}
	.donkerelijn{fill:#54544C;}
	.man2{fill:#CFC3B6;stroke:#54544C;stroke-miterlimit:10;}
	.man3{fill:#92846E;}
	.man4{fill:#918171;}
	.man5{fill:#A7947D;}
	.man6{clip-path:url(#SVGID_2_);}
	.man7{fill:#9C7862;}
	.man8{fill:#9C7862;stroke:#54544C;stroke-width:2;stroke-miterlimit:10;}
	.man9{fill:#DDE3D4;}
	.man10{fill:#477162;}
	.man11{fill:#A19B85;}
	.man12{fill:#989A83;}
	.man13{fill:none;stroke:#54544C;stroke-width:2;stroke-miterlimit:10;}
	.man14{fill:none;stroke:#54544C;stroke-miterlimit:10;}
	.man15{fill:#95BBA7;}
	.man16{fill:#54544C;stroke:#54544C;stroke-miterlimit:10;}
	.man17{fill:none;stroke:#4D6658;stroke-width:15;stroke-miterlimit:10;}
	.man18{fill:none;stroke:#86A798;stroke-width:15;stroke-miterlimit:10;}
	.man19{fill:none;stroke:#4D6658;stroke-width:6;stroke-linecap:round;stroke-miterlimit:10;}
	.man20{fill:none;stroke:#86A798;stroke-width:6;stroke-linecap:round;stroke-miterlimit:10;}
</style>
<g id="jas">
	<g>
		<path class="huid" d="M342,184l-62,57c0,0-7,9,0,11s21,5,22,7s4.45,5.87,4,9c-0.5,3.5,0,5,2,5s-5.5,4.5-5.5,6.5s0,13,0,13
			s-14,8-13,12s5,24,23,26s43,5,43,5l122-36c0,0,25.46,3.29,30.23-25.13c0.27-1.59-25.75-51.62-68.23-76.87
			c-36.08-21.45-89.66-18.83-89.66-18.83L342,184z"/>
		<g>
			<path class="donkerelijn" d="M340.94,182.94c-13.81,12.7-27.62,25.39-41.43,38.09c-6.48,5.96-13.15,11.77-19.47,17.9
				c-1.62,1.57-2.82,3.27-3.71,5.42c-2.51,6.12,0.93,8.5,6.48,9.96c3.75,0.99,7.53,1.89,11.25,2.97c4.37,1.26,6.53,1.92,8.83,5.96
				c1.58,2.77,1.19,4.44,1.44,7.28c0.08,0.92,0.22,1.93,0.83,2.67c0.51,0.62,1.1,0.99,1.88,1.19c0.07,0.01,0.13,0.02,0.2,0.03
				c-0.02-1.6-0.35-1.95-1.01-1.06c-0.5,0.05-1.65,1.39-1.99,1.7c-4.28,3.83-3.23,7.79-3.23,13.26c0,1.23-0.14,2.55,0,3.77
				c-0.04-0.37,1.45-0.67-0.21-0.31c-2.28,0.5-5.32,3.44-7.12,4.85c-3.2,2.52-6.29,5.09-5.34,9.4c1.09,4.97,3.01,9.97,5.78,14.24
				c9.25,14.24,27.44,12.74,42.47,14.5c5.92,0.69,12.5,2.37,18.48,2.19c1.16-0.04,2.14-0.38,3.28-0.71
				c7.24-2.14,14.47-4.27,21.71-6.41c23.51-6.94,47.03-13.88,70.54-20.82c7.86-2.32,15.73-4.64,23.59-6.96
				c0.91-0.27,1.83-0.6,2.76-0.82c0.22-0.05,1.46-0.31,0.59-0.23c2.3-0.21,4.61,0.11,6.95-0.23c11.51-1.65,20.04-9.52,23.44-20.56
				c1.27-4.12,1.63-5.98-0.12-9.56c-1.9-3.88-4.14-7.62-6.42-11.29c-17.47-28.11-41.91-55.72-72.8-69.07
				c-15.95-6.89-33.25-10.36-50.48-12.07c-6.36-0.63-12.74-1.01-19.13-1.12c-2.74-0.05-6.35-0.61-9.04,0.07
				c-3.06,0.77-6.06,3.76-8.68,5.54c-1.59,1.08-0.09,3.68,1.51,2.59c2.41-1.64,4.84-3.82,7.46-5.07c0.76-0.36-0.98,0.12,0.14-0.08
				c0.75-0.13,1.6-0.05,2.35-0.06c7.29-0.12,14.6,0.19,21.87,0.81c24.44,2.06,49.21,7.72,69.85,21.49
				c19.93,13.31,36.44,31.72,49.81,51.48c3.85,5.69,7.56,11.54,10.65,17.67c0.96,1.9,1.36,2.51,0.98,4.57
				c-0.95,5.16-3.31,10.36-6.9,14.21c-4.67,5.01-11.38,7.57-18.15,7.78c-1.89,0.06-3.31-0.1-5.1,0.36
				c-10.25,2.64-20.37,6.01-30.53,9.01c-28.33,8.36-56.67,16.72-85,25.08c-1.33,0.39-2.67,0.87-4.02,1.19
				c-1.2,0.28-0.64,0.2-1.29,0.19c-9.76-0.13-19.92-2.36-29.61-3.48c-6.19-0.71-13.3-0.57-19.05-3.17
				c-4.6-2.08-8.08-5.89-10.54-10.21c-1.84-3.22-3.11-6.72-4.06-10.29c-0.29-1.08-0.77-2.24-0.45-3.31
				c0.57-1.91,3.34-3.74,4.81-4.88c2.3-1.76,4.77-3.35,7.28-4.8c0.46-0.26,0.74-0.77,0.74-1.3c0-3.68-0.98-8.75,0-12.26
				c0.79-2.82,6.33-4.44,5.74-7.58c-0.09-0.49-0.58-0.94-1.05-1.05c-2.29-0.52-1.05-5.06-1.79-7.09c-0.82-2.22-2.43-5.44-4.23-7.01
				c-3.87-3.38-11.23-4.07-16.01-5.3c-3.22-0.83-9.38-1.36-7.83-6.06c0.4-1.21,2.06-3.87,2.28-4.13c1.1-1.23,2.49-2.29,3.7-3.4
				c14.77-13.58,29.54-27.15,44.3-40.73c4.65-4.27,9.3-8.55,13.95-12.82C344.49,183.75,342.36,181.63,340.94,182.94z"/>
		</g>
	</g>
	<path class="man2" d="M307.5,266.5c0,0,4-2,7,2s6,6,7,6s-13,5-15,3s2-4,2-4S305.5,266.5,307.5,266.5z"/>
	<path class="man3" d="M430.57,203.57c3.7,3.49,5.93,8,5.93,12.93c0,11.05-11.19,20-25,20c-0.7,0-1.39-0.03-2.07-0.07
		c4.59,4.33,11.42,7.07,19.07,7.07c13.81,0,25-8.95,25-20C453.5,213.01,443.41,204.42,430.57,203.57z"/>
	<path class="man3" d="M398.8,274.61c-10.94,3.82-22.34-0.37-25.48-9.35c-1.78-5.1-0.5-10.65,2.93-15.19
		c-5.71,5.02-8.31,12.36-5.98,19.02c3.23,9.25,14.71,13.66,25.65,9.84c5.89-2.06,10.39-6.08,12.82-10.79
		C406.21,270.91,402.82,273.21,398.8,274.61z"/>
	<path class="man3" d="M347,282c0,0-6.5-2.5-4-11s11.5-11.5,15-12s12.5-0.5,12.5-0.5s-15,4-19,8C342.5,276.5,347,282,347,282z"/>
	<path class="man3" d="M338,296c-2.5,2.5-15.5,0.5-12.5-12.5S340,272,344,274c-5,0-9.03,3.19-11.43,5.4
		c-2.37,2.18-3.71,5.33-3.38,8.54C329.5,291,332.25,295.25,338,296z"/>
	<path class="man3" d="M321.5,327.5c-1.5-0.5-16-14,4-24c-6-1-11-5-1-14c-13,0-10,15-7,16c-3,1-9.5,13.5-4,20
		S320.5,328.5,321.5,327.5z"/>
	<path class="donkerelijn" d="M318.5,327.5c-1.5-0.5-16-14,4-24c-6-1-11-5-1-14c-13,0-10,15-7,16c-3,1-9.5,13.5-4,20
		S317.5,328.5,318.5,327.5z"/>
	<path class="donkerelijn" d="M335,296c-2.5,2.5-15.5,0.5-12.5-12.5S337,272,341,274c-5,0-9.03,3.19-11.43,5.4
		c-2.37,2.18-3.71,5.33-3.38,8.54C326.5,291,329.25,295.25,335,296z"/>
	<path class="donkerelijn" d="M346,281c0,0-6.5-2.5-4-11s11.5-11.5,15-12s12.5-0.5,12.5-0.5s-15,4-19,8C341.5,275.5,346,281,346,281z"/>
	<path class="man3" d="M403,276"/>
	<path class="donkerelijn" d="M391.25,278.5c-11.18,0-20.25-7.39-20.25-16.5c0-5.18,2.93-9.79,7.51-12.82c-6.8,2.74-11.51,8.56-11.51,15.32
		c0,9.39,9.07,17,20.25,17c6.02,0,11.41-2.22,15.12-5.72C399.17,277.5,395.36,278.5,391.25,278.5z"/>
	<path class="man3" d="M400.56,251.56c-8.81,2.32-17.69-2.41-19.83-10.56c-2.14-8.15-9.3-7.86-6.71,2.02
		c2.6,9.88,12.71,15.79,22.59,13.19c4.98-1.31,8.95-4.53,11.33-8.67C405.94,249.38,403.43,250.8,400.56,251.56z"/>
	<path class="donkerelijn" d="M397,255c-9.11,0-16.5-6.83-16.5-15.25c0-8.42,7.39-15.25,16.5-15.25c2.52,0,4.9,0.54,7.04,1.47
		c-3.24-2.78-7.44-4.47-12.04-4.47c-10.22,0-18.5,8.28-18.5,18.5c0,10.22,8.28,18.5,18.5,18.5c5.15,0,9.81-2.11,13.16-5.51
		C402.75,254.26,399.97,255,397,255z"/>
	<path class="donkerelijn" d="M404,220c0-8.28,6.72-15,15-15c1.61,0,3.16,0.26,4.61,0.73c-2.44-1.71-5.4-2.73-8.61-2.73
		c-8.28,0-15,6.72-15,15c0,6.67,4.36,12.32,10.39,14.27C406.53,229.56,404,225.08,404,220z"/>
	<path class="donkerelijn" d="M443.98,207.32c4.65,3.62,7.52,8.64,7.52,14.18c0,11.05-11.42,20-25.5,20c-5.6,0-10.77-1.42-14.98-3.82
		c4.61,3.59,10.96,5.82,17.98,5.82c14.08,0,25.5-8.95,25.5-20C454.5,216.84,450.35,210.95,443.98,207.32z"/>
	<g>
		<g>
			<path class="stdonkerelijn1" d="M431.8,232.72c5,1,10,2,15,3c0.94,0.19,1.35-1.26,0.4-1.45c-5-1-10-2-15-3
				C431.26,231.09,430.85,232.53,431.8,232.72L431.8,232.72z"/>
		</g>
	</g>
	<g>
		<g>
			<path class="donkerelijn" d="M439.5,230.25c4,0.33,8,0.67,12,1c0.96,0.08,0.96-1.42,0-1.5c-4-0.33-8-0.67-12-1
				C438.54,228.67,438.54,230.17,439.5,230.25L439.5,230.25z"/>
		</g>
	</g>
	<g>
		<g>
			<path class="donkerelijn" d="M441.5,227.25c4,0.33,8,0.67,12,1c0.96,0.08,0.96-1.42,0-1.5c-4-0.33-8-0.67-12-1
				C440.54,225.67,440.54,227.17,441.5,227.25L441.5,227.25z"/>
		</g>
	</g>
	<path class="donkerelijn" d="M473.45,236.73c4.37,4.01,7.05,9.38,7.05,15.27c0,12.43-11.86,22.5-26.5,22.5c-5.77,0-11.1-1.57-15.45-4.23
		c4.84,4.44,11.76,7.23,19.45,7.23c14.64,0,26.5-10.07,26.5-22.5C484.5,247.47,480.14,240.81,473.45,236.73z"/>
	<path class="man4" d="M468,236l-6,16l6,1l-1,2l-6-1l-1,4l4,1l-1,2h-6v2l6,1v2l-11,3l-6,5l17,1l10-5c0,0,8-2,8,3s-1,10-6,12
		c-4.64,1.86-7,3-7,3l14,10c0,0,8.37,1.63,17-7c6-6,9-18,9-18l-19-27l-9.5-11.5L468,236z"/>
	<rect x="484" y="287" class="donkerelijn" width="15" height="1"/>
	<polygon class="donkerelijn" points="502.13,283.41 483,285 484.95,281.62 501.9,280.38 	"/>
	<rect x="491" y="276" transform="matrix(0.9923 -0.1237 0.1237 0.9923 -30.3823 63.665)" class="donkerelijn" width="13" height="1"/>
	<rect x="494" y="272" transform="matrix(0.9923 -0.1237 0.1237 0.9923 -29.876 63.8199)" class="donkerelijn" width="10" height="1"/>
	<path class="donkerelijn" d="M322.5,240.5c1,1-5.5,9.5-8.5,9.5c-2.5,0-6.39-0.69-7.62-0.93c-0.24-0.05-0.47-0.12-0.7-0.22
		c-1-0.46-4.19-1.85-6.69-1.85c-3,0-5,1-5,1s-1,1-1,0s2.01-1.86,4-2c2.19-0.16,5.14-0.91,8.5-0.5c3.62,0.44,7,2,8,2c2,0,4-3,4-3
		S321.5,239.5,322.5,240.5z"/>
	<g>
		<g>
			<path class="donkerelijn" d="M355,186.5c16.97,0.97,28.89,12.56,32.55,28.9c0.42,1.88,3.32,1.09,2.89-0.8
				c-3.96-17.67-17.15-30.05-35.45-31.1C353.07,183.39,353.08,186.39,355,186.5L355,186.5z"/>
		</g>
	</g>
	<path class="man5" d="M367.5,220.5c0,0-19,8-23,7s-5-3,0-3S367.5,220.5,367.5,220.5z"/>
	<path class="man5" d="M365,225c0,0-17,8-22,8s-6-1-3-2S365,225,365,225z"/>
	<path class="man5" d="M365,229c0,0,2,3,0,4s-23,9-24,9s-2-6,0-6S365,229,365,229z"/>
	<g>
		<defs>
			<rect id="SVGID_1_" x="578" y="655" width="170.5" height="180.5"/>
		</defs>
		<clipPath id="SVGID_2_">
			<use xlink:href="#SVGID_1_"  style="overflow:visible;"/>
		</clipPath>
		<g class="man6">
			<path class="man7" d="M703,682c0,0,31,53,48,62s-2,72-2,72l-164-11C585,805,704,734,703,682z"/>
			<g>
				<path class="donkerelijn" d="M701.7,682.76c10.47,17.88,21.94,35.89,35.77,51.36c3.32,3.71,6.89,7.43,11.08,10.18
					c4.05,2.65,6.04,5.18,7.11,10.05c2.57,11.64,0.15,24.68-2.06,36.18c-1.62,8.44-3.59,16.85-6.06,25.08
					c0.48-0.37,0.96-0.73,1.45-1.1c-47.97-3.22-95.94-6.44-143.91-9.65c-6.7-0.45-13.39-0.9-20.09-1.35c0.25,0.93,0.5,1.86,0.76,2.8
					c14.38-8.59,28.23-18.21,41.66-28.2c23.08-17.17,46.34-36.2,63.1-59.83c7.49-10.57,14.09-22.98,13.99-36.26
					c-0.02-1.93-3.02-1.93-3,0c0.1,11.78-5.47,22.77-11.9,32.33c-8.02,11.93-18.11,22.45-28.6,32.22
					c-19.24,17.92-40.52,33.67-62.47,48.1c-4.71,3.1-9.45,6.17-14.29,9.06c-1.33,0.8-0.69,2.7,0.76,2.8
					c47.97,3.22,95.94,6.44,143.91,9.65c6.7,0.45,13.39,0.9,20.09,1.35c0.66,0.04,1.27-0.5,1.45-1.1c5.46-18.17,10.74-38.93,8.85-58
					c-0.43-4.3-1.28-8.94-3.92-12.48c-2.5-3.34-6.79-5.05-9.87-7.86c-10.15-9.27-18.15-21.08-25.79-32.41
					c-5.37-7.98-10.57-16.1-15.43-24.4C703.32,679.58,700.73,681.09,701.7,682.76z"/>
			</g>
		</g>
	</g>
	<polygon class="man8" points="22,722 151,735 144,823 24,828 	"/>
	<g>
		<path class="man7" d="M144,823c0,0-121-74-119-134s14-94,58-107s104-28,137-88c29.42-53.5,191-64,238-54s67,72,100,101
			c19.95,17.53,81.18,33.5,108.39,41.92c12.09,3.74,22.62,11.33,29.94,21.65c11.24,15.86,21.51,46.12,11.67,81.43
			c-17,61-106,133-135,131S144,823,144,823z"/>
		<g>
			<path class="donkerelijn" d="M144.76,821.7c-15.16-9.28-29.67-19.82-43.63-30.81c-24.37-19.18-49.35-41.1-64.81-68.39
				c-3.45-6.09-6.36-12.53-8.12-19.32c-1.92-7.36-1.75-14.52-1.36-22.07c0.96-18.83,2.88-38.26,9.83-55.96
				c5.71-14.55,15.48-26.79,29.2-34.48c14.24-7.98,31.11-10.99,46.55-15.95c35.22-11.32,69.28-27.84,93.25-56.91
				c9.87-11.97,15.68-27.03,27.58-37.23c10.41-8.92,23.18-15.01,35.9-19.85c30.58-11.64,63.59-17.14,96.05-20.24
				c27.7-2.65,56.43-4.12,84.12-0.46c15.47,2.05,28.87,8.27,40.51,18.74c13.71,12.33,24.12,27.84,34.53,42.91
				c9.74,14.11,19.52,29.06,32.6,40.36c12.02,10.39,28.23,16.17,42.94,21.52c17.9,6.52,36.2,11.88,54.46,17.28
				c8.8,2.6,17.66,4.93,25.48,9.95c9.09,5.85,15.91,14.21,20.76,23.79c10.72,21.18,12.4,46.31,6.48,69.12
				c-4.54,17.51-13.94,33.51-24.54,48.01c-21.25,29.06-49.31,55.77-80.66,73.69c-8.77,5.02-18.92,10.45-29.32,10.05
				c-4.12-0.16-8.24-0.23-12.37-0.26c-42.46-0.3-84.94,0.57-127.39,1.19c-57.46,0.84-114.92,1.84-172.37,2.89
				c-36.98,0.68-73.96,1.37-110.94,2.1c-1.82,0.04-3.65,0.07-5.47,0.11c-1.93,0.04-1.93,3.04,0,3c27.85-0.56,55.7-1.09,83.55-1.61
				c57.39-1.07,114.78-2.09,172.17-2.99c49.04-0.77,98.09-1.63,147.14-1.72c6.27-0.01,12.54-0.01,18.8,0.09
				c4.92,0.08,9.79,0.58,14.64-0.45c12.76-2.72,24.73-10.29,35.37-17.52c15.1-10.27,29.1-22.23,41.98-35.16
				c26.69-26.8,52.33-60.29,55.47-99.29c1.62-20.2-2.55-41.6-13.4-58.89c-5.4-8.61-12.83-15.81-21.74-20.73
				c-7.46-4.11-15.8-6.18-23.92-8.58c-18.78-5.55-37.59-11.08-55.95-17.91c-16.23-6.03-32.6-12.71-44.83-25.34
				c-25.36-26.2-39.39-62.78-69.62-84.41c-21.99-15.74-51.05-15.21-76.97-14.82c-33.16,0.51-66.55,4-98.94,11.19
				c-27.23,6.05-58.18,14.6-79.03,34.27c-3.94,3.72-7.3,7.92-10.01,12.61c-5.75,9.98-12.13,19.41-19.92,27.93
				c-13.67,14.95-30.42,26.6-48.55,35.5c-16.33,8.02-33.62,13.79-51.02,18.99c-15.22,4.55-30.74,8.21-43.52,18.17
				c-27.69,21.58-31,61.15-32.14,93.56c-1.03,29.45,20.9,55.14,40.44,74.78c20.1,20.21,42.87,37.85,66.46,53.79
				c4.21,2.85,8.45,5.67,12.79,8.32C144.89,825.31,146.4,822.71,144.76,821.7z"/>
		</g>
	</g>
	<g>
		<path class="man9" d="M214,778c0,0,92-39,169-58s161.52-128.13,112-233c-17-36-33-43-33-43l-2-115l18-25c0,0-19-18-58-18
			s-79,14-79,14s-15,37-22,38s-33-13-33-13s22,13,24,20s4,120,4,120s-59,16-91,73S152,680,214,778z"/>
		<g>
			<path class="donkerelijn" d="M214.76,779.3c42.44-17.98,87.82-34.48,132.55-47.91c14.89-4.47,30.27-7.61,45-12.52
				c12.05-4.01,23.48-9.83,34.08-16.78c23.46-15.39,43.32-36.31,58.07-60.13c15.43-24.9,25.26-53.46,26.65-82.82
				c1.54-32.54-7.86-65.14-25.57-92.42c-5.2-8.01-11.29-15.98-19.07-21.66c-1.04-0.76-2.38-1.97-3.66-2.31
				c1.31,0.35,0.11,1.73,0.68,0.72c0.2-0.37-0.03-1.47-0.03-1.89c-0.27-15.54-0.54-31.07-0.81-46.61
				c-0.32-18.43-0.64-36.86-0.96-55.3c-0.06-3.18-0.92-7.51-0.19-10.64c-0.35,1.5,0.65-0.45,1.03-0.97c1.2-1.67,2.4-3.34,3.6-5.01
				c2.86-3.97,5.72-7.94,8.58-11.91c1.53-2.12,3.06-4.24,4.58-6.37c0.37-0.52,0.22-1.4-0.23-1.82
				c-7.32-6.86-17.66-11.13-27.09-13.96c-23.6-7.1-49.03-4.77-72.9-0.3c-10.07,1.89-20.06,4.28-29.89,7.18
				c-2.85,0.84-7.76,1.35-9.64,3.78c-0.81,1.05-1.2,2.88-1.71,4.08c-1.24,2.89-2.52,5.77-3.85,8.62
				c-3.15,6.79-6.41,13.85-10.83,19.93c-1.91,2.63-3.33,4.63-6.72,4.11c-4.21-0.65-8.43-2.57-12.31-4.24
				c-5.9-2.54-11.7-5.39-17.36-8.43c-1.7-0.91-3.18,1.6-1.51,2.59c4.01,2.38,7.92,4.96,11.69,7.69c4,2.9,10.47,6.93,11.76,12.08
				c1.77,7.05,1.08,15.51,1.36,22.71c0.99,25.5,1.54,51.02,2.07,76.53c0.14,6.56,0.27,13.13,0.38,19.69
				c0.37-0.48,0.73-0.96,1.1-1.45c-10.71,2.93-21.11,8.02-30.72,13.46c-21.63,12.24-40.69,29.09-54.66,49.7
				c-13.89,20.49-24.98,44.09-33.65,67.22c-9.62,25.68-15.42,52.94-14.89,80.46c0.71,37.36,13.3,72.89,33.03,104.36
				c1.02,1.63,3.62,0.13,2.59-1.51c-17.82-28.42-29.96-60.22-32.24-93.86c-1.84-27.11,2.64-54.17,11.27-79.84
				c7.6-22.6,18.24-44.07,29.97-64.78c12.97-22.91,31.87-41.85,54.21-55.67c11.07-6.85,23.26-13.19,35.89-16.64
				c0.63-0.17,1.11-0.79,1.1-1.45c-0.33-18.44-0.73-36.88-1.2-55.32c-0.35-13.64-0.72-27.27-1.25-40.9
				c-0.29-7.54,0.17-15.87-1.43-23.29c-1.11-5.13-6.32-8.86-10.22-11.88c-4.66-3.6-9.58-6.9-14.64-9.9
				c-0.5,0.86-1.01,1.73-1.51,2.59c4.7,2.53,9.51,4.89,14.37,7.1c5.36,2.43,12.78,6.66,18.89,6.15c4.58-0.38,7.52-5.97,9.63-9.44
				c3.99-6.54,7.26-13.55,10.38-20.54c1.03-2.3,2.02-4.6,3-6.92c0.27-0.63,0.66-1.31,0.83-1.98c0.07-0.28-1.47,0.6-0.48,0.62
				c1.64,0.03,4.02-1.31,5.61-1.79c4.05-1.23,8.12-2.37,12.21-3.43c25-6.45,52.24-11.29,78.01-7.26
				c13.37,2.09,29.07,6.7,39.25,16.24c-0.08-0.61-0.16-1.21-0.23-1.82c-2.71,3.77-5.43,7.54-8.14,11.3
				c-2.97,4.13-7.5,8.63-9.57,13.29c-0.6,1.34-0.47,2.41-0.45,3.93c0.07,3.81,0.13,7.63,0.2,11.44c0.45,26.11,0.91,52.23,1.36,78.34
				c0.13,7.48,0.26,14.97,0.39,22.45c0.01,0.49,0.27,1.08,0.74,1.3c7.3,3.27,13.3,11.1,17.84,17.3
				c12.82,17.5,21.8,38.41,26.18,59.62c8.18,39.63-1.07,80.71-21.54,115.18c-18.47,31.11-46.11,58.21-79.18,73.41
				c-17.38,7.99-36.6,11.33-54.86,16.74c-20.61,6.11-41.01,12.92-61.26,20.14c-25.28,9.02-50.45,18.54-75.17,29.02
				C211.47,777.46,213,780.04,214.76,779.3z"/>
		</g>
	</g>
	<g>
		<path class="man10" d="M501.5,499.5c0,0,39.5,106.5-68.5,173.5s-179,53-219,105c3,33,13,38,13,38l188-8
			C415,808,600.5,651.5,501.5,499.5z"/>
		<g>
			<path class="donkerelijn" d="M500.05,499.9c6.78,18.36,8.11,39.65,6.41,58.94c-4.14,47.05-32.25,85.95-71.42,111.1
				c-26.95,17.3-56.04,31.38-86,42.6c-22,8.24-44.57,14.68-66.84,22.08c-17.51,5.82-35.18,12.49-50.12,23.58
				c-3.32,2.46-6.5,5.12-9.49,7.98c-3.08,2.95-7.32,6.56-9.33,10.36c-2.1,3.97,0.5,12.21,1.4,16.6c1,4.85,2.32,9.67,4.33,14.21
				c1.33,3,3.68,8.35,7.04,9.82c1.23,0.54,2.59,0.27,3.93,0.21c10.28-0.44,20.56-0.87,30.83-1.31c34.66-1.48,69.33-2.95,103.99-4.43
				c13.18-0.56,26.35-1.12,39.53-1.68c3.6-0.15,9.21,0.75,12.29-1.36c5.6-3.83,10.53-9.61,15.31-14.36
				c10.1-10.06,19.7-20.62,28.78-31.62c24.88-30.15,46.33-63.88,59.33-100.91c14.81-42.19,16.74-88.18-0.07-130.11
				c-4.61-11.5-10.42-22.45-17.15-32.85c-1.04-1.62-3.64-0.11-2.59,1.51c26.12,40.42,34.73,87.83,24.33,134.81
				c-8.82,39.81-28.89,76.48-53.07,108.98c-15.73,21.15-33.46,41.06-52.95,58.83c-1.43,1.3-2.85,2.64-4.34,3.86
				c-0.74,0.61,1.51-0.23,0.49-0.23c-0.83,0.01-1.65,0.07-2.48,0.11c-9.93,0.42-19.86,0.85-29.8,1.27
				c-33.85,1.44-67.7,2.88-101.55,4.32c-13.6,0.58-27.21,1.16-40.81,1.74c-3.57,0.15-7.14,0.3-10.71,0.46
				c-0.66,0.03-1.48,0.19-2.13,0.09c0.52,0.08,0.53,0.41-0.2-0.36c-4.67-4.9-6.92-11.39-8.54-17.88c-0.75-3-1.34-6.05-1.82-9.1
				c-0.6-3.86-1.92-7.75,0.68-10.88c2.84-3.42,5.9-6.64,9.19-9.63c13.61-12.36,30.56-19.99,47.7-26.1
				c20.99-7.49,42.51-13.37,63.55-20.73c27.14-9.49,53.49-21.07,78.55-35.18c24.29-13.68,47.22-29.43,64.4-51.72
				c12.14-15.74,20.91-33.92,25.47-53.28c5.85-24.86,5.29-51.89-1.9-76.45c-0.4-1.37-0.81-2.75-1.31-4.09
				C502.28,497.31,499.38,498.08,500.05,499.9z"/>
		</g>
	</g>
	<g>
		<g>
			<path class="donkerelijn" d="M472.6,739.55c-26.35,10.3-54.46,17.48-82.37,21.86c-11.37,1.79-22.85,3-34.36,3.36
				c-12.29,0.38-24.51-0.7-36.77-1.32c-19.41-0.98-39.12-1.7-58.42,1.03c-16.57,2.34-32.1,7.97-45.44,18.22
				c-1.51,1.16-0.02,3.77,1.51,2.59c28.2-21.68,65.17-20.57,98.98-19c11.79,0.55,23.57,1.69,35.38,1.58
				c11.27-0.11,22.53-1.1,33.69-2.64c19.82-2.74,39.38-7.22,58.58-12.83c10.1-2.95,20.21-6.12,30.02-9.95
				C475.18,741.75,474.4,738.85,472.6,739.55L472.6,739.55z"/>
		</g>
	</g>
	<path class="man11" d="M462.5,322.5c0,0-22-7-26-5s12-18,6-26s35,7,34,13S462.5,322.5,462.5,322.5z"/>
	<path class="man11" d="M462,330l-33,8c0,0-3,11-12,14s9,2,9,2s-5,7-10,7s10,3,10,3s-1,9-8,11s8,3,8,3s1,13-7,14s8,0,8,0s1,10-6,11
		c-3.85,0.55-1.95,2.01,0.53,3.21c2.73,1.32,4.56,3.98,4.7,7.01l0.37,8.19c0.25,5.57-1.37,11.06-4.61,15.59l0,0c0,0-19,7-18,10
		s5,2,20-4s-5,17-5,17s-4,3,3,2s49-10,53-6s-14-13-14-13L462,330z"/>
	<path class="man11" d="M485,469c0,0-18,6-27,1s-20,1-29-6c-2-3,5-2,11-2s38-3,38-3L485,469z"/>
	<g>
		<g>
			<polygon class="man12" points="313.17,499.45 324,485 314.83,500.55 			"/>
		</g>
		<g>
			<g>
				<g>
					<path class="man12" d="M230.06,556.06c10.12-9.23,21.09-17.64,32.15-25.7c23.95-17.44,49.51-33.03,76.75-44.78
						c17.13-7.39,35-13.13,53.44-16.14c1.9-0.31,1.09-3.2-0.8-2.89c-32.23,5.25-62.69,18.75-90.8,35.01
						c-21.67,12.54-42.3,26.99-61.68,42.84c-3.79,3.1-7.57,6.23-11.19,9.53C226.51,555.24,228.64,557.36,230.06,556.06
						L230.06,556.06z"/>
				</g>
			</g>
			<g>
				<polygon class="man12" points="249.6,542.46 258,525 252.4,543.54 				"/>
			</g>
			<g>
				<polygon class="man12" points="266.64,530.36 277,512 269.36,531.64 				"/>
			</g>
			<g>
				<polygon class="man12" points="280.69,519.27 292,502 283.31,520.73 				"/>
			</g>
			<path class="man13" d="M229,558c0,0,81-74,163-87"/>
			<g>
				<polygon class="donkerelijn" points="250.07,545.64 258,528 251.93,546.36 				"/>
			</g>
			<g>
				<polygon class="donkerelijn" points="267.1,533.57 277,515 268.9,534.43 				"/>
			</g>
			<g>
				<polygon class="donkerelijn" points="281.13,522.51 292,505 282.87,523.49 				"/>
			</g>
		</g>
		<g>
			<polygon class="donkerelijn" points="313.17,502.45 324,488 314.83,503.55 			"/>
		</g>
	</g>
	<g>
		<g>
			<path class="man12" d="M269.56,644.56c11.62-9.09,26.23-14.58,40.14-18.98c25.16-7.95,51.52-11.97,77.79-13.96
				c20.47-1.55,41.01-1.78,61.52-1.12c1.93,0.06,1.93-2.94,0-3c-34.01-1.09-68.25,0.21-101.82,6.05c-21.04,3.66-42.16,9-61.56,18.09
				c-6.39,2.99-12.61,6.44-18.18,10.8C265.92,643.63,268.06,645.74,269.56,644.56L269.56,644.56z"/>
		</g>
	</g>
	<g>
		<g>
			<path class="donkerelijn" d="M269.56,646.56c11.62-9.09,26.23-14.58,40.14-18.98c25.16-7.95,51.52-11.97,77.79-13.96
				c20.47-1.55,41.01-1.78,61.52-1.12c1.93,0.06,1.93-2.94,0-3c-34.01-1.09-68.25,0.21-101.82,6.05c-21.04,3.66-42.16,9-61.56,18.09
				c-6.39,2.99-12.61,6.44-18.18,10.8C265.92,645.63,268.06,647.74,269.56,646.56L269.56,646.56z"/>
		</g>
	</g>
	<path class="man14" d="M349.5,347.5c0,0,58-34,103-32"/>
	<path class="man14" d="M391.5,347.5c0,0,35-12,49-11"/>
	<g>
		<g>
			<path class="man15" d="M389.8,728.89c13-3.26,25.8-7.75,38.2-12.81c20.26-8.27,41.95-18.71,56.13-35.96
				c2.43-2.96-1.79-7.23-4.24-4.24c-13.98,17.01-35.57,27.28-55.62,35.28c-11.73,4.68-23.8,8.87-36.06,11.95
				C384.46,724.05,386.05,729.83,389.8,728.89L389.8,728.89z"/>
		</g>
	</g>
	<g>
		<g>
			<path class="man15" d="M659.38,300.38c-10.03,12.55-27.83,19.77-42.73,23.84c-17.72,4.84-36.39,5.65-54.62,7.16
				c-16.57,1.37-33.15,2.55-49.75,3.6c-8.59,0.55-17.18,1.07-25.78,1.52c-3.84,0.2-3.87,6.2,0,6c24.07-1.25,48.12-2.9,72.14-4.84
				c31.44-2.55,64.64-3.79,91.76-21.86c4.69-3.13,9.66-6.73,13.22-11.18C666.01,301.63,661.79,297.36,659.38,300.38L659.38,300.38z"
				/>
		</g>
	</g>
	<g>
		<g>
			<path class="man15" d="M476.91,707.99c-0.17,0.24-0.54,0.58,0.24-0.3c-0.26,0.29-0.48,0.61-0.75,0.89
				c-0.95,1.01-1.93,1.99-2.98,2.91c-4.04,3.55-9.06,6.62-14.13,9.27c-23.26,12.16-50.33,17.22-76.12,20.31
				c-27.08,3.25-54.42,3.94-81.66,3.43c-3.86-0.07-3.86,5.93,0,6c42.27,0.8,85.8-0.76,126.86-11.81
				c16.87-4.54,34.67-10.77,48.3-22.11c1.97-1.64,3.97-3.44,5.43-5.57C484.28,707.83,479.09,704.82,476.91,707.99L476.91,707.99z"/>
		</g>
	</g>
	<g>
		<g>
			<path class="donkerelijn" d="M215.95,779.4c2.77-10.18,14.22-16.66,22.78-21.39c13.84-7.64,28.72-13.35,43.53-18.8
				c15.93-5.86,32.42-10.58,48.07-17.14c7.33-3.07,14.37-6.73,21.52-10.19c6.93-3.36,14.03-5.83,21.26-8.41
				c49.15-17.52,98.23-49.42,123.19-96.65c12.01-22.72,17.21-48.44,14.09-74c-3.39-27.77-15.48-57.13-34.15-78.15
				c-2.49-2.8-5.17-5.45-8.13-7.77c-0.86-0.67-3.26-3.06-4.47-3.02c-0.95,0.03,0.48,0.37,0.35,1c0.08-0.35-0.08-0.76-0.02-1.12
				c0.28-1.73-0.07-3.79-0.1-5.54c-0.29-16.41-0.57-32.83-0.86-49.24c-0.29-16.89-0.59-33.77-0.88-50.66
				c-0.04-2.11-0.03-4.23-0.11-6.34c-0.02-0.48-0.08-1.04-0.03-1.52c0.13-1.07-0.3,0.55-0.06,0.07c1.27-2.55,3.55-4.93,5.21-7.23
				c2.77-3.85,5.54-7.69,8.31-11.54c1.44-2,2.89-4.01,4.33-6.01c0.37-0.52,0.22-1.4-0.23-1.82c-7.32-6.86-17.66-11.13-27.09-13.96
				c-23.6-7.1-49.03-4.77-72.9-0.3c-10.07,1.89-20.06,4.28-29.89,7.18c-2.85,0.84-7.76,1.35-9.64,3.78
				c-0.81,1.05-1.2,2.88-1.71,4.08c-1.24,2.89-2.52,5.77-3.85,8.62c-3.15,6.79-6.41,13.85-10.83,19.93
				c-1.91,2.63-3.33,4.63-6.72,4.11c-4.21-0.65-8.43-2.57-12.31-4.24c-5.9-2.54-11.7-5.39-17.36-8.43c-1.7-0.91-3.18,1.6-1.51,2.59
				c4.01,2.38,7.92,4.96,11.69,7.69c4,2.9,10.47,6.93,11.76,12.08c1.77,7.05,1.08,15.51,1.36,22.71c0.99,25.5,1.54,51.02,2.07,76.53
				c0.14,6.56,0.27,13.13,0.38,19.69c0.37-0.48,0.73-0.96,1.1-1.45c-11.2,3.06-22.06,8.45-32.06,14.22
				c-22.18,12.8-41.58,30.51-55.43,52.12c-13.05,20.36-24.12,42.92-32.71,65.49c-9.53,25.05-15.21,51.64-14.59,78.53
				c0.86,37.58,14.11,73.21,33.89,104.84c1.02,1.63,3.62,0.13,2.59-1.51c-17.8-28.46-30.45-60.21-33.02-93.91
				c-2.03-26.74,2.32-53.43,10.97-78.72c7.65-22.35,18.47-43.38,29.98-63.95c12.99-23.23,31.4-42.5,53.89-56.71
				c11.45-7.23,24.13-13.92,37.28-17.51c0.63-0.17,1.11-0.79,1.1-1.45c-0.33-18.44-0.73-36.88-1.2-55.32
				c-0.35-13.64-0.72-27.27-1.25-40.9c-0.29-7.54,0.17-15.87-1.43-23.29c-1.11-5.13-6.32-8.86-10.22-11.88
				c-4.66-3.6-9.58-6.9-14.64-9.9c-0.5,0.86-1.01,1.73-1.51,2.59c4.7,2.53,9.51,4.89,14.37,7.1c5.36,2.43,12.78,6.66,18.89,6.15
				c4.58-0.38,7.52-5.97,9.63-9.44c3.99-6.54,7.26-13.55,10.38-20.54c1.03-2.3,2.02-4.6,3-6.92c0.27-0.63,0.66-1.31,0.83-1.98
				c0.07-0.28-1.47,0.6-0.48,0.62c1.64,0.03,4.02-1.31,5.61-1.79c4.05-1.23,8.12-2.37,12.21-3.43c25-6.45,52.24-11.29,78.01-7.26
				c13.37,2.09,29.07,6.7,39.25,16.24c-0.08-0.61-0.16-1.21-0.23-1.82c-2.71,3.77-5.43,7.54-8.14,11.3
				c-2.97,4.13-7.5,8.63-9.57,13.29c-0.6,1.34-0.47,2.41-0.45,3.93c0.07,3.81,0.13,7.63,0.2,11.44c0.45,26.11,0.91,52.23,1.36,78.34
				c0.13,7.48,0.26,14.97,0.39,22.45c0.01,0.49,0.27,1.08,0.74,1.3c6.21,2.78,11.4,9.07,15.5,14.23
				c12.47,15.69,21.44,35.02,26.61,54.31c9.04,33.73,3.55,68.69-14.64,98.39c-18.05,29.46-45.81,52.17-75.75,68.79
				c-15.67,8.7-32.09,15.46-49.03,21.26c-8.71,2.98-16.82,7.43-25.09,11.43c-10.33,4.99-21.04,8.66-31.86,12.4
				c-21.24,7.35-42.74,14.6-62.95,24.52c-11.37,5.58-27.82,13.53-31.48,26.98C212.55,780.47,215.44,781.26,215.95,779.4z"/>
		</g>
	</g>
	<path class="man16" d="M355.61,195.5c-1,4-9,19-19,18c6,4,18,2,26,1c-4,4-17,5-21,4c1-1,2-1,1-3"/>
</g>
<g id="groene_v">
	<path class="man17" d="M632.27,542.58c14.59-36.63,35.36-3.9,45.47-2.05c5.48,0-5.12-47.95,45.47-47.95"/>
	<path class="man18" d="M636.27,546.58c14.59-36.63,35.36-3.9,45.47-2.05c5.48,0-5.12-47.95,45.47-47.95"/>
</g>
<g id="groene_strepen_bij_v">
	<path class="man19" d="M621.8,557.41c10.36-1.74,17.76-2.63,22.2-2.68c10.39-0.11,19,1.76,25.82,5.63"/>
	<path class="st20" d="M623.8,560.41c10.36-1.74,17.76-2.63,22.2-2.68c10.39-0.11,19,1.76,25.82,5.63"/>
</g>
</svg>
