<?xml version="1.0" encoding="utf-8"?>
<!-- Generator: Adobe Illustrator 23.0.3, SVG Export Plug-In . SVG Version: 6.00 Build 0)  -->
<svg version="1.1" xmlns="http://www.w3.org/2000/svg" xmlns:xlink="http://www.w3.org/1999/xlink" x="0px" y="0px"
	 viewBox="0 0 755 1034" style="enable-background:new 0 0 755 1034;" xml:space="preserve">
<style type="text/css">
	.st0{fill:#FEFEF1;}
	.st1{fill:#54544C;}
	.st2{fill:#DDE3D4;}
	.st3{fill:none;stroke:#54544C;stroke-width:2;stroke-miterlimit:10;}
	.st4{fill:none;stroke:#54544C;stroke-miterlimit:10;}
	.st5{fill:#9C7862;}
	.st6{fill:#7C7C6F;}
	.st7{fill:#E7DBCC;}
	.st8{fill:#CFC3B6;stroke:#54544C;stroke-miterlimit:10;}
	.st9{fill:#92846E;}
	.st10{fill:#918171;}
	.st11{fill:#54544C;stroke:#54544C;stroke-miterlimit:10;}
	.st12{fill:#A7947D;}
	.st13{clip-path:url(#SVGID_2_);}
	.st14{fill:#9C7862;stroke:#54544C;stroke-width:2;stroke-miterlimit:10;}
	.st15{fill:#477162;}
	.st16{fill:#A19B85;}
	.st17{fill:#989A83;}
	.st18{fill:#95BBA7;}
	.st19{fill:#535B4A;}
	.st20{clip-path:url(#SVGID_4_);}
	.st21{clip-path:url(#SVGID_6_);fill:#F4E0DB;}
	.st22{fill:#F4E0DB;}
	.st23{clip-path:url(#SVGID_8_);}
	.st24{clip-path:url(#SVGID_10_);fill:#F4E0DB;}
	.st25{clip-path:url(#SVGID_12_);}
	.st26{clip-path:url(#SVGID_14_);fill:#79A693;}
	.st27{fill:none;stroke:#4D6658;stroke-width:15;stroke-miterlimit:10;}
	.st28{fill:none;stroke:#86A798;stroke-width:15;stroke-miterlimit:10;}
	.st29{fill:none;stroke:#4D6658;stroke-width:6;stroke-linecap:round;stroke-miterlimit:10;}
	.st30{fill:none;stroke:#86A798;stroke-width:6;stroke-linecap:round;stroke-miterlimit:10;}
	.st31{clip-path:url(#SVGID_16_);}
	.st32{clip-path:url(#SVGID_18_);fill:#F4E0DB;}
	.st33{clip-path:url(#SVGID_20_);}
	.st34{clip-path:url(#SVGID_22_);fill:#F8D8D9;}
	.st35{clip-path:url(#SVGID_24_);}
	.st36{clip-path:url(#SVGID_26_);fill:#717D6B;}
	.st37{clip-path:url(#SVGID_28_);}
	.st38{clip-path:url(#SVGID_30_);fill:#5B5047;}
	.st39{clip-path:url(#SVGID_32_);}
	.st40{clip-path:url(#SVGID_34_);fill:#5B5047;}
	.st41{clip-path:url(#SVGID_36_);}
	.st42{clip-path:url(#SVGID_38_);fill:#5B5047;}
	.st43{clip-path:url(#SVGID_40_);}
	.st44{clip-path:url(#SVGID_42_);fill:#7B8774;}
	.st45{clip-path:url(#SVGID_44_);}
	.st46{clip-path:url(#SVGID_46_);fill:#7B8774;}
	.st47{fill:none;stroke:#BBC1AE;stroke-width:2;stroke-linecap:round;stroke-miterlimit:10;}
	.st48{clip-path:url(#SVGID_48_);}
	.st49{clip-path:url(#SVGID_50_);fill:#7B8774;}
	.st50{clip-path:url(#SVGID_52_);}
	.st51{clip-path:url(#SVGID_54_);fill:#BFC6AE;}
	.st52{fill:#5B5047;}
	.st53{fill:#7B8774;stroke:#5B5047;stroke-miterlimit:10;}
	.st54{clip-path:url(#SVGID_58_);}
	.st55{clip-path:url(#SVGID_60_);fill:#F8D8D9;}
	.st56{clip-path:url(#SVGID_62_);}
	.st57{clip-path:url(#SVGID_64_);fill:#F8D8D9;}
	.st58{clip-path:url(#SVGID_66_);}
	.st59{clip-path:url(#SVGID_68_);fill:#5B5047;}
	.st60{clip-path:url(#SVGID_70_);}
	.st61{clip-path:url(#SVGID_72_);fill:#5B5047;}
	.st62{clip-path:url(#SVGID_74_);}
	.st63{clip-path:url(#SVGID_76_);fill:#5B5047;}
	.st64{clip-path:url(#SVGID_78_);}
	.st65{clip-path:url(#SVGID_80_);fill:#5B5047;}
	.st66{clip-path:url(#SVGID_82_);}
	.st67{clip-path:url(#SVGID_84_);fill:#5B5047;}
	.st68{fill:#F8D8D9;stroke:#5B5047;stroke-width:0.5;stroke-miterlimit:10;}
	.st69{clip-path:url(#SVGID_86_);}
	.st70{clip-path:url(#SVGID_88_);fill:#F8D8D9;}
	.st71{clip-path:url(#SVGID_90_);}
	.st72{clip-path:url(#SVGID_92_);fill:#7B8774;}
	.st73{clip-path:url(#SVGID_94_);}
	.st74{clip-path:url(#SVGID_96_);fill:#7B8774;}
	.st75{clip-path:url(#SVGID_98_);}
	.st76{clip-path:url(#SVGID_100_);fill:#7B8774;}
	.st77{fill:none;stroke:#BFC6AE;stroke-linecap:round;stroke-miterlimit:10;}
	.st78{clip-path:url(#SVGID_102_);}
	.st79{clip-path:url(#SVGID_104_);fill:#5B5047;}
	.st80{fill:#555044;}
	.st81{font-family:'NewYorker';}
	.st82{font-size:110px;}
	.st83{letter-spacing:-6;}
	.st84{font-size:44px;}
	.st85{fill:#514E44;}
	.st86{font-family:'Baskerville-Italic';}
	.st87{font-size:28px;}
	.st88{font-size:18.8958px;}
	.st89{letter-spacing:-0.65;}
</style>
<g id="Layer_1">
</g>
<g id="achtergrond">
	<rect x="30" y="2" class="st0" width="724.05" height="1024"/>
</g>
<g id="oog_ding">
	<g>
		<g>
			<path class="st1" d="M252.88,420.06c-1.08,5.71-2.6,11.39-5.25,16.59c-1.49,2.92-4.18,8.09-7.92,8.43
				c-9.34,0.85-6.45-23.48-5.65-28.07c0.96-5.47,2.49-10.96,4.94-15.96c1.48-3.02,4.04-8.19,7.72-9
				C256.48,389.92,253.57,415.85,252.88,420.06c-0.31,1.89,2.58,2.7,2.89,0.8c1.24-7.53,1.93-15.6-0.1-23.07
				c-0.99-3.63-3-8.24-7.24-8.8c-3.86-0.51-7.01,2.73-9.08,5.57c-4.53,6.21-6.87,14.19-8.19,21.66c-1.32,7.48-1.92,15.65,0.1,23.07
				c0.95,3.49,2.85,7.95,6.84,8.75c4.01,0.8,7.34-2.59,9.48-5.51c4.57-6.25,6.77-14.17,8.19-21.66
				C256.13,418.97,253.24,418.17,252.88,420.06z"/>
		</g>
	</g>
	<g>
		<g>
			<path class="st1" d="M249.1,391.95c4.23,1.11,5.84,6.84,6.65,10.55c1.4,6.34,1.05,13.01-0.21,19.34
				c-1.17,5.9-5.34,24.09-14.04,23.26c-1.92-0.18-1.91,2.82,0,3c11.15,1.06,15.97-19.74,17.27-27.23c1.46-8.4,2.54-28.82-8.88-31.81
				C248.03,388.57,247.23,391.46,249.1,391.95L249.1,391.95z"/>
		</g>
	</g>
</g>
<g id="hand">
	<g>
		<g>
			<path class="st1" d="M225,467c1.5-1.5,3.5-11.5,1.5-16.5c5.5,3.5,21,3,23,3s9-1,15.5-7.5s-27.05-6.02-36-9
				c-7.5-2.5-14.5-1.5-17,5c-2.54,6.6-5.5,19.5-9,22s-13.5,3.5-26,8s-10.5,10.5-10,12c-9.5,3.5-10.5,12.5-10.5,12.5s-19-3-9.5,30.5
				c2.19,13.75,1.52,25.09,2.5,33.5c1.48,12.69,4.59,19.78,10,27c-6-6-11-17-28.5-14.5c-16,4-19.5,19.5-19.5,19.5s-16-6-18.5,2.5
				c-1.26,4.29,46,2,46,2h51c0,0,22-31,27-31s27-45,27-77s9.5-31.5,9-34c-8.5-1.5-12.5-2.5-17.5-0.5s-9,16-8,20
				C225.5,472.5,223.5,468.5,225,467z"/>
			<path class="st1" d="M219,467c1.5-1.5,3.5-11.5,1.5-16.5c5.5,3.5,21,3,23,3s9-1,15.5-7.5s-27.05-6.02-36-9
				c-7.5-2.5-14.5-1.5-17,5c-2.54,6.6-5.5,19.5-9,22s-13.5,3.5-26,8s-10.5,10.5-10,12c-9.5,3.5-10.5,12.5-10.5,12.5s-19-3-9.5,30.5
				c2.19,13.75,1.52,25.09,2.5,33.5c1.48,12.69,4.59,19.78,10,27c-6-6-11-17-28.5-14.5c-16,4-19.5,19.5-19.5,19.5s-16-6-18.5,2.5
				c-1.26,4.29,46,2,46,2h51c0,0,22-31,27-31s27-45,27-77s9.5-31.5,9-34c-8.5-1.5-12.5-2.5-17.5-0.5s-9,16-8,20
				C219.5,472.5,217.5,468.5,219,467z"/>
			<g>
				<path class="st2" d="M222,467c1.5-1.5,3.5-11.5,1.5-16.5c5.5,3.5,21,3,23,3s9-1,15.5-7.5s-27.05-6.02-36-9
					c-7.5-2.5-14.5-1.5-17,5c-2.54,6.6-5.5,19.5-9,22s-13.5,3.5-26,8s-10.5,10.5-10,12c-9.5,3.5-10.5,12.5-10.5,12.5s-19-3-9.5,30.5
					c2.19,13.75,1.52,25.09,2.5,33.5c1.48,12.69,4.59,19.78,10,27c-6-6-11-17-28.5-14.5c-16,4-19.5,19.5-19.5,19.5s-16-6-18.5,2.5
					c-1.26,4.29,46,2,46,2h51c0,0,22-31,27-31s27-45,27-77s9.5-31.5,9-34c-8.5-1.5-12.5-2.5-17.5-0.5s-9,16-8,20
					C222.5,472.5,220.5,468.5,222,467z"/>
				<path class="st3" d="M222,467c1.5-1.5,3.5-11.5,1.5-16.5c5.5,3.5,21,3,23,3s9-1,15.5-7.5s-27.05-6.02-36-9
					c-7.5-2.5-14.5-1.5-17,5c-2.54,6.6-5.5,19.5-9,22s-13.5,3.5-26,8s-10.5,10.5-10,12c-9.5,3.5-10.5,12.5-10.5,12.5s-19-3-9.5,30.5
					c2.19,13.75,1.52,25.09,2.5,33.5c1.48,12.69,4.59,19.78,10,27c-6-6-11-17-28.5-14.5c-16,4-19.5,19.5-19.5,19.5s-16-6-18.5,2.5
					c-1.26,4.29,46,2,46,2h51c0,0,22-31,27-31s27-45,27-77s9.5-31.5,9-34c-8.5-1.5-12.5-2.5-17.5-0.5s-9,16-8,20
					C222.5,472.5,220.5,468.5,222,467z"/>
			</g>
			<path class="st4" d="M153.5,496.5c11.5,0.5,24.42-8.07,30-9c6-1,12,8,10.5,16.5s0.5,13.5,3,17s2,10-7,6s-10.5-16.5-9.5-21.5
				c-5,5-10,1-10,1s-1,9-10,7"/>
			<path class="st4" d="M153.5,497.5c11.5,0.5,24.42-8.07,30-9c6-1,12,8,10.5,16.5s0.5,13.5,3,17s2,10-7,6s-10.5-16.5-9.5-21.5
				c-5,5-10,1-10,1s-1,9-10,7"/>
			<path class="st1" d="M180,508c0,0-2.5,11.5,6.5,22.5c4.11,5.03,8.06,14.94,7,23c-1.25,9.57-7,15-8,17c2-1,12-11,12-21
				c0-17-6-21-7-23C191,526,183,533,180,508z"/>
			<path class="st4" d="M164.5,483.5c16-2,26.5-6.5,30.5-8.5s8-3,10,2s3.5,9.5,5,12s1,8-2,9s-5,13-5,13s-1.5,6.5-8.5,6.5"/>
			<path class="st4" d="M164.5,484.5c16-2,26.5-6.5,30.5-8.5s8-3,10,2s3.5,9.5,5,12s1,8-2,9s-5,13-5,13s-0.5,5.5-7.5,5.5"/>
			<g>
				<g>
					<path class="st1" d="M199.7,465.22c2.5-0.8,5.19-1.33,7.81-1.4c2.01-0.05,4.37,0.03,6.09,1.23c2.73,1.9,2.43,5.93,3.32,8.79
						c0.57,1.84,1.52,3.46,2.16,5.25c1.39,3.94,0.06,5.62-1.68,8.8c-1.74,3.2-2.72,6.9-3.61,10.4c-0.24,0.94,1.21,1.34,1.45,0.4
						c0.57-2.23,1.22-4.46,2.01-6.62c1.05-2.87,3.59-5.47,4.24-8.39c0.43-1.94-0.34-3.63-1.11-5.35c-1.57-3.52-2.23-6.81-3.24-10.5
						c-2.05-7.48-12.16-5.87-17.83-4.06C198.38,464.07,198.78,465.52,199.7,465.22L199.7,465.22z"/>
				</g>
			</g>
		</g>
		<path class="st2" d="M116,766c0,0,44-137,74-169c-20-5-31,4-47-2s-32,4-41,3s-15,0-32-7c13,18-2,102-17,114s-5,109-5,109
			s4,55,3,20S105,756,116,766z"/>
		<path class="st5" d="M117,776c0,0,20-68,40-119c-16.17-3.39-21.34-0.76-46.5,1.5c-19.75,1.77-28,4-40.13,0.8
			C66.16,680.62,59.58,699.74,53,705c-15,12-5,109-5,109s4,55,3,20S106,766,117,776z"/>
		<path class="st3" d="M117,776c0,0,43-147,73-179c-20-5-31,4-47-2s-32,4-41,3s-15,0-32-7c13,18-2,102-17,114s-5,109-5,109
			s4,55,3,20S106,766,117,776z"/>
	</g>
</g>
<g id="hoofd">
	<path class="st1" d="M464,215c-3.5,17.5-80,130-80,130l148,88c0,0,29-64,37-77s45-67,45-67s-39-36-64-47S481.5,211.5,464,215z"/>
	<path class="st6" d="M508,231c0,0,42,14,42,18s-33,62-33,62s2,6,5,0s33.5-59.5,33.5-59.5s2-1,1,2s-64,109-64,109s0,6,3,2
		s63-106,63-106s5-5,2,2s-74,126-74,127s-22-13-25-15s-44-18-45-18s19-34,19-34s3-2,1,3s-12,25-12,25s5,9,15,3S505.5,231.5,508,231z
		"/>
	<path class="st1" d="M284.2,362.29c41.67-25.02,106.65-25.76,168.57,2.57c74.82,34.23,120.46,99.59,112.85,155.36
		C565.5,520.5,284.5,361.5,284.2,362.29z"/>
	<g>
		<path class="st7" d="M348,382l-62,57c0,0-7,9,0,11s21,5,22,7s4.45,5.87,4,9c-0.5,3.5,0,5,2,5s-5.5,4.5-5.5,6.5s0,13,0,13
			s-14,8-13,12s5,24,23,26s43,5,43,5l122-36c0,0,31,4,31-35s-154-89-154-89L348,382z"/>
		<g>
			<path class="st1" d="M346.94,380.94c-15.6,14.34-31.19,28.68-46.79,43.01c-5.04,4.63-11.16,9.06-15.51,14.37
				c-2.8,3.41-5.31,9.83-0.44,12.58c3.05,1.72,7.48,2.15,10.85,3.03c3.38,0.88,8.99,1.42,11.65,3.83c1.21,1.09,3.13,4.66,3.55,6.2
				c0.54,1.96-0.37,3.97,0.24,5.88c0.3,0.93,0.76,1.79,1.68,2.22c0.35,0.16,0.66,0.35,1.05,0.35c-0.02-1.6-0.35-1.95-1.01-1.06
				c-0.31,0.27-0.63,0.54-0.94,0.81c-5.76,3.44-4.28,9.37-4.28,15.11c0,1.01,0.1,2.11,0,3.12c0.17-1.68,0.91-1.07-0.71-0.32
				c-2.85,1.31-5.73,3.7-8.08,5.74c-4.15,3.6-4.59,6.03-3.15,11.01c1.66,5.73,4.26,11.37,8.4,15.75c6.17,6.54,13.96,7.3,22.44,8.26
				c9.71,1.1,19.42,2.24,29.13,3.4c2.55,0.3,5.15,0.97,7.66,0.49c7.2-1.4,14.39-4.25,21.42-6.32c12.77-3.77,25.54-7.54,38.32-11.31
				c20.06-5.92,40.09-12.84,60.41-17.83c1.4-0.34,0.77-0.17,2.8-0.15c3.5,0.05,7.08-0.51,10.39-1.63
				c12.18-4.13,18.2-15.51,19.59-27.74c1.2-10.5-1.57-17.96-8.71-25.66c-8.01-8.64-18.18-15.32-28.23-21.33
				c-24.56-14.69-51.21-25.96-77.84-36.3c-9.87-3.83-19.81-7.49-29.81-10.97c-2.97-1.03-8.4-4.2-11.54-3.1
				c-2.22,0.78-4.44,3.02-6.39,4.35c-1.95,1.32-3.9,2.65-5.84,3.97c-1.59,1.08-0.09,3.68,1.51,2.59c3.01-2.04,6.01-4.09,9.02-6.13
				c1.08-0.74,2.23-1.76,3.42-2.32c-0.97,0.46-1.43-0.06-0.6,0.26c3.14,1.24,6.44,2.16,9.63,3.27c15.09,5.25,30.04,10.9,44.82,16.96
				c19.17,7.86,38.16,16.39,56.22,26.59c13.62,7.69,29.87,16.84,38.39,30.51c4.5,7.23,3.93,15.58,1.75,23.64
				c-2.39,8.84-8.16,16.09-17.09,18.8c-3.77,1.14-7.26,0.72-11.01,1.15c-2.66,0.31-5.48,1.58-8.03,2.34
				c-33.13,9.78-66.26,19.55-99.39,29.33c-4.46,1.32-8.91,2.73-13.39,3.95c-1.36,0.37-1.01,0.28-1.78,0.26
				c-4.61-0.11-9.38-1.12-13.96-1.65c-7.46-0.88-14.91-1.74-22.37-2.59c-7.2-0.82-13.59-1.69-18.8-7.21
				c-3.44-3.65-5.69-8.32-7.21-13.06c-1.31-4.1-1.92-6,1.59-9.14c2.79-2.5,6.06-4.58,9.3-6.45c0.46-0.26,0.74-0.77,0.74-1.3
				c0-3.68-0.98-8.75,0-12.26c0.79-2.82,6.33-4.44,5.74-7.58c-0.09-0.49-0.58-0.94-1.05-1.05c-2.29-0.52-1.05-5.06-1.79-7.09
				c-0.82-2.22-2.43-5.44-4.23-7.01c-3.87-3.38-11.23-4.07-16.01-5.3c-3.22-0.83-9.38-1.36-7.83-6.06c0.4-1.21,2.06-3.87,2.28-4.13
				c1.1-1.23,2.49-2.29,3.7-3.4c14.77-13.58,29.54-27.15,44.3-40.73c4.65-4.27,9.3-8.55,13.95-12.82
				C350.49,381.75,348.36,379.63,346.94,380.94z"/>
		</g>
	</g>
	<path class="st8" d="M313.5,464.5c0,0,4-2,7,2s6,6,7,6s-13,5-15,3s2-4,2-4S311.5,464.5,313.5,464.5z"/>
	<path class="st9" d="M436.57,401.57c3.7,3.49,5.93,8,5.93,12.93c0,11.05-11.19,20-25,20c-0.7,0-1.39-0.03-2.07-0.07
		c4.59,4.33,11.42,7.07,19.07,7.07c13.81,0,25-8.95,25-20C459.5,411.01,449.41,402.42,436.57,401.57z"/>
	<path class="st9" d="M404.8,472.61c-10.94,3.82-22.34-0.37-25.48-9.35c-1.78-5.1-0.5-10.65,2.93-15.19
		c-5.71,5.02-8.31,12.36-5.98,19.02c3.23,9.25,14.71,13.66,25.65,9.84c5.89-2.06,10.39-6.08,12.82-10.79
		C412.21,468.91,408.82,471.21,404.8,472.61z"/>
	<path class="st9" d="M353,480c0,0-6.5-2.5-4-11s11.5-11.5,15-12s12.5-0.5,12.5-0.5s-15,4-19,8C348.5,474.5,353,480,353,480z"/>
	<path class="st9" d="M344,494c-2.5,2.5-15.5,0.5-12.5-12.5S346,470,350,472c-5,0-9.03,3.19-11.43,5.4
		c-2.37,2.18-3.71,5.33-3.38,8.54C335.5,489,338.25,493.25,344,494z"/>
	<path class="st9" d="M327.5,525.5c-1.5-0.5-16-14,4-24c-6-1-11-5-1-14c-13,0-10,15-7,16c-3,1-9.5,13.5-4,20
		S326.5,526.5,327.5,525.5z"/>
	<path class="st1" d="M324.5,525.5c-1.5-0.5-16-14,4-24c-6-1-11-5-1-14c-13,0-10,15-7,16c-3,1-9.5,13.5-4,20
		S323.5,526.5,324.5,525.5z"/>
	<path class="st1" d="M341,494c-2.5,2.5-15.5,0.5-12.5-12.5S343,470,347,472c-5,0-9.03,3.19-11.43,5.4
		c-2.37,2.18-3.71,5.33-3.38,8.54C332.5,489,335.25,493.25,341,494z"/>
	<path class="st1" d="M352,479c0,0-6.5-2.5-4-11s11.5-11.5,15-12s12.5-0.5,12.5-0.5s-15,4-19,8C347.5,473.5,352,479,352,479z"/>
	<path class="st9" d="M409,474"/>
	<path class="st1" d="M397.25,476.5c-11.18,0-20.25-7.39-20.25-16.5c0-5.18,2.93-9.79,7.51-12.82c-6.8,2.74-11.51,8.56-11.51,15.32
		c0,9.39,9.07,17,20.25,17c6.02,0,11.41-2.22,15.12-5.72C405.17,475.5,401.36,476.5,397.25,476.5z"/>
	<path class="st9" d="M406.56,449.56c-8.81,2.32-17.69-2.41-19.83-10.56c-2.14-8.15-9.3-7.86-6.71,2.02
		c2.6,9.88,12.71,15.79,22.59,13.19c4.98-1.31,8.95-4.53,11.33-8.67C411.94,447.38,409.43,448.8,406.56,449.56z"/>
	<path class="st1" d="M403,453c-9.11,0-16.5-6.83-16.5-15.25c0-8.42,7.39-15.25,16.5-15.25c2.52,0,4.9,0.54,7.04,1.47
		c-3.24-2.78-7.44-4.47-12.04-4.47c-10.22,0-18.5,8.28-18.5,18.5c0,10.22,8.28,18.5,18.5,18.5c5.15,0,9.81-2.11,13.16-5.51
		C408.75,452.26,405.97,453,403,453z"/>
	<path class="st1" d="M410,418c0-8.28,6.72-15,15-15c1.61,0,3.16,0.26,4.61,0.73c-2.44-1.71-5.4-2.73-8.61-2.73
		c-8.28,0-15,6.72-15,15c0,6.67,4.36,12.32,10.39,14.27C412.53,427.56,410,423.08,410,418z"/>
	<path class="st1" d="M449.98,405.32c4.65,3.62,7.52,8.64,7.52,14.18c0,11.05-11.42,20-25.5,20c-5.6,0-10.77-1.42-14.98-3.82
		c4.61,3.59,10.96,5.82,17.98,5.82c14.08,0,25.5-8.95,25.5-20C460.5,414.84,456.35,408.95,449.98,405.32z"/>
	<g>
		<g>
			<path class="st1" d="M437.8,430.72c5,1,10,2,15,3c0.94,0.19,1.35-1.26,0.4-1.45c-5-1-10-2-15-3
				C437.26,429.09,436.85,430.53,437.8,430.72L437.8,430.72z"/>
		</g>
	</g>
	<g>
		<g>
			<path class="st1" d="M445.5,428.25c4,0.33,8,0.67,12,1c0.96,0.08,0.96-1.42,0-1.5c-4-0.33-8-0.67-12-1
				C444.54,426.67,444.54,428.17,445.5,428.25L445.5,428.25z"/>
		</g>
	</g>
	<g>
		<g>
			<path class="st1" d="M447.5,425.25c4,0.33,8,0.67,12,1c0.96,0.08,0.96-1.42,0-1.5c-4-0.33-8-0.67-12-1
				C446.54,423.67,446.54,425.17,447.5,425.25L447.5,425.25z"/>
		</g>
	</g>
	<path class="st1" d="M479.45,434.73c4.37,4.01,7.05,9.38,7.05,15.27c0,12.43-11.86,22.5-26.5,22.5c-5.77,0-11.1-1.57-15.45-4.23
		c4.84,4.44,11.76,7.23,19.45,7.23c14.64,0,26.5-10.07,26.5-22.5C490.5,445.47,486.14,438.81,479.45,434.73z"/>
	<path class="st10" d="M474,434l-6,16l6,1l-1,2l-6-1l-1,4l4,1l-1,2h-6v2l6,1v2l-11,3l-6,5l17,1l10-5c0,0,8-2,8,3s-1,10-6,12
		c-4.64,1.86-7,3-7,3l14,10c0,0,8.37,1.63,17-7c6-6,10.5-21.5,10.5-21.5l-30-35L474,434z"/>
	<rect x="490" y="485" class="st1" width="15" height="1"/>
	<polygon class="st1" points="508.13,481.41 489,483 490.95,479.62 507.9,478.38 	"/>
	<rect x="497" y="474" transform="matrix(0.9923 -0.1237 0.1237 0.9923 -54.8291 65.928)" class="st1" width="13" height="1"/>
	<rect x="500" y="470" transform="matrix(0.9923 -0.1237 0.1237 0.9923 -54.3228 66.0828)" class="st1" width="10" height="1"/>
	<path class="st1" d="M328.5,438.5c1,1-5.5,9.5-8.5,9.5c-2.5,0-6.39-0.69-7.62-0.93c-0.24-0.05-0.47-0.12-0.7-0.22
		c-1-0.46-4.19-1.85-6.69-1.85c-3,0-5,1-5,1s-1,1-1,0s2.01-1.86,4-2c2.19-0.16,5.14-0.91,8.5-0.5c3.62,0.44,7,2,8,2c2,0,4-3,4-3
		S327.5,437.5,328.5,438.5z"/>
	<g>
		<g>
			<path class="st1" d="M361,384.5c16.97,0.97,28.89,12.56,32.55,28.9c0.42,1.88,3.32,1.09,2.89-0.8
				c-3.96-17.67-17.15-30.05-35.45-31.1C359.07,381.39,359.08,384.39,361,384.5L361,384.5z"/>
		</g>
	</g>
	<path class="st11" d="M361.5,395.5c-1,4-9,19-19,18c6,4,18,2,26,1c-4,4-17,5-21,4c1-1,2-1,1-3"/>
	<path class="st1" d="M508,488c0,0,8.5-14.5,4.5-22.5s-42-34-42-34l-46-30c0,0-50-24-70-24s3-28,3-28l85,26l74,51l18,30L508,488z"/>
	<path class="st12" d="M373.5,418.5c0,0-19,8-23,7s-5-3,0-3S373.5,418.5,373.5,418.5z"/>
	<path class="st12" d="M371,423c0,0-17,8-22,8s-6-1-3-2S371,423,371,423z"/>
	<path class="st12" d="M371,427c0,0,2,3,0,4s-23,9-24,9s-2-6,0-6S371,427,371,427z"/>
	<path class="st10" d="M330.42,920.45"/>
</g>
<g id="jas">
	<g>
		<defs>
			<rect id="SVGID_1_" x="584" y="853" width="170.5" height="180.5"/>
		</defs>
		<clipPath id="SVGID_2_">
			<use xlink:href="#SVGID_1_"  style="overflow:visible;"/>
		</clipPath>
		<g class="st13">
			<path class="st5" d="M709,880c0,0,31,53,48,62s-2,72-2,72l-164-11C591,1003,710,932,709,880z"/>
			<g>
				<path class="st1" d="M707.7,880.76c10.47,17.88,21.94,35.89,35.77,51.36c3.32,3.71,6.89,7.43,11.08,10.18
					c4.05,2.65,6.04,5.18,7.11,10.05c2.57,11.64,0.15,24.68-2.06,36.18c-1.62,8.44-3.59,16.85-6.06,25.08
					c0.48-0.37,0.96-0.73,1.45-1.1c-47.97-3.22-95.94-6.44-143.91-9.65c-6.7-0.45-13.39-0.9-20.09-1.35c0.25,0.93,0.5,1.86,0.76,2.8
					c14.38-8.59,28.23-18.21,41.66-28.2c23.08-17.17,46.34-36.2,63.1-59.83c7.49-10.57,14.09-22.98,13.99-36.26
					c-0.02-1.93-3.02-1.93-3,0c0.1,11.78-5.47,22.77-11.9,32.33c-8.02,11.93-18.11,22.45-28.6,32.22
					c-19.24,17.92-40.52,33.67-62.47,48.1c-4.71,3.1-9.45,6.17-14.29,9.06c-1.33,0.8-0.69,2.7,0.76,2.8
					c47.97,3.22,95.94,6.44,143.91,9.65c6.7,0.45,13.39,0.9,20.09,1.35c0.66,0.04,1.27-0.5,1.45-1.1c5.46-18.17,10.74-38.93,8.85-58
					c-0.43-4.3-1.28-8.94-3.92-12.48c-2.5-3.34-6.79-5.05-9.87-7.86c-10.15-9.27-18.15-21.08-25.79-32.41
					c-5.37-7.98-10.57-16.1-15.43-24.4C709.32,877.58,706.73,879.09,707.7,880.76z"/>
			</g>
		</g>
	</g>
	<polygon class="st14" points="34,921 157,933 150,1021 30,1026 	"/>
	<g>
		<path class="st5" d="M150,1021c0,0-121-74-119-134s14-94,58-107s104-28,137-88c29.42-53.5,191-64,238-54s67,72,100,101
			c19.95,17.53,81.18,33.5,108.39,41.92c12.09,3.74,22.62,11.33,29.94,21.65c11.24,15.86,21.51,46.12,11.67,81.43
			c-17,61-106,133-135,131S150,1021,150,1021z"/>
		<g>
			<path class="st1" d="M150.76,1019.7c-15.16-9.28-29.67-19.82-43.63-30.81c-24.37-19.18-49.35-41.1-64.81-68.39
				c-3.45-6.09-6.36-12.53-8.12-19.32c-1.92-7.36-1.75-14.52-1.36-22.07c0.96-18.83,2.88-38.26,9.83-55.96
				c5.71-14.55,15.48-26.79,29.2-34.48c14.24-7.98,31.11-10.99,46.55-15.95c35.22-11.32,69.28-27.84,93.25-56.91
				c9.87-11.97,15.68-27.03,27.58-37.23c10.41-8.92,23.18-15.01,35.9-19.85c30.58-11.64,63.59-17.14,96.05-20.24
				c27.7-2.65,56.43-4.12,84.12-0.46c15.47,2.05,28.87,8.27,40.51,18.74c13.71,12.33,24.12,27.84,34.53,42.91
				c9.74,14.11,19.52,29.06,32.6,40.36c12.02,10.39,28.23,16.17,42.94,21.52c17.9,6.52,36.2,11.88,54.46,17.28
				c8.8,2.6,17.66,4.93,25.48,9.95c9.09,5.85,15.91,14.21,20.76,23.79c10.72,21.18,12.4,46.31,6.48,69.12
				c-4.54,17.51-13.94,33.51-24.54,48.01c-21.25,29.06-49.31,55.77-80.66,73.69c-8.77,5.02-18.92,10.45-29.32,10.05
				c-4.12-0.16-8.24-0.23-12.37-0.26c-42.46-0.3-84.94,0.57-127.39,1.19c-57.46,0.84-114.92,1.84-172.37,2.89
				c-36.98,0.68-73.96,1.37-110.94,2.1c-1.82,0.04-3.65,0.07-5.47,0.11c-1.93,0.04-1.93,3.04,0,3c27.85-0.56,55.7-1.09,83.55-1.61
				c57.39-1.07,114.78-2.09,172.17-2.99c49.04-0.77,98.09-1.63,147.14-1.72c6.27-0.01,12.54-0.01,18.8,0.09
				c4.92,0.08,9.79,0.58,14.64-0.45c12.76-2.72,24.73-10.29,35.37-17.52c15.1-10.27,29.1-22.23,41.98-35.16
				c26.69-26.8,52.33-60.29,55.47-99.29c1.62-20.2-2.55-41.6-13.4-58.89c-5.4-8.61-12.83-15.81-21.74-20.73
				c-7.46-4.11-15.8-6.18-23.92-8.58c-18.78-5.55-37.59-11.08-55.95-17.91c-16.23-6.03-32.6-12.71-44.83-25.34
				c-25.36-26.2-39.39-62.78-69.62-84.41c-21.99-15.74-51.05-15.21-76.97-14.82c-33.16,0.51-66.55,4-98.94,11.19
				c-27.23,6.05-58.18,14.6-79.03,34.27c-3.94,3.72-7.3,7.92-10.01,12.61c-5.75,9.98-12.13,19.41-19.92,27.93
				c-13.67,14.95-30.42,26.6-48.55,35.5c-16.33,8.02-33.62,13.79-51.02,18.99c-15.22,4.55-30.74,8.21-43.52,18.17
				c-27.69,21.58-31,61.15-32.14,93.56c-1.03,29.45,20.9,55.14,40.44,74.78c20.1,20.21,42.87,37.85,66.46,53.79
				c4.21,2.85,8.45,5.67,12.79,8.32C150.89,1023.31,152.4,1020.71,150.76,1019.7z"/>
		</g>
	</g>
	<g>
		<path class="st2" d="M220,976c0,0,92-39,169-58s161.52-128.13,112-233c-17-36-33-43-33-43l-2-115l18-25c0,0-19-18-58-18
			s-79,14-79,14s-15,37-22,38s-33-13-33-13s22,13,24,20s4,120,4,120s-59,16-91,73S158,878,220,976z"/>
		<g>
			<path class="st1" d="M220.76,977.3c42.44-17.98,87.82-34.48,132.55-47.91c14.89-4.47,30.27-7.61,45-12.52
				c12.05-4.01,23.48-9.83,34.08-16.78c23.46-15.39,43.32-36.31,58.07-60.13c15.43-24.9,25.26-53.46,26.65-82.82
				c1.54-32.54-7.86-65.14-25.57-92.42c-5.2-8.01-11.29-15.98-19.07-21.66c-1.04-0.76-2.38-1.97-3.66-2.31
				c1.31,0.35,0.11,1.73,0.68,0.72c0.2-0.37-0.03-1.47-0.03-1.89c-0.27-15.54-0.54-31.07-0.81-46.61
				c-0.32-18.43-0.64-36.86-0.96-55.3c-0.06-3.18-0.92-7.51-0.19-10.64c-0.35,1.5,0.65-0.45,1.03-0.97c1.2-1.67,2.4-3.34,3.6-5.01
				c2.86-3.97,5.72-7.94,8.58-11.91c1.53-2.12,3.06-4.24,4.58-6.37c0.37-0.52,0.22-1.4-0.23-1.82
				c-7.32-6.86-17.66-11.13-27.09-13.96c-23.6-7.1-49.03-4.77-72.9-0.3c-10.07,1.89-20.06,4.28-29.89,7.18
				c-2.85,0.84-7.76,1.35-9.64,3.78c-0.81,1.05-1.2,2.88-1.71,4.08c-1.24,2.89-2.52,5.77-3.85,8.62
				c-3.15,6.79-6.41,13.85-10.83,19.93c-1.91,2.63-3.33,4.63-6.72,4.11c-4.21-0.65-8.43-2.57-12.31-4.24
				c-5.9-2.54-11.7-5.39-17.36-8.43c-1.7-0.91-3.18,1.6-1.51,2.59c4.01,2.38,7.92,4.96,11.69,7.69c4,2.9,10.47,6.93,11.76,12.08
				c1.77,7.05,1.08,15.51,1.36,22.71c0.99,25.5,1.54,51.02,2.07,76.53c0.14,6.56,0.27,13.13,0.38,19.69
				c0.37-0.48,0.73-0.96,1.1-1.45c-10.71,2.93-21.11,8.02-30.72,13.46c-21.63,12.24-40.69,29.09-54.66,49.7
				c-13.89,20.49-24.98,44.09-33.65,67.22c-9.62,25.68-15.42,52.94-14.89,80.46c0.71,37.36,13.3,72.89,33.03,104.36
				c1.02,1.63,3.62,0.13,2.59-1.51c-17.82-28.42-29.96-60.22-32.24-93.86c-1.84-27.11,2.64-54.17,11.27-79.84
				c7.6-22.6,18.24-44.07,29.97-64.78c12.97-22.91,31.87-41.85,54.21-55.67c11.07-6.85,23.26-13.19,35.89-16.64
				c0.63-0.17,1.11-0.79,1.1-1.45c-0.33-18.44-0.73-36.88-1.2-55.32c-0.35-13.64-0.72-27.27-1.25-40.9
				c-0.29-7.54,0.17-15.87-1.43-23.29c-1.11-5.13-6.32-8.86-10.22-11.88c-4.66-3.6-9.58-6.9-14.64-9.9
				c-0.5,0.86-1.01,1.73-1.51,2.59c4.7,2.53,9.51,4.89,14.37,7.1c5.36,2.43,12.78,6.66,18.89,6.15c4.58-0.38,7.52-5.97,9.63-9.44
				c3.99-6.54,7.26-13.55,10.38-20.54c1.03-2.3,2.02-4.6,3-6.92c0.27-0.63,0.66-1.31,0.83-1.98c0.07-0.28-1.47,0.6-0.48,0.62
				c1.64,0.03,4.02-1.31,5.61-1.79c4.05-1.23,8.12-2.37,12.21-3.43c25-6.45,52.24-11.29,78.01-7.26
				c13.37,2.09,29.07,6.7,39.25,16.24c-0.08-0.61-0.16-1.21-0.23-1.82c-2.71,3.77-5.43,7.54-8.14,11.3
				c-2.97,4.13-7.5,8.63-9.57,13.29c-0.6,1.34-0.47,2.41-0.45,3.93c0.07,3.81,0.13,7.63,0.2,11.44c0.45,26.11,0.91,52.23,1.36,78.34
				c0.13,7.48,0.26,14.97,0.39,22.45c0.01,0.49,0.27,1.08,0.74,1.3c7.3,3.27,13.3,11.1,17.84,17.3
				c12.82,17.5,21.8,38.41,26.18,59.62c8.18,39.63-1.07,80.71-21.54,115.18c-18.47,31.11-46.11,58.21-79.18,73.41
				c-17.38,7.99-36.6,11.33-54.86,16.74c-20.61,6.11-41.01,12.92-61.26,20.14c-25.28,9.02-50.45,18.54-75.17,29.02
				C217.47,975.46,219,978.04,220.76,977.3z"/>
		</g>
	</g>
	<g>
		<path class="st15" d="M507.5,697.5c0,0,39.5,106.5-68.5,173.5s-179,53-219,105c3,33,13,38,13,38l188-8
			C421,1006,606.5,849.5,507.5,697.5z"/>
		<g>
			<path class="st1" d="M506.05,697.9c6.78,18.36,8.11,39.65,6.41,58.94c-4.14,47.05-32.25,85.95-71.42,111.1
				c-26.95,17.3-56.04,31.38-86,42.6c-22,8.24-44.57,14.68-66.84,22.08c-17.51,5.82-35.18,12.49-50.12,23.58
				c-3.32,2.46-6.5,5.12-9.49,7.98c-3.08,2.95-7.32,6.56-9.33,10.36c-2.1,3.97,0.5,12.21,1.4,16.6c1,4.85,2.32,9.67,4.33,14.21
				c1.33,3,3.68,8.35,7.04,9.82c1.23,0.54,2.59,0.27,3.93,0.21c10.28-0.44,20.56-0.87,30.83-1.31c34.66-1.48,69.33-2.95,103.99-4.43
				c13.18-0.56,26.35-1.12,39.53-1.68c3.6-0.15,9.21,0.75,12.29-1.36c5.6-3.83,10.53-9.61,15.31-14.36
				c10.1-10.06,19.7-20.62,28.78-31.62c24.88-30.15,46.33-63.88,59.33-100.91c14.81-42.19,16.74-88.18-0.07-130.11
				c-4.61-11.5-10.42-22.45-17.15-32.85c-1.04-1.62-3.64-0.11-2.59,1.51c26.12,40.42,34.73,87.83,24.33,134.81
				c-8.82,39.81-28.89,76.48-53.07,108.98c-15.73,21.15-33.46,41.06-52.95,58.83c-1.43,1.3-2.85,2.64-4.34,3.86
				c-0.74,0.61,1.51-0.23,0.49-0.23c-0.83,0.01-1.65,0.07-2.48,0.11c-9.93,0.42-19.86,0.85-29.8,1.27
				c-33.85,1.44-67.7,2.88-101.55,4.32c-13.6,0.58-27.21,1.16-40.81,1.74c-3.57,0.15-7.14,0.3-10.71,0.46
				c-0.66,0.03-1.48,0.19-2.13,0.09c0.52,0.08,0.53,0.41-0.2-0.36c-4.67-4.9-6.92-11.39-8.54-17.88c-0.75-3-1.34-6.05-1.82-9.1
				c-0.6-3.86-1.92-7.75,0.68-10.88c2.84-3.42,5.9-6.64,9.19-9.63c13.61-12.36,30.56-19.99,47.7-26.1
				c20.99-7.49,42.51-13.37,63.55-20.73c27.14-9.49,53.49-21.07,78.55-35.18c24.29-13.68,47.22-29.43,64.4-51.72
				c12.14-15.74,20.91-33.92,25.47-53.28c5.85-24.86,5.29-51.89-1.9-76.45c-0.4-1.37-0.81-2.75-1.31-4.09
				C508.28,695.31,505.38,696.08,506.05,697.9z"/>
		</g>
	</g>
	<g>
		<g>
			<path class="st1" d="M478.6,937.55c-26.35,10.3-54.46,17.48-82.37,21.86c-11.37,1.79-22.85,3-34.36,3.36
				c-12.29,0.38-24.51-0.7-36.77-1.32c-19.41-0.98-39.12-1.7-58.42,1.03c-16.57,2.34-32.1,7.97-45.44,18.22
				c-1.51,1.16-0.02,3.77,1.51,2.59c28.2-21.68,65.17-20.57,98.98-19c11.79,0.55,23.57,1.69,35.38,1.58
				c11.27-0.11,22.53-1.1,33.69-2.64c19.82-2.74,39.38-7.22,58.58-12.83c10.1-2.95,20.21-6.12,30.02-9.95
				C481.18,939.75,480.4,936.85,478.6,937.55L478.6,937.55z"/>
		</g>
	</g>
	<path class="st16" d="M468.5,520.5c0,0-22-7-26-5s12-18,6-26s35,7,34,13S468.5,520.5,468.5,520.5z"/>
	<path class="st16" d="M468,528l-33,8c0,0-3,11-12,14s9,2,9,2s-5,7-10,7s10,3,10,3s-1,9-8,11s8,3,8,3s1,13-7,14s8,0,8,0s1,10-6,11
		c-3.85,0.55-1.95,2.01,0.53,3.21c2.73,1.32,4.56,3.98,4.7,7.01l0.37,8.19c0.25,5.57-1.37,11.06-4.61,15.59l0,0c0,0-19,7-18,10
		s5,2,20-4s-5,17-5,17s-4,3,3,2s49-10,53-6s-14-13-14-13L468,528z"/>
	<path class="st16" d="M491,667c0,0-18,6-27,1s-20,1-29-6c-2-3,5-2,11-2s38-3,38-3L491,667z"/>
	<g>
		<g>
			<polygon class="st17" points="319.17,697.45 330,683 320.83,698.55 			"/>
		</g>
		<g>
			<g>
				<g>
					<path class="st17" d="M236.06,754.06c10.12-9.23,21.09-17.64,32.15-25.7c23.95-17.44,49.51-33.03,76.75-44.78
						c17.13-7.39,35-13.13,53.44-16.14c1.9-0.31,1.09-3.2-0.8-2.89c-32.23,5.25-62.69,18.75-90.8,35.01
						c-21.67,12.54-42.3,26.99-61.68,42.84c-3.79,3.1-7.57,6.23-11.19,9.53C232.51,753.24,234.64,755.36,236.06,754.06
						L236.06,754.06z"/>
				</g>
			</g>
			<g>
				<polygon class="st17" points="255.6,740.46 264,723 258.4,741.54 				"/>
			</g>
			<g>
				<polygon class="st17" points="272.64,728.36 283,710 275.36,729.64 				"/>
			</g>
			<g>
				<polygon class="st17" points="286.69,717.27 298,700 289.31,718.73 				"/>
			</g>
			<path class="st3" d="M235,756c0,0,81-74,163-87"/>
			<g>
				<polygon class="st1" points="256.07,743.64 264,726 257.93,744.36 				"/>
			</g>
			<g>
				<polygon class="st1" points="273.1,731.57 283,713 274.9,732.43 				"/>
			</g>
			<g>
				<polygon class="st1" points="287.13,720.51 298,703 288.87,721.49 				"/>
			</g>
		</g>
		<g>
			<polygon class="st1" points="319.17,700.45 330,686 320.83,701.55 			"/>
		</g>
	</g>
	<g>
		<g>
			<path class="st17" d="M275.56,842.56c11.62-9.09,26.23-14.58,40.14-18.98c25.16-7.95,51.52-11.97,77.79-13.96
				c20.47-1.55,41.01-1.78,61.52-1.12c1.93,0.06,1.93-2.94,0-3c-34.01-1.09-68.25,0.21-101.82,6.05c-21.04,3.66-42.16,9-61.56,18.09
				c-6.39,2.99-12.61,6.44-18.18,10.8C271.92,841.63,274.06,843.74,275.56,842.56L275.56,842.56z"/>
		</g>
	</g>
	<g>
		<g>
			<path class="st1" d="M275.56,844.56c11.62-9.09,26.23-14.58,40.14-18.98c25.16-7.95,51.52-11.97,77.79-13.96
				c20.47-1.55,41.01-1.78,61.52-1.12c1.93,0.06,1.93-2.94,0-3c-34.01-1.09-68.25,0.21-101.82,6.05c-21.04,3.66-42.16,9-61.56,18.09
				c-6.39,2.99-12.61,6.44-18.18,10.8C271.92,843.63,274.06,845.74,275.56,844.56L275.56,844.56z"/>
		</g>
	</g>
	<path class="st4" d="M355.5,545.5c0,0,58-34,103-32"/>
	<path class="st4" d="M397.5,545.5c0,0,35-12,49-11"/>
	<g>
		<g>
			<path class="st18" d="M395.8,926.89c13-3.26,25.8-7.75,38.2-12.81c20.26-8.27,41.95-18.71,56.13-35.96
				c2.43-2.96-1.79-7.23-4.24-4.24c-13.98,17.01-35.57,27.28-55.62,35.28c-11.73,4.68-23.8,8.87-36.06,11.95
				C390.46,922.05,392.05,927.83,395.8,926.89L395.8,926.89z"/>
		</g>
	</g>
	<g>
		<g>
			<path class="st18" d="M665.38,498.38c-10.03,12.55-27.83,19.77-42.73,23.84c-17.72,4.84-36.39,5.65-54.62,7.16
				c-16.57,1.37-33.15,2.55-49.75,3.6c-8.59,0.55-17.18,1.07-25.78,1.52c-3.84,0.2-3.87,6.2,0,6c24.07-1.25,48.12-2.9,72.14-4.84
				c31.44-2.55,64.64-3.79,91.76-21.86c4.69-3.13,9.66-6.73,13.22-11.18C672.01,499.63,667.79,495.36,665.38,498.38L665.38,498.38z"
				/>
		</g>
	</g>
	<g>
		<g>
			<path class="st18" d="M482.91,905.99c-0.17,0.24-0.54,0.58,0.24-0.3c-0.26,0.29-0.48,0.61-0.75,0.89
				c-0.95,1.01-1.93,1.99-2.98,2.91c-4.04,3.55-9.06,6.62-14.13,9.27c-23.26,12.16-50.33,17.22-76.12,20.31
				c-27.08,3.25-54.42,3.94-81.66,3.43c-3.86-0.07-3.86,5.93,0,6c42.27,0.8,85.8-0.76,126.86-11.81
				c16.87-4.54,34.67-10.77,48.3-22.11c1.97-1.64,3.97-3.44,5.43-5.57C490.28,905.83,485.09,902.82,482.91,905.99L482.91,905.99z"/>
		</g>
	</g>
	<g>
		<g>
			<path class="st1" d="M221.95,977.4c2.77-10.18,14.22-16.66,22.78-21.39c13.84-7.64,28.72-13.35,43.53-18.8
				c15.93-5.86,32.42-10.58,48.07-17.14c7.33-3.07,14.37-6.73,21.52-10.19c6.93-3.36,14.03-5.83,21.26-8.41
				c49.15-17.52,98.23-49.42,123.19-96.65c12.01-22.72,17.21-48.44,14.09-74c-3.39-27.77-15.48-57.13-34.15-78.15
				c-2.49-2.8-5.17-5.45-8.13-7.77c-0.86-0.67-3.26-3.06-4.47-3.02c-0.95,0.03,0.48,0.37,0.35,1c0.08-0.35-0.08-0.76-0.02-1.12
				c0.28-1.73-0.07-3.79-0.1-5.54c-0.29-16.41-0.57-32.83-0.86-49.24c-0.29-16.89-0.59-33.77-0.88-50.66
				c-0.04-2.11-0.03-4.23-0.11-6.34c-0.02-0.48-0.08-1.04-0.03-1.52c0.13-1.07-0.3,0.55-0.06,0.07c1.27-2.55,3.55-4.93,5.21-7.23
				c2.77-3.85,5.54-7.69,8.31-11.54c1.44-2,2.89-4.01,4.33-6.01c0.37-0.52,0.22-1.4-0.23-1.82c-7.32-6.86-17.66-11.13-27.09-13.96
				c-23.6-7.1-49.03-4.77-72.9-0.3c-10.07,1.89-20.06,4.28-29.89,7.18c-2.85,0.84-7.76,1.35-9.64,3.78
				c-0.81,1.05-1.2,2.88-1.71,4.08c-1.24,2.89-2.52,5.77-3.85,8.62c-3.15,6.79-6.41,13.85-10.83,19.93
				c-1.91,2.63-3.33,4.63-6.72,4.11c-4.21-0.65-8.43-2.57-12.31-4.24c-5.9-2.54-11.7-5.39-17.36-8.43c-1.7-0.91-3.18,1.6-1.51,2.59
				c4.01,2.38,7.92,4.96,11.69,7.69c4,2.9,10.47,6.93,11.76,12.08c1.77,7.05,1.08,15.51,1.36,22.71c0.99,25.5,1.54,51.02,2.07,76.53
				c0.14,6.56,0.27,13.13,0.38,19.69c0.37-0.48,0.73-0.96,1.1-1.45c-11.2,3.06-22.06,8.45-32.06,14.22
				c-22.18,12.8-41.58,30.51-55.43,52.12c-13.05,20.36-24.12,42.92-32.71,65.49c-9.53,25.05-15.21,51.64-14.59,78.53
				c0.86,37.58,14.11,73.21,33.89,104.84c1.02,1.63,3.62,0.13,2.59-1.51c-17.8-28.46-30.45-60.21-33.02-93.91
				c-2.03-26.74,2.32-53.43,10.97-78.72c7.65-22.35,18.47-43.38,29.98-63.95c12.99-23.23,31.4-42.5,53.89-56.71
				c11.45-7.23,24.13-13.92,37.28-17.51c0.63-0.17,1.11-0.79,1.1-1.45c-0.33-18.44-0.73-36.88-1.2-55.32
				c-0.35-13.64-0.72-27.27-1.25-40.9c-0.29-7.54,0.17-15.87-1.43-23.29c-1.11-5.13-6.32-8.86-10.22-11.88
				c-4.66-3.6-9.58-6.9-14.64-9.9c-0.5,0.86-1.01,1.73-1.51,2.59c4.7,2.53,9.51,4.89,14.37,7.1c5.36,2.43,12.78,6.66,18.89,6.15
				c4.58-0.38,7.52-5.97,9.63-9.44c3.99-6.54,7.26-13.55,10.38-20.54c1.03-2.3,2.02-4.6,3-6.92c0.27-0.63,0.66-1.31,0.83-1.98
				c0.07-0.28-1.47,0.6-0.48,0.62c1.64,0.03,4.02-1.31,5.61-1.79c4.05-1.23,8.12-2.37,12.21-3.43c25-6.45,52.24-11.29,78.01-7.26
				c13.37,2.09,29.07,6.7,39.25,16.24c-0.08-0.61-0.16-1.21-0.23-1.82c-2.71,3.77-5.43,7.54-8.14,11.3
				c-2.97,4.13-7.5,8.63-9.57,13.29c-0.6,1.34-0.47,2.41-0.45,3.93c0.07,3.81,0.13,7.63,0.2,11.44c0.45,26.11,0.91,52.23,1.36,78.34
				c0.13,7.48,0.26,14.97,0.39,22.45c0.01,0.49,0.27,1.08,0.74,1.3c6.21,2.78,11.4,9.07,15.5,14.23
				c12.47,15.69,21.44,35.02,26.61,54.31c9.04,33.73,3.55,68.69-14.64,98.39c-18.05,29.46-45.81,52.17-75.75,68.79
				c-15.67,8.7-32.09,15.46-49.03,21.26c-8.71,2.98-16.82,7.43-25.09,11.43c-10.33,4.99-21.04,8.66-31.86,12.4
				c-21.24,7.35-42.74,14.6-62.95,24.52c-11.37,5.58-27.82,13.53-31.48,26.98C218.55,978.47,221.44,979.26,221.95,977.4z"/>
		</g>
	</g>
</g>
<g id="onder_rand">
	<rect x="6" y="999" class="st19" width="748" height="35"/>
</g>
<g id="wolk_links">
	<g>
		<defs>
			<path id="SVGID_3_" d="M55.18,41.7c29.57,1.96,47.48,1.96,53.72,0c9.37-2.94,28.23,0,33.73,0c5.51,0,71.33-0.08,71.33,0
				s43.67,19.11,4.96,27.21c-25.81,5.4-45.71,5.4-59.73,0c-10.15,4.62-18.59,6.94-25.31,6.94s-21.81,0-45.28,0
				c-12.43,4.54-21.81,6.81-28.13,6.81c-6.32,0-16.47,0-30.43,0V41.7H55.18z"/>
		</defs>
		<clipPath id="SVGID_4_">
			<use xlink:href="#SVGID_3_"  style="overflow:visible;"/>
		</clipPath>
		<g class="st20">
			<defs>
				<rect id="SVGID_5_" x="-587" y="-24" width="1920" height="1080"/>
			</defs>
			<clipPath id="SVGID_6_">
				<use xlink:href="#SVGID_5_"  style="overflow:visible;"/>
			</clipPath>
			<rect x="25.06" y="35.39" class="st21" width="214.87" height="52.26"/>
		</g>
	</g>
</g>
<g id="wolk_recths_boven">
	<path class="st22" d="M754.05,56.09L754,99.48c0,0-9-1.48-13,2.52s-15.67-3.74-15.67-3.74S682,94,678,92s-11,1-11-9
		s-52.45,0-65.73-3S593,66,604,64S754.05,56.09,754.05,56.09z"/>
</g>
<g id="wolk_boven">
	<g>
		<defs>
			<path id="SVGID_7_" d="M754,46.51c-7.58,2.76-14.82,2.76-21.73,0c-10.37-4.15-23.8-4.11-37.34-4.11
				c-13.54,0-7.73-6.68-25.51-6.68c-17.78,0-36.41,0-40.63-3.52c-1.85-3.89-13.47-0.64-20.73-0.64
				c-12.48-3.25-17.44,0.64-22.18-3.25s-42.51-4.22-47.68,0c-5.17,4.22-64.02,0.36-92.88,3.89c-28.86,3.52-74.79,3.52-95.08,0
				s-77.17,4.71-94.34,3.52c-17.17-1.19-22.17-1.84-25.02-4.16c-2.86-2.32-18.78,1.08-32.92,0.64c-37.24-1.18-53.4-7.77-69.83-3.89
				s-35.69,6.14-48.9,3.89C66.01,29.94,63.48,28,59,32.2c-2.99,2.8-19.99,1.5-51-3.89V0h746V46.51z"/>
		</defs>
		<clipPath id="SVGID_8_">
			<use xlink:href="#SVGID_7_"  style="overflow:visible;"/>
		</clipPath>
		<g class="st23">
			<defs>
				<rect id="SVGID_9_" x="-579" y="-23" width="1920" height="1080"/>
			</defs>
			<clipPath id="SVGID_10_">
				<use xlink:href="#SVGID_9_"  style="overflow:visible;"/>
			</clipPath>
			<rect x="3" y="-5" class="st24" width="756" height="58.58"/>
		</g>
	</g>
</g>
<g id="groen_links">
	<g>
		<defs>
			<rect id="SVGID_11_" x="5" y="0" width="51" height="1034"/>
		</defs>
		<clipPath id="SVGID_12_">
			<use xlink:href="#SVGID_11_"  style="overflow:visible;"/>
		</clipPath>
		<g class="st25">
			<defs>
				<rect id="SVGID_13_" x="-582" y="-23" width="1920" height="1080"/>
			</defs>
			<clipPath id="SVGID_14_">
				<use xlink:href="#SVGID_13_"  style="overflow:visible;"/>
			</clipPath>
			<rect y="-5" class="st26" width="61" height="1044"/>
		</g>
	</g>
</g>
<g id="groene_v">
	<path class="st27" d="M638.27,740.58c14.59-36.63,35.36-3.9,45.47-2.05c5.48,0-5.12-47.95,45.47-47.95"/>
	<path class="st28" d="M642.27,744.58c14.59-36.63,35.36-3.9,45.47-2.05c5.48,0-5.12-47.95,45.47-47.95"/>
</g>
<g id="groene_strepen_bij_v">
	<path class="st29" d="M627.8,755.41c10.36-1.74,17.76-2.63,22.2-2.68c10.39-0.11,19,1.76,25.82,5.63"/>
	<path class="st30" d="M629.8,758.41c10.36-1.74,17.76-2.63,22.2-2.68c10.39-0.11,19,1.76,25.82,5.63"/>
</g>
<g id="wolk_midden_rechts">
	<g>
		<defs>
			<path id="SVGID_15_" d="M754.05,553.47c-117.5-5.49-182.42-6.83-194.75-4c-18.85,4.32-41.39,22.06-3.96,22.06
				c24.95,0,44.52,2.38,58.71,7.14c6.95,7.7,6.95,11.55,0,11.55c-10.43,0-17.5,24.7,16.37,24.7s93.27,9.31,108.43,9.31
				c5.07,0,10.22,0.43,15.21,0.86C754,625,754,554,754.05,553.47z"/>
		</defs>
		<clipPath id="SVGID_16_">
			<use xlink:href="#SVGID_15_"  style="overflow:visible;"/>
		</clipPath>
		<g class="st31">
			<defs>
				<rect id="SVGID_17_" x="-579" y="-23" width="1920" height="1080"/>
			</defs>
			<clipPath id="SVGID_18_">
				<use xlink:href="#SVGID_17_"  style="overflow:visible;"/>
			</clipPath>
			<rect x="530.13" y="543.03" class="st32" width="295.72" height="87.89"/>
		</g>
	</g>
</g>
<g id="linker_vleugel">
	<g>
		<defs>
			<path id="SVGID_19_" d="M170.82,379.3c0.24-2.52,0.24-3.71,0-3.58c-6.4,3.58-9.4-4.39-13.82-6.4c-1.3-0.59-7.41,1.6-9.13,0.96
				c-6.86-2.55-14.33-7.08-10.63-4.53c4.63,3.19,3.94,13.35-0.59,15.29c-4.54,1.93-3.13,13.87,3.41,14.66
				c6.54,0.79-8.77,12.16-0.51,15.87c8.26,3.7-7.48,4.94-2.9,15.54c4.58,10.6,6.55-3.53,15.44-6.32
				c2.26-0.71,10.41-6.48,12.35-10.48C166.55,405.98,168.67,395.64,170.82,379.3z"/>
		</defs>
		<clipPath id="SVGID_20_">
			<use xlink:href="#SVGID_19_"  style="overflow:visible;"/>
		</clipPath>
		<g class="st33">
			<defs>
				<rect id="SVGID_21_" x="-1516" y="-17" width="1920" height="1080"/>
			</defs>
			<clipPath id="SVGID_22_">
				<use xlink:href="#SVGID_21_"  style="overflow:visible;"/>
			</clipPath>
			<rect x="129" y="360" class="st34" width="47" height="76"/>
		</g>
	</g>
	<g>
		<defs>
			
				<ellipse id="SVGID_23_" transform="matrix(0.8778 -0.4791 0.4791 0.8778 -189.4465 118.2139)" cx="136.96" cy="430.39" rx="4.84" ry="2.65"/>
		</defs>
		<clipPath id="SVGID_24_">
			<use xlink:href="#SVGID_23_"  style="overflow:visible;"/>
		</clipPath>
		<g class="st35">
			<defs>
				<rect id="SVGID_25_" x="-1514" y="-18" width="1920" height="1080"/>
			</defs>
			<clipPath id="SVGID_26_">
				<use xlink:href="#SVGID_25_"  style="overflow:visible;"/>
			</clipPath>
			
				<rect x="127.12" y="422.74" transform="matrix(0.866 -0.5 0.5 0.866 -196.8481 126.1411)" class="st36" width="19.68" height="15.3"/>
		</g>
	</g>
	<g>
		<defs>
			<path id="SVGID_27_" d="M166.89,407.48c-0.55,3.61-2.29,6.16-3.13,7.52s-3.33,4.65-9.23,6.18s-11.14,8.83-12.52,10.07
				c-1.37,1.24-3.02,0.98-1.25-1c1.77-1.99,7.86-9.96,10.93-9.96c2.05,0,4.45-1.91,7.2-5.74l6.31-9.03
				C166.7,404.42,167.26,405.08,166.89,407.48z"/>
		</defs>
		<clipPath id="SVGID_28_">
			<use xlink:href="#SVGID_27_"  style="overflow:visible;"/>
		</clipPath>
		<g class="st37">
			<defs>
				<rect id="SVGID_29_" x="-1514" y="-17" width="1920" height="1080"/>
			</defs>
			<clipPath id="SVGID_30_">
				<use xlink:href="#SVGID_29_"  style="overflow:visible;"/>
			</clipPath>
			<rect x="135" y="400" class="st38" width="37" height="37"/>
		</g>
	</g>
	<g>
		<defs>
			<circle id="SVGID_31_" cx="138.5" cy="433.5" r="0.5"/>
		</defs>
		<clipPath id="SVGID_32_">
			<use xlink:href="#SVGID_31_"  style="overflow:visible;"/>
		</clipPath>
		<g class="st39">
			<defs>
				<rect id="SVGID_33_" x="-1515" y="-17" width="1920" height="1080"/>
			</defs>
			<clipPath id="SVGID_34_">
				<use xlink:href="#SVGID_33_"  style="overflow:visible;"/>
			</clipPath>
			<rect x="133" y="428" class="st40" width="11" height="11"/>
		</g>
	</g>
	<g>
		<defs>
			
				<ellipse id="SVGID_35_" transform="matrix(0.8595 -0.5111 0.5111 0.8595 -203.1716 130.893)" cx="136.55" cy="435.07" rx="1.07" ry="0.53"/>
		</defs>
		<clipPath id="SVGID_36_">
			<use xlink:href="#SVGID_35_"  style="overflow:visible;"/>
		</clipPath>
		<g class="st41">
			<defs>
				<rect id="SVGID_37_" x="-1515" y="-17" width="1920" height="1080"/>
			</defs>
			<clipPath id="SVGID_38_">
				<use xlink:href="#SVGID_37_"  style="overflow:visible;"/>
			</clipPath>
			
				<rect x="130.47" y="429.54" transform="matrix(0.848 -0.5299 0.5299 0.848 -209.806 138.4692)" class="st42" width="12.15" height="11.06"/>
		</g>
	</g>
	<g>
		<defs>
			<ellipse id="SVGID_39_" cx="139" cy="366.5" rx="5" ry="4.5"/>
		</defs>
		<clipPath id="SVGID_40_">
			<use xlink:href="#SVGID_39_"  style="overflow:visible;"/>
		</clipPath>
		<g class="st43">
			<defs>
				<rect id="SVGID_41_" x="-1516" y="-17" width="1920" height="1080"/>
			</defs>
			<clipPath id="SVGID_42_">
				<use xlink:href="#SVGID_41_"  style="overflow:visible;"/>
			</clipPath>
			<rect x="129" y="357" class="st44" width="20" height="19"/>
		</g>
	</g>
	<g>
		<defs>
			<circle id="SVGID_43_" cx="145.5" cy="386.5" r="7.5"/>
		</defs>
		<clipPath id="SVGID_44_">
			<use xlink:href="#SVGID_43_"  style="overflow:visible;"/>
		</clipPath>
		<g class="st45">
			<defs>
				<rect id="SVGID_45_" x="-1518" y="-18" width="1920" height="1080"/>
			</defs>
			<clipPath id="SVGID_46_">
				<use xlink:href="#SVGID_45_"  style="overflow:visible;"/>
			</clipPath>
			<rect x="133" y="374" class="st46" width="25" height="25"/>
		</g>
	</g>
	<path class="st47" d="M143.43,385.99c0.89,1.71,1.81,2.47,2.76,2.27c0.95-0.2,1.61-1.4,1.99-3.61"/>
	<g>
		<defs>
			
				<ellipse id="SVGID_47_" transform="matrix(0.3732 -0.9278 0.9278 0.3732 -245.2667 384.86)" cx="162.18" cy="373.94" rx="3.7" ry="7.01"/>
		</defs>
		<clipPath id="SVGID_48_">
			<use xlink:href="#SVGID_47_"  style="overflow:visible;"/>
		</clipPath>
		<g class="st48">
			<defs>
				<rect id="SVGID_49_" x="-1515" y="-17" width="1920" height="1080"/>
			</defs>
			<clipPath id="SVGID_50_">
				<use xlink:href="#SVGID_49_"  style="overflow:visible;"/>
			</clipPath>
			
				<rect x="153.48" y="361.93" transform="matrix(0.3907 -0.9205 0.9205 0.3907 -245.4007 377.1152)" class="st49" width="17.39" height="24.02"/>
		</g>
	</g>
	<g>
		<defs>
			<path id="SVGID_51_" d="M161.96,375.63c1.16,0.3,2.45,0.09,2.68-0.75c0.23-0.84-0.63-1.05-1.79-1.35
				c-1.16-0.3-2.05-1.76-2.74-0.23C159.74,374.14,160.8,375.33,161.96,375.63z"/>
		</defs>
		<clipPath id="SVGID_52_">
			<use xlink:href="#SVGID_51_"  style="overflow:visible;"/>
		</clipPath>
		<g class="st50">
			<defs>
				<rect id="SVGID_53_" x="-1515" y="-17" width="1920" height="1080"/>
			</defs>
			<clipPath id="SVGID_54_">
				<use xlink:href="#SVGID_53_"  style="overflow:visible;"/>
			</clipPath>
			
				<rect x="155.98" y="366.95" transform="matrix(0.2588 -0.9659 0.9659 0.2588 -241.2921 434.2336)" class="st51" width="12.66" height="14.79"/>
		</g>
	</g>
	<g>
		<defs>
			<rect id="SVGID_55_" x="-1119" y="-637" width="1920" height="1080"/>
		</defs>
		<clipPath id="SVGID_56_">
			<use xlink:href="#SVGID_55_"  style="overflow:visible;"/>
		</clipPath>
	</g>
	<circle class="st52" cx="159" cy="410" r="6"/>
	<circle class="st53" cx="158.5" cy="411.5" r="5"/>
</g>
<g id="rechter_vleugel">
	<g>
		<defs>
			<path id="SVGID_57_" d="M174.29,381.51c2.55-5.69,4.98-9.1,7.29-10.24c3.46-1.71,2.47,0,6.81-3.64s1.9-3.81,4.23-6.8
				c2.34-2.99,5.81,3.05,3.63,7.24s-0.18,7.37-0.52,10.07c-0.35,2.7,2.77,12.18-6.45,17.22c-9.23,5.04-12.24,14.28-13.46,17.81
				c-1.22,3.53-0.94,6.32-1.23,10.59c-0.55,4.9-7.21,4.96-6.1-0.26c1.11-5.22,5.44-4.95,5.81-9.57c0.07-0.92,2.71-6.29,2.31-6.98
				c-1.23-2.13-6.75,1.27-5.39,0.26C172.42,406.33,173.44,397.76,174.29,381.51z"/>
		</defs>
		<clipPath id="SVGID_58_">
			<use xlink:href="#SVGID_57_"  style="overflow:visible;"/>
		</clipPath>
		<g class="st54">
			<defs>
				<rect id="SVGID_59_" x="-1516" y="-15" width="1920" height="1080"/>
			</defs>
			<clipPath id="SVGID_60_">
				<use xlink:href="#SVGID_59_"  style="overflow:visible;"/>
			</clipPath>
			
				<rect x="159.67" y="356.66" transform="matrix(0.9925 -0.1219 0.1219 0.9925 -46.6216 25.1784)" class="st55" width="45.7" height="74.12"/>
		</g>
	</g>
	<g id="lijfje_vlinder">
		<g>
			<defs>
				<path id="SVGID_61_" d="M168.12,375.99c1.97-3.33,6.5-4.23,7.52-0.9c1.02,3.33,0,28.91-4.29,28.91c-1.02,0-1.29-1.79-2.04-1.92
					c-0.89-0.16-1.98,1.03-3.27,3.55C165.79,390.53,166.49,380.65,168.12,375.99z"/>
			</defs>
			<clipPath id="SVGID_62_">
				<use xlink:href="#SVGID_61_"  style="overflow:visible;"/>
			</clipPath>
			<g class="st56">
				<defs>
					<rect id="SVGID_63_" x="-1516" y="-17" width="1920" height="1080"/>
				</defs>
				<clipPath id="SVGID_64_">
					<use xlink:href="#SVGID_63_"  style="overflow:visible;"/>
				</clipPath>
				<rect x="160.99" y="368" class="st57" width="20.01" height="42.63"/>
			</g>
		</g>
		<g>
			<defs>
				<path id="SVGID_65_" d="M174.64,371.04c-0.86,1.98-0.86,2.96,0,2.96c1.29,0,1.99-0.98,1.99-2.48c0-1.5,2.78-7.25,3.44-8.43
					c0.66-1.18,1.31-3.09,0.66-3.09s-3.24,3.26-3.24,4.02C177.49,364.53,176.54,366.87,174.64,371.04z"/>
			</defs>
			<clipPath id="SVGID_66_">
				<use xlink:href="#SVGID_65_"  style="overflow:visible;"/>
			</clipPath>
			<g class="st58">
				<defs>
					<rect id="SVGID_67_" x="-1516" y="-17" width="1920" height="1080"/>
				</defs>
				<clipPath id="SVGID_68_">
					<use xlink:href="#SVGID_67_"  style="overflow:visible;"/>
				</clipPath>
				<rect x="169" y="355" class="st59" width="17" height="24"/>
			</g>
		</g>
		<g>
			<defs>
				<path id="SVGID_69_" d="M179.73,360.16c1.17,0.26,1.91-1.2,2.11-2.05c0.2-0.85-0.58-1.75-1.75-2.01
					c-1.17-0.26-2.27,0.21-2.48,1.06C177.42,358.02,178.56,359.9,179.73,360.16z"/>
			</defs>
			<clipPath id="SVGID_70_">
				<use xlink:href="#SVGID_69_"  style="overflow:visible;"/>
			</clipPath>
			<g class="st60">
				<defs>
					<rect id="SVGID_71_" x="-1516" y="-17" width="1920" height="1080"/>
				</defs>
				<clipPath id="SVGID_72_">
					<use xlink:href="#SVGID_71_"  style="overflow:visible;"/>
				</clipPath>
				
					<rect x="172.61" y="350.9" transform="matrix(0.225 -0.9744 0.9744 0.225 -209.6674 452.5469)" class="st61" width="14.04" height="14.33"/>
			</g>
		</g>
		<g>
			<defs>
				<path id="SVGID_73_" d="M170.01,372.07c0.24,1.69,1.3,3.07,2.25,0.52c0.95-2.56,0.85-8.62,0.43-10.39
					c-0.28-1.18-0.59-1.49-0.92-0.93c-0.89,2.17-1.03,3.78-0.42,4.82C172.26,367.65,169.79,370.51,170.01,372.07z"/>
			</defs>
			<clipPath id="SVGID_74_">
				<use xlink:href="#SVGID_73_"  style="overflow:visible;"/>
			</clipPath>
			<g class="st62">
				<defs>
					<rect id="SVGID_75_" x="-1517" y="-17" width="1920" height="1080"/>
				</defs>
				<clipPath id="SVGID_76_">
					<use xlink:href="#SVGID_75_"  style="overflow:visible;"/>
				</clipPath>
				<rect x="165" y="356" class="st63" width="13" height="23"/>
			</g>
		</g>
		<g>
			<defs>
				<ellipse id="SVGID_77_" cx="171.5" cy="360" rx="2.5" ry="2"/>
			</defs>
			<clipPath id="SVGID_78_">
				<use xlink:href="#SVGID_77_"  style="overflow:visible;"/>
			</clipPath>
			<g class="st64">
				<defs>
					<rect id="SVGID_79_" x="-1517" y="-17" width="1920" height="1080"/>
				</defs>
				<clipPath id="SVGID_80_">
					<use xlink:href="#SVGID_79_"  style="overflow:visible;"/>
				</clipPath>
				<rect x="164" y="353" class="st65" width="15" height="14"/>
			</g>
		</g>
		<g>
			<defs>
				<path id="SVGID_81_" d="M174.48,412c0.33-2.23,0-2.94-0.99-2.13c-1.56,1.28-5.53-0.2-2.81-3.93c0.24-0.32,0.07-1.54-1.5-1.54
					c-1.48,0-3.13,2.64-3.36,3.79c-0.48,2.48-0.37,2.25-1.3,3.2s-3.5-4.37-2.15-5.22c0.42-0.27,1.87,0.05,2.55-0.52
					c1.5-1.26,2.64-3.65,4.61-3.65c2.21,0,4.36,1,4.36,2.25c-1.46,1.76-1.54,2.52-0.22,2.29s1.96-1.06,1.93-2.48
					c0.92,0.44,1.39,1.07,1.39,1.89C177,406.76,176.16,408.78,174.48,412z"/>
			</defs>
			<clipPath id="SVGID_82_">
				<use xlink:href="#SVGID_81_"  style="overflow:visible;"/>
			</clipPath>
			<g class="st66">
				<defs>
					<rect id="SVGID_83_" x="-1516" y="-17" width="1920" height="1080"/>
				</defs>
				<clipPath id="SVGID_84_">
					<use xlink:href="#SVGID_83_"  style="overflow:visible;"/>
				</clipPath>
				<rect x="157" y="397" class="st67" width="25" height="20"/>
			</g>
		</g>
		<circle class="st68" cx="175" cy="404" r="1.5"/>
		<g>
			<defs>
				
					<ellipse id="SVGID_85_" transform="matrix(0.5939 -0.8046 0.8046 0.5939 -256.5479 304.552)" cx="173.4" cy="406.4" rx="3.2" ry="1.6"/>
			</defs>
			<clipPath id="SVGID_86_">
				<use xlink:href="#SVGID_85_"  style="overflow:visible;"/>
			</clipPath>
			<g class="st69">
				<defs>
					<rect id="SVGID_87_" x="-1516" y="-17" width="1920" height="1080"/>
				</defs>
				<clipPath id="SVGID_88_">
					<use xlink:href="#SVGID_87_"  style="overflow:visible;"/>
				</clipPath>
				
					<rect x="165.19" y="399.8" transform="matrix(0.5736 -0.8192 0.8192 0.5736 -258.9603 315.3355)" class="st70" width="16.4" height="13.2"/>
			</g>
		</g>
	</g>
	<g>
		<defs>
			<path id="SVGID_89_" d="M187,374.36c2.14-2.57-1.72-4.27-1.99-4.33c-0.34,0.06-1.2,0.34-1.6,0.46c-1.08,0.33-2.12,0.77-3.19,1.71
				c-1.14,0.99-1.79,1.86-2.5,2.94c-0.34,0.52-0.73,1-1.08,1.7c0.88,0.67,1.66,1.35,3.31,1.41
				C182.08,378.32,184.67,377.16,187,374.36z"/>
		</defs>
		<clipPath id="SVGID_90_">
			<use xlink:href="#SVGID_89_"  style="overflow:visible;"/>
		</clipPath>
		<g class="st71">
			<defs>
				<rect id="SVGID_91_" x="-1516" y="-15" width="1920" height="1080"/>
			</defs>
			<clipPath id="SVGID_92_">
				<use xlink:href="#SVGID_91_"  style="overflow:visible;"/>
			</clipPath>
			
				<rect x="171.57" y="366.44" transform="matrix(0.7431 -0.6691 0.6691 0.7431 -203.8351 218.1715)" class="st72" width="21.38" height="16.3"/>
		</g>
	</g>
	<g>
		<defs>
			
				<ellipse id="SVGID_93_" transform="matrix(0.5358 -0.8444 0.8444 0.5358 -214.7296 331.6895)" cx="194.29" cy="361.13" rx="3.71" ry="2.69"/>
		</defs>
		<clipPath id="SVGID_94_">
			<use xlink:href="#SVGID_93_"  style="overflow:visible;"/>
		</clipPath>
		<g class="st73">
			<defs>
				<rect id="SVGID_95_" x="-1516" y="-16" width="1920" height="1080"/>
			</defs>
			<clipPath id="SVGID_96_">
				<use xlink:href="#SVGID_95_"  style="overflow:visible;"/>
			</clipPath>
			
				<rect x="185.58" y="353.44" transform="matrix(0.5 -0.866 0.866 0.5 -215.6032 348.8255)" class="st74" width="17.42" height="15.38"/>
		</g>
	</g>
	<g>
		<defs>
			<path id="SVGID_97_" d="M189.26,393.62c3.39-2.39,5.08-5.86,2.8-8.91s-6.48-1.96-9.86,0.42c-3.39,2.39-4.69,5.17-2.41,8.23
				S185.88,396.01,189.26,393.62z"/>
		</defs>
		<clipPath id="SVGID_98_">
			<use xlink:href="#SVGID_97_"  style="overflow:visible;"/>
		</clipPath>
		<g class="st75">
			<defs>
				<rect id="SVGID_99_" x="-1512" y="-18" width="1920" height="1080"/>
			</defs>
			<clipPath id="SVGID_100_">
				<use xlink:href="#SVGID_99_"  style="overflow:visible;"/>
			</clipPath>
			
				<rect x="173.52" y="378.65" transform="matrix(0.809 -0.5878 0.5878 0.809 -193.2187 183.6653)" class="st76" width="25.01" height="21.02"/>
		</g>
	</g>
	<path class="st77" d="M184,390.54c1.51,1.21,4.89-0.05,3.78-2.54"/>
	<g>
		<defs>
			<path id="SVGID_101_" d="M173.07,415.75c-0.84,0.88-0.63,4.78,0.67,5.33c1.3,0.55-0.64,5.83-3.23,5.03
				c-2.58-0.8-1.88-3.02-1.96-3.71s-1.82-1.7-1.42,1.4s2.52,4.86,4.97,3.99c2.45-0.87,4.14-8.01,3.87-10.18
				c-0.01-0.09-0.02-0.19-0.03-0.31c-0.13-2.68,3.35-11.38,4.18-12.86c0.84-1.48,4.99-6.09,8.96-7.77
				c3.97-1.68,9.28-12.21,8.42-19.01c-0.81-6.37-0.16-9.69,1.13-11.4c0.09-0.12,0.38-0.69,0.38-1.97s-3.52-2.58-1.9,0
				c0.31,0.49,0.31,1.03,0,1.41c-1.47,1.84-3.18,3.98-2.28,11.11c1.09,8.61-3.84,15.86-7.13,17.66c-3.28,1.8-10.57,7.52-10.4,8.91
				C177.42,404.23,173.91,414.86,173.07,415.75z"/>
		</defs>
		<clipPath id="SVGID_102_">
			<use xlink:href="#SVGID_101_"  style="overflow:visible;"/>
		</clipPath>
		<g class="st78">
			<defs>
				<rect id="SVGID_103_" x="-1516" y="-15" width="1920" height="1080"/>
			</defs>
			<clipPath id="SVGID_104_">
				<use xlink:href="#SVGID_103_"  style="overflow:visible;"/>
			</clipPath>
			
				<rect x="158.81" y="359.73" transform="matrix(0.9925 -0.1219 0.1219 0.9925 -46.834 25.2816)" class="st79" width="48.9" height="71.56"/>
		</g>
	</g>
</g>
<g id="touw_van_oog_ding">
	<g>
		<g>
			<path class="st1" d="M491.5,671c-3.02,39.46-8.78,80.68-25.7,116.75c-20.39,43.46-51.14,84.96-99.58,98.36
				c-58.16,16.08-127.96-11.44-154.8-66.75c-6.15-12.67-9.06-26.73-11.53-40.51c-2.84-15.89-4.54-31.97-5.55-48.07
				c-2.14-34.21-1.24-68.68,2.36-102.76c5.88-55.59,19.15-110.75,33.35-164.75c0.3-1.12,0.59-2.25,0.89-3.37
				c0.5-1.87-2.39-2.66-2.89-0.8c-13.31,49.5-25.12,100.02-32.14,150.82c-4.8,34.74-6.52,69.99-5.33,105.04
				c0.57,16.62,1.83,33.24,4.07,49.72c2.04,14.93,4.54,30.25,9.39,44.56c19,56.14,83.14,89.33,140.15,83.91
				c28.24-2.69,54.35-14.51,75.36-33.51c17.65-15.96,31.24-35.92,42.19-56.92c10.43-20.01,18.11-40.37,22.84-62.49
				c4.58-21.44,7.58-43.28,9.56-65.12c0.12-1.37,0.25-2.75,0.35-4.12C494.65,669.07,491.65,669.08,491.5,671L491.5,671z"/>
		</g>
	</g>
</g>
<g id="tekst">
	<text transform="matrix(1 0 0 1 87.5601 173.7671)" class="st80 st81 st82">NEW </text>
	<text transform="matrix(1 0 0 1 315.7744 178.0024)" class="st80 st81 st82 st83">YORKER</text>
	<text transform="matrix(1 0 0 1 318.0327 80.0024)" class="st80 st81 st84">THE</text>
	<text transform="matrix(1.0783 0 0 1 88.4116 55.7554)" class="st85 st86 st87">February </text>
	<text transform="matrix(1.5432 0 0 1 190 54.4951)" class="st85 st86 st88 st89">21, 1925</text>
	<text transform="matrix(1.0783 0 0 1 506.8721 58.7554)" class="st85 st86 st87">Price 15 cents</text>
</g>
</svg>
