<?xml version="1.0" encoding="utf-8"?>
<!-- Generator: Adobe Illustrator 23.0.3, SVG Export Plug-In . SVG Version: 6.00 Build 0)  -->
<svg version="1.1" id="vlinder" xmlns="http://www.w3.org/2000/svg" xmlns:xlink="http://www.w3.org/1999/xlink" x="0px" y="0px"
	 viewBox="0 0 77 84" style="enable-background:new 0 0 77 84;" xml:space="preserve">
<style type="text/css">
	.vlinder0{clip-path:url(#SVGID_2_);}
	.vlinder1{clip-path:url(#SVGID_4_);fill:#F8D8D9;}
	.vlinder2{clip-path:url(#SVGID_6_);}
	.vlinder3{clip-path:url(#SVGID_8_);fill:#717D6B;}
	.vlinder4{clip-path:url(#SVGID_10_);}
	.vlinder5{clip-path:url(#SVGID_12_);fill:#5B5047;}
	.vlinder6{clip-path:url(#SVGID_14_);}
	.vlinder7{clip-path:url(#SVGID_16_);fill:#5B5047;}
	.vlinder8{clip-path:url(#SVGID_18_);}
	.vlinder9{clip-path:url(#SVGID_20_);fill:#5B5047;}
	.vlinder10{clip-path:url(#SVGID_22_);}
	.vlinder11{clip-path:url(#SVGID_24_);fill:#7B8774;}
	.vlinder12{clip-path:url(#SVGID_26_);}
	.vlinder13{clip-path:url(#SVGID_28_);fill:#7B8774;}
	.vlinder14{fill:none;stroke:#BBC1AE;stroke-width:2;stroke-linecap:round;stroke-miterlimit:10;}
	.vlinder15{clip-path:url(#SVGID_30_);}
	.vlinder16{clip-path:url(#SVGID_32_);fill:#7B8774;}
	.vlinder17{clip-path:url(#SVGID_34_);}
	.vlinder18{clip-path:url(#SVGID_36_);fill:#BFC6AE;}
	.vlinder19{fill:#5B5047;}
	.vlinder20{fill:#7B8774;stroke:#5B5047;stroke-miterlimit:10;}
	.vlinder21{clip-path:url(#SVGID_40_);}
	.st22{clip-path:url(#SVGID_42_);fill:#F8D8D9;}
	.st23{clip-path:url(#SVGID_44_);}
	.st24{clip-path:url(#SVGID_46_);fill:#F8D8D9;}
	.st25{clip-path:url(#SVGID_48_);}
	.st26{clip-path:url(#SVGID_50_);fill:#5B5047;}
	.st27{clip-path:url(#SVGID_52_);}
	.st28{clip-path:url(#SVGID_54_);fill:#5B5047;}
	.st29{clip-path:url(#SVGID_56_);}
	.st30{clip-path:url(#SVGID_58_);fill:#5B5047;}
	.st31{clip-path:url(#SVGID_60_);}
	.st32{clip-path:url(#SVGID_62_);fill:#5B5047;}
	.st33{clip-path:url(#SVGID_64_);}
	.st34{clip-path:url(#SVGID_66_);fill:#5B5047;}
	.st35{fill:#F8D8D9;stroke:#5B5047;stroke-width:0.5;stroke-miterlimit:10;}
	.st36{clip-path:url(#SVGID_68_);}
	.st37{clip-path:url(#SVGID_70_);fill:#F8D8D9;}
	.st38{clip-path:url(#SVGID_72_);}
	.st39{clip-path:url(#SVGID_74_);fill:#7B8774;}
	.st40{clip-path:url(#SVGID_76_);}
	.st41{clip-path:url(#SVGID_78_);fill:#7B8774;}
	.st42{clip-path:url(#SVGID_80_);}
	.st43{clip-path:url(#SVGID_82_);fill:#7B8774;}
	.st44{fill:none;stroke:#BFC6AE;stroke-linecap:round;stroke-miterlimit:10;}
	.st45{clip-path:url(#SVGID_84_);}
	.st46{clip-path:url(#SVGID_86_);fill:#5B5047;}
</style>
<g id="vleugellinks_1_">
	<defs>
		<path id="SVGID_1_" d="M45.82,25.3c0.24-2.52,0.24-3.71,0-3.58c-6.4,3.58-9.4-4.39-13.82-6.4c-1.3-0.59-7.41,1.6-9.13,0.96
			c-6.86-2.55-14.33-7.08-10.63-4.53c4.63,3.19,3.94,13.35-0.59,15.29c-4.54,1.93-3.13,13.87,3.41,14.66
			c6.54,0.79-8.77,12.16-0.51,15.87s-7.48,4.94-2.9,15.54s6.55-3.53,15.44-6.32c2.26-0.71,10.41-6.48,12.35-10.48
			C41.55,51.98,43.67,41.64,45.82,25.3z"/>
	</defs>
	<clipPath id="SVGID_2_">
		<use xlink:href="#SVGID_1_"  style="overflow:visible;"/>
	</clipPath>
	<g class="vlinder0">
		<defs>
			<rect id="SVGID_3_" x="-1641" y="-371" width="1920" height="1080"/>
		</defs>
		<clipPath id="SVGID_4_">
			<use xlink:href="#SVGID_3_"  style="overflow:visible;"/>
		</clipPath>
		<rect x="4" y="6" class="vlinder1" width="47" height="76"/>
	</g>
</g>
<g id="groenrondje4">
	<defs>
		
			<ellipse id="SVGID_5_" transform="matrix(0.8778 -0.4791 0.4791 0.8778 -35.1359 15.0656)" cx="11.96" cy="76.39" rx="4.84" ry="2.65"/>
	</defs>
	<clipPath id="SVGID_6_">
		<use xlink:href="#SVGID_5_"  style="overflow:visible;"/>
	</clipPath>
	<g class="vlinder2">
		<defs>
			<rect id="SVGID_7_" x="-1639" y="-372" width="1920" height="1080"/>
		</defs>
		<clipPath id="SVGID_8_">
			<use xlink:href="#SVGID_7_"  style="overflow:visible;"/>
		</clipPath>
		<rect x="2.12" y="68.74" transform="matrix(0.866 -0.5 0.5 0.866 -36.5948 16.214)" class="st3" width="19.68" height="15.3"/>
	</g>
</g>
<g id="zwarstreepje3">
	<defs>
		<path id="SVGID_9_" d="M41.89,53.48c-0.55,3.61-2.29,6.16-3.13,7.52c-0.84,1.36-3.33,4.65-9.23,6.18
			C23.64,68.7,18.39,76,17.02,77.24c-1.37,1.24-3.02,0.98-1.25-1s7.86-9.96,10.93-9.96c2.05,0,4.45-1.91,7.2-5.74l6.31-9.03
			C41.7,50.42,42.26,51.08,41.89,53.48z"/>
	</defs>
	<clipPath id="SVGID_10_">
		<use xlink:href="#SVGID_9_"  style="overflow:visible;"/>
	</clipPath>
	<g class="st4">
		<defs>
			<rect id="SVGID_11_" x="-1639" y="-371" width="1920" height="1080"/>
		</defs>
		<clipPath id="SVGID_12_">
			<use xlink:href="#SVGID_11_"  style="overflow:visible;"/>
		</clipPath>
		<rect x="10" y="46" class="st5" width="37" height="37"/>
	</g>
</g>
<g id="staartrondje2">
	<defs>
		<circle id="SVGID_13_" cx="13.5" cy="79.5" r="0.5"/>
	</defs>
	<clipPath id="SVGID_14_">
		<use xlink:href="#SVGID_13_"  style="overflow:visible;"/>
	</clipPath>
	<g class="st6">
		<defs>
			<rect id="SVGID_15_" x="-1640" y="-371" width="1920" height="1080"/>
		</defs>
		<clipPath id="SVGID_16_">
			<use xlink:href="#SVGID_15_"  style="overflow:visible;"/>
		</clipPath>
		<rect x="8" y="74" class="st7" width="11" height="11"/>
	</g>
</g>
<g id="staartronjde1">
	<defs>
		
			<ellipse id="SVGID_17_" transform="matrix(0.8595 -0.5111 0.5111 0.8595 -39.8125 17.2886)" cx="11.55" cy="81.07" rx="1.07" ry="0.53"/>
	</defs>
	<clipPath id="SVGID_18_">
		<use xlink:href="#SVGID_17_"  style="overflow:visible;"/>
	</clipPath>
	<g class="st8">
		<defs>
			<rect id="SVGID_19_" x="-1640" y="-371" width="1920" height="1080"/>
		</defs>
		<clipPath id="SVGID_20_">
			<use xlink:href="#SVGID_19_"  style="overflow:visible;"/>
		</clipPath>
		
			<rect x="5.47" y="75.54" transform="matrix(0.848 -0.5299 0.5299 0.848 -41.2086 18.4383)" class="st9" width="12.15" height="11.06"/>
	</g>
</g>
<g id="rondje4">
	<defs>
		<ellipse id="SVGID_21_" cx="14" cy="12.5" rx="5" ry="4.5"/>
	</defs>
	<clipPath id="SVGID_22_">
		<use xlink:href="#SVGID_21_"  style="overflow:visible;"/>
	</clipPath>
	<g class="st10">
		<defs>
			<rect id="SVGID_23_" x="-1641" y="-371" width="1920" height="1080"/>
		</defs>
		<clipPath id="SVGID_24_">
			<use xlink:href="#SVGID_23_"  style="overflow:visible;"/>
		</clipPath>
		<rect x="4" y="3" class="st11" width="20" height="19"/>
	</g>
</g>
<g id="rondje3">
	<defs>
		<circle id="SVGID_25_" cx="20.5" cy="32.5" r="7.5"/>
	</defs>
	<clipPath id="SVGID_26_">
		<use xlink:href="#SVGID_25_"  style="overflow:visible;"/>
	</clipPath>
	<g class="st12">
		<defs>
			<rect id="SVGID_27_" x="-1643" y="-372" width="1920" height="1080"/>
		</defs>
		<clipPath id="SVGID_28_">
			<use xlink:href="#SVGID_27_"  style="overflow:visible;"/>
		</clipPath>
		<rect x="8" y="20" class="st13" width="25" height="25"/>
	</g>
</g>
<path id="groenstreepje2" class="st14" d="M18.43,31.99c0.89,1.71,1.81,2.47,2.76,2.27s1.61-1.4,1.99-3.61"/>
<g id="donkergroenebg">
	<defs>
		
			<ellipse id="SVGID_29_" transform="matrix(0.3732 -0.9278 0.9278 0.3732 4.8077 46.9909)" cx="37.18" cy="19.94" rx="3.7" ry="7.01"/>
	</defs>
	<clipPath id="SVGID_30_">
		<use xlink:href="#SVGID_29_"  style="overflow:visible;"/>
	</clipPath>
	<g class="st15">
		<defs>
			<rect id="SVGID_31_" x="-1640" y="-371" width="1920" height="1080"/>
		</defs>
		<clipPath id="SVGID_32_">
			<use xlink:href="#SVGID_31_"  style="overflow:visible;"/>
		</clipPath>
		
			<rect x="28.48" y="7.93" transform="matrix(0.3907 -0.9205 0.9205 0.3907 4.2994 46.3708)" class="st16" width="17.39" height="24.02"/>
	</g>
</g>
<g id="blopje">
	<defs>
		<path id="SVGID_33_" d="M36.96,21.63c1.16,0.3,2.45,0.09,2.68-0.75c0.23-0.84-0.63-1.05-1.79-1.35c-1.16-0.3-2.05-1.76-2.74-0.23
			C34.74,20.14,35.8,21.33,36.96,21.63z"/>
	</defs>
	<clipPath id="SVGID_34_">
		<use xlink:href="#SVGID_33_"  style="overflow:visible;"/>
	</clipPath>
	<g class="st17">
		<defs>
			<rect id="SVGID_35_" x="-1640" y="-371" width="1920" height="1080"/>
		</defs>
		<clipPath id="SVGID_36_">
			<use xlink:href="#SVGID_35_"  style="overflow:visible;"/>
		</clipPath>
		
			<rect x="30.98" y="12.95" transform="matrix(0.2588 -0.9659 0.9659 0.2588 7.998 51.1148)" class="st18" width="12.66" height="14.79"/>
	</g>
</g>
<g id="vleugellinks">
	<defs>
		<rect id="SVGID_37_" x="-1244" y="-991" width="1920" height="1080"/>
	</defs>
	<clipPath id="SVGID_38_">
		<use xlink:href="#SVGID_37_"  style="overflow:visible;"/>
	</clipPath>
</g>
<circle id="zwartebg" class="st19" cx="34" cy="56" r="6"/>
<circle id="groenrondje" class="st20" cx="33.5" cy="57.5" r="5"/>
<g id="rechtervleugel">
	<defs>
		<path id="SVGID_39_" d="M49.29,27.51c2.55-5.69,4.98-9.1,7.29-10.24c3.46-1.71,2.47,0,6.81-3.64c4.34-3.64,1.9-3.81,4.23-6.8
			c2.34-2.99,5.81,3.05,3.63,7.24c-2.18,4.19-0.18,7.37-0.52,10.07c-0.35,2.7,2.77,12.18-6.45,17.22S52.03,55.63,50.81,59.15
			c-1.22,3.53-0.94,6.32-1.23,10.59c-0.55,4.9-7.21,4.96-6.1-0.26c1.11-5.22,5.44-4.95,5.81-9.57c0.07-0.92,2.71-6.29,2.31-6.98
			c-1.23-2.13-6.75,1.27-5.39,0.26C47.42,52.33,48.44,43.76,49.29,27.51z"/>
	</defs>
	<clipPath id="SVGID_40_">
		<use xlink:href="#SVGID_39_"  style="overflow:visible;"/>
	</clipPath>
	<g class="st21">
		<defs>
			<rect id="SVGID_41_" x="-1641" y="-369" width="1920" height="1080"/>
		</defs>
		<clipPath id="SVGID_42_">
			<use xlink:href="#SVGID_41_"  style="overflow:visible;"/>
		</clipPath>
		
			<rect x="34.67" y="2.66" transform="matrix(0.9925 -0.1219 0.1219 0.9925 -4.4116 7.3061)" class="st22" width="45.7" height="74.12"/>
	</g>
</g>
<g id="lijfje">
	<defs>
		<path id="SVGID_43_" d="M43.12,21.99c1.97-3.33,6.5-4.23,7.52-0.9S50.64,50,46.35,50c-1.02,0-1.29-1.79-2.04-1.92
			c-0.89-0.16-1.98,1.03-3.27,3.55C40.79,36.53,41.49,26.65,43.12,21.99z"/>
	</defs>
	<clipPath id="SVGID_44_">
		<use xlink:href="#SVGID_43_"  style="overflow:visible;"/>
	</clipPath>
	<g class="st23">
		<defs>
			<rect id="SVGID_45_" x="-1641" y="-371" width="1920" height="1080"/>
		</defs>
		<clipPath id="SVGID_46_">
			<use xlink:href="#SVGID_45_"  style="overflow:visible;"/>
		</clipPath>
		<rect x="35.99" y="14" class="st24" width="20.01" height="42.63"/>
	</g>
</g>
<g id="streepje2">
	<defs>
		<path id="SVGID_47_" d="M49.64,17.04c-0.86,1.98-0.86,2.96,0,2.96c1.29,0,1.99-0.98,1.99-2.48c0-1.5,2.78-7.25,3.44-8.43
			S56.39,6,55.73,6s-3.24,3.26-3.24,4.02C52.49,10.53,51.54,12.87,49.64,17.04z"/>
	</defs>
	<clipPath id="SVGID_48_">
		<use xlink:href="#SVGID_47_"  style="overflow:visible;"/>
	</clipPath>
	<g class="st25">
		<defs>
			<rect id="SVGID_49_" x="-1641" y="-371" width="1920" height="1080"/>
		</defs>
		<clipPath id="SVGID_50_">
			<use xlink:href="#SVGID_49_"  style="overflow:visible;"/>
		</clipPath>
		<rect x="44" y="1" class="st26" width="17" height="24"/>
	</g>
</g>
<g id="volsprietrondje2">
	<defs>
		<path id="SVGID_51_" d="M54.73,6.16c1.17,0.26,1.91-1.2,2.11-2.05c0.2-0.85-0.58-1.75-1.75-2.01c-1.17-0.26-2.27,0.21-2.48,1.06
			C52.42,4.02,53.56,5.9,54.73,6.16z"/>
	</defs>
	<clipPath id="SVGID_52_">
		<use xlink:href="#SVGID_51_"  style="overflow:visible;"/>
	</clipPath>
	<g class="st27">
		<defs>
			<rect id="SVGID_53_" x="-1641" y="-371" width="1920" height="1080"/>
		</defs>
		<clipPath id="SVGID_54_">
			<use xlink:href="#SVGID_53_"  style="overflow:visible;"/>
		</clipPath>
		
			<rect x="47.61" y="-3.1" transform="matrix(0.225 -0.9744 0.9744 0.225 38.3785 56.3834)" class="st28" width="14.04" height="14.33"/>
	</g>
</g>
<g id="streepje_1_">
	<defs>
		<path id="SVGID_55_" d="M45.01,18.07c0.24,1.69,1.3,3.07,2.25,0.52c0.95-2.56,0.85-8.62,0.43-10.39
			c-0.28-1.18-0.59-1.49-0.92-0.93c-0.89,2.17-1.03,3.78-0.42,4.82C47.26,13.65,44.79,16.51,45.01,18.07z"/>
	</defs>
	<clipPath id="SVGID_56_">
		<use xlink:href="#SVGID_55_"  style="overflow:visible;"/>
	</clipPath>
	<g class="st29">
		<defs>
			<rect id="SVGID_57_" x="-1642" y="-371" width="1920" height="1080"/>
		</defs>
		<clipPath id="SVGID_58_">
			<use xlink:href="#SVGID_57_"  style="overflow:visible;"/>
		</clipPath>
		<rect x="40" y="2" class="st30" width="13" height="23"/>
	</g>
</g>
<g id="volsprietrondje1">
	<defs>
		<ellipse id="SVGID_59_" cx="46.5" cy="6" rx="2.5" ry="2"/>
	</defs>
	<clipPath id="SVGID_60_">
		<use xlink:href="#SVGID_59_"  style="overflow:visible;"/>
	</clipPath>
	<g class="st31">
		<defs>
			<rect id="SVGID_61_" x="-1642" y="-371" width="1920" height="1080"/>
		</defs>
		<clipPath id="SVGID_62_">
			<use xlink:href="#SVGID_61_"  style="overflow:visible;"/>
		</clipPath>
		<rect x="39" y="-1" class="st32" width="15" height="14"/>
	</g>
</g>
<g id="zwarterand2">
	<defs>
		<path id="SVGID_63_" d="M49.48,58c0.33-2.23,0-2.94-0.99-2.13c-1.56,1.28-5.53-0.2-2.81-3.93c0.24-0.32,0.07-1.54-1.5-1.54
			c-1.48,0-3.13,2.64-3.36,3.79c-0.48,2.48-0.37,2.25-1.3,3.2c-0.92,0.95-3.5-4.37-2.15-5.22c0.42-0.27,1.87,0.05,2.55-0.52
			c1.5-1.26,2.64-3.65,4.61-3.65c2.21,0,4.36,1,4.36,2.25c-1.46,1.76-1.54,2.52-0.22,2.29c1.32-0.23,1.96-1.06,1.93-2.48
			c0.92,0.44,1.39,1.07,1.39,1.89C52,52.76,51.16,54.78,49.48,58z"/>
	</defs>
	<clipPath id="SVGID_64_">
		<use xlink:href="#SVGID_63_"  style="overflow:visible;"/>
	</clipPath>
	<g class="st33">
		<defs>
			<rect id="SVGID_65_" x="-1641" y="-371" width="1920" height="1080"/>
		</defs>
		<clipPath id="SVGID_66_">
			<use xlink:href="#SVGID_65_"  style="overflow:visible;"/>
		</clipPath>
		<rect x="32" y="43" class="st34" width="25" height="20"/>
	</g>
</g>
<circle id="rozerondje2" class="st35" cx="50" cy="50" r="1.5"/>
<g id="rozerondje1">
	<defs>
		
			<ellipse id="SVGID_67_" transform="matrix(0.5939 -0.8046 0.8046 0.5939 -22.5011 60.217)" cx="48.4" cy="52.4" rx="3.2" ry="1.6"/>
	</defs>
	<clipPath id="SVGID_68_">
		<use xlink:href="#SVGID_67_"  style="overflow:visible;"/>
	</clipPath>
	<g class="st36">
		<defs>
			<rect id="SVGID_69_" x="-1641" y="-371" width="1920" height="1080"/>
		</defs>
		<clipPath id="SVGID_70_">
			<use xlink:href="#SVGID_69_"  style="overflow:visible;"/>
		</clipPath>
		
			<rect x="40.19" y="45.8" transform="matrix(0.5736 -0.8192 0.8192 0.5736 -22.2834 61.9875)" class="st37" width="16.4" height="13.2"/>
	</g>
</g>
<g id="rondje2">
	<defs>
		<path id="SVGID_71_" d="M62,20.36c2.14-2.57-1.72-4.27-1.99-4.33c-0.34,0.06-1.2,0.34-1.6,0.46c-1.08,0.33-2.12,0.77-3.19,1.71
			c-1.14,0.99-1.79,1.86-2.5,2.94c-0.34,0.52-0.73,1-1.08,1.7c0.88,0.67,1.66,1.35,3.31,1.41C57.08,24.32,59.67,23.16,62,20.36z"/>
	</defs>
	<clipPath id="SVGID_72_">
		<use xlink:href="#SVGID_71_"  style="overflow:visible;"/>
	</clipPath>
	<g class="st38">
		<defs>
			<rect id="SVGID_73_" x="-1641" y="-369" width="1920" height="1080"/>
		</defs>
		<clipPath id="SVGID_74_">
			<use xlink:href="#SVGID_73_"  style="overflow:visible;"/>
		</clipPath>
		
			<rect x="46.57" y="12.44" transform="matrix(0.7431 -0.6691 0.6691 0.7431 0.9303 43.6035)" class="st39" width="21.38" height="16.3"/>
	</g>
</g>
<g id="bolletje1">
	<defs>
		
			<ellipse id="SVGID_75_" transform="matrix(0.5358 -0.8444 0.8444 0.5358 26.1444 61.8154)" cx="69.29" cy="7.13" rx="3.71" ry="2.69"/>
	</defs>
	<clipPath id="SVGID_76_">
		<use xlink:href="#SVGID_75_"  style="overflow:visible;"/>
	</clipPath>
	<g class="st40">
		<defs>
			<rect id="SVGID_77_" x="-1641" y="-370" width="1920" height="1080"/>
		</defs>
		<clipPath id="SVGID_78_">
			<use xlink:href="#SVGID_77_"  style="overflow:visible;"/>
		</clipPath>
		<rect x="60.58" y="-0.56" transform="matrix(0.5 -0.866 0.866 0.5 28.4698 63.5725)" class="st41" width="17.42" height="15.38"/>
	</g>
</g>
<g id="rondje1">
	<defs>
		<path id="SVGID_79_" d="M64.26,39.62c3.39-2.39,5.08-5.86,2.8-8.91c-2.29-3.05-6.48-1.96-9.86,0.42
			c-3.39,2.39-4.69,5.17-2.41,8.23C57.08,42.41,60.88,42.01,64.26,39.62z"/>
	</defs>
	<clipPath id="SVGID_80_">
		<use xlink:href="#SVGID_79_"  style="overflow:visible;"/>
	</clipPath>
	<g class="st42">
		<defs>
			<rect id="SVGID_81_" x="-1637" y="-372" width="1920" height="1080"/>
		</defs>
		<clipPath id="SVGID_82_">
			<use xlink:href="#SVGID_81_"  style="overflow:visible;"/>
		</clipPath>
		
			<rect x="48.52" y="24.65" transform="matrix(0.809 -0.5878 0.5878 0.809 -9.0156 42.5842)" class="st43" width="25.01" height="21.02"/>
	</g>
</g>
<path id="streepje" class="st44" d="M59,36.54c1.51,1.21,4.89-0.05,3.78-2.54"/>
<g id="zwartterand">
	<defs>
		<path id="SVGID_83_" d="M48.07,61.75c-0.84,0.88-0.63,4.78,0.67,5.33c1.3,0.55-0.64,5.83-3.23,5.03c-2.58-0.8-1.88-3.02-1.96-3.71
			s-1.82-1.7-1.42,1.4s2.52,4.86,4.97,3.99c2.45-0.87,4.14-8.01,3.87-10.18c-0.01-0.09-0.02-0.19-0.03-0.31
			c-0.13-2.68,3.35-11.38,4.18-12.86c0.84-1.48,4.99-6.09,8.96-7.77c3.97-1.68,9.28-12.21,8.42-19.01
			c-0.81-6.37-0.16-9.69,1.13-11.4c0.09-0.12,0.38-0.69,0.38-1.97c0-1.28-3.52-2.58-1.9,0c0.31,0.49,0.31,1.03,0,1.41
			c-1.47,1.84-3.18,3.98-2.28,11.11c1.09,8.61-3.84,15.86-7.13,17.66c-3.28,1.8-10.57,7.52-10.4,8.91
			C52.42,50.23,48.91,60.86,48.07,61.75z"/>
	</defs>
	<clipPath id="SVGID_84_">
		<use xlink:href="#SVGID_83_"  style="overflow:visible;"/>
	</clipPath>
	<g class="st45">
		<defs>
			<rect id="SVGID_85_" x="-1641" y="-369" width="1920" height="1080"/>
		</defs>
		<clipPath id="SVGID_86_">
			<use xlink:href="#SVGID_85_"  style="overflow:visible;"/>
		</clipPath>
		
			<rect x="33.81" y="5.73" transform="matrix(0.9925 -0.1219 0.1219 0.9925 -4.624 7.4093)" class="st46" width="48.9" height="71.56"/>
	</g>
</g>
</svg>
