<?xml version="1.0" encoding="utf-8"?>
<!-- Generator: Adobe Illustrator 23.0.3, SVG Export Plug-In . SVG Version: 6.00 Build 0)  -->
<svg version="1.1" id="Wolk-top" xmlns="http://www.w3.org/2000/svg" xmlns:xlink="http://www.w3.org/1999/xlink" x="0px" y="0px"
	 viewBox="0 0 755 59" style="enable-background:new 0 0 755 59;" xml:space="preserve">
<style type="text/css">
	.st0{clip-path:url(#SVGID_2_);}
	.st1{clip-path:url(#SVGID_4_);fill:#F4E0DB;}
</style>
<g>
	<defs>
		<path id="SVGID_1_" d="M755,51.51c-7.58,2.76-14.82,2.76-21.73,0c-10.37-4.15-23.8-4.11-37.34-4.11c-13.54,0-7.73-6.68-25.51-6.68
			c-17.78,0-36.41,0-40.63-3.52c-1.85-3.89-13.47-0.64-20.73-0.64c-12.48-3.25-17.44,0.64-22.18-3.25s-42.51-4.22-47.68,0
			c-5.17,4.22-64.02,0.36-92.88,3.89c-28.86,3.52-74.79,3.52-95.08,0s-77.17,4.71-94.34,3.52c-17.17-1.19-22.17-1.84-25.02-4.16
			c-2.86-2.32-18.78,1.08-32.92,0.64c-37.24-1.18-53.4-7.77-69.83-3.89s-35.69,6.14-48.9,3.89C67.01,34.94,64.48,33,60,37.2
			c-2.99,2.8-19.99,1.5-51-3.89V5h746V51.51z"/>
	</defs>
	<clipPath id="SVGID_2_">
		<use xlink:href="#SVGID_1_"  style="overflow:visible;"/>
	</clipPath>
	<g class="st0">
		<defs>
			<rect id="SVGID_3_" x="-578" y="-18" width="1920" height="1080"/>
		</defs>
		<clipPath id="SVGID_4_">
			<use xlink:href="#SVGID_3_"  style="overflow:visible;"/>
		</clipPath>
		<rect x="4" class="st1" width="756" height="58.58"/>
	</g>
</g>
</svg>
